<svg width="186" height="85" viewBox="0 0 186 85" fill="none" xmlns="http://www.w3.org/2000/svg">
	<path
		d="M137.74 39.6903C138.061 40.049 138.388 40.4081 138.714 40.7681C137.144 42.0862 135.564 43.078 133.983 43.7374C132.419 44.3902 130.855 44.7191 129.304 44.7271C128.034 44.7337 126.987 44.5214 126.163 44.1008C125.349 43.6852 124.749 43.0603 124.358 42.2313C123.974 41.417 123.793 40.5031 123.821 39.494C123.848 38.4928 124.074 37.3945 124.499 36.1994C124.97 34.8752 125.6 33.6857 126.384 32.6289C127.168 31.5731 128.113 30.6366 129.225 29.823C130.34 29.0077 131.467 28.3666 132.602 27.9052C133.749 27.4391 134.916 27.1522 136.098 27.0449C137.021 26.961 137.834 26.9812 138.539 27.1017C139.246 27.2226 139.844 27.4506 140.326 27.7826C141.304 28.4557 141.634 29.3225 141.301 30.3756C141.088 31.0501 140.691 31.5877 140.107 31.9883C139.526 32.387 138.918 32.6051 138.283 32.6444C136.622 32.7475 136.012 31.9241 136.436 30.1824C136.698 29.1095 136.358 28.6125 135.419 28.6914C134.278 28.7872 133.352 29.454 132.629 30.6953C132.266 31.3188 131.898 32.0639 131.53 32.9278C131.159 33.7978 130.784 34.7904 130.403 35.9125C130.177 36.5777 129.95 37.2443 129.722 37.9155C129.246 39.3192 129.206 40.3899 129.613 41.1153C130.025 41.8496 130.784 42.2095 131.89 42.192C132.712 42.1791 133.611 41.9641 134.583 41.5505C135.56 41.1347 136.615 40.5128 137.74 39.6903Z"
		fill="#E72D30" />
	<path
		d="M125.772 28.8437C125.637 29.3439 125.513 29.8352 125.391 30.3179C124.778 30.3413 124.172 30.6113 123.547 31.132C122.919 31.6553 122.08 32.6356 121.023 34.0746C119.994 35.4771 118.956 36.8977 117.913 38.3192C116.857 39.7578 115.799 41.2141 114.736 42.6658C113.672 44.1205 112.605 45.5703 111.536 47.0302C110.449 48.5138 109.36 50.0053 108.26 51.5075C106.927 53.3285 105.811 54.67 104.895 55.5269C103.982 56.3851 102.84 56.9459 101.485 57.1891C100.317 57.3987 99.4678 57.2811 98.9516 56.805C98.4354 56.3288 98.3102 55.6691 98.5496 54.8218C99.0876 52.9532 101.863 51.217 103.685 52.4139C104.187 52.7437 104.644 52.8716 105.056 52.8054C105.97 52.6586 107.861 48.7563 108.565 47.8061C108.183 45.8982 108.021 43.9299 107.861 41.937C107.7 39.925 107.534 37.8768 107.131 35.8511C106.844 34.4138 106.101 33.756 104.937 33.8455C105.072 33.3605 105.214 32.8836 105.36 32.3897C107.132 32.0854 108.9 31.7793 110.677 31.4714C111.569 31.317 112.468 31.1641 113.36 31.0074C114.246 30.8534 115.135 30.7021 116.024 30.5447C115.895 31.0347 115.764 31.5189 115.629 32.0031C114.462 32.1768 113.775 32.6584 113.56 33.4345C113.546 33.4853 113.656 35.294 113.774 37.1052C113.891 38.9026 114.021 40.7088 114.048 40.8412C114.911 40.7237 118.77 35.0411 119.503 34.0553C120.007 33.3743 120.341 32.7393 120.5 32.1159C120.569 31.8418 120.477 31.6221 120.22 31.4631C119.968 31.3073 119.521 31.3034 118.892 31.4373C119.013 30.9548 119.147 30.4691 119.274 29.9834C120.353 29.7977 121.43 29.603 122.507 29.4168C123.587 29.2272 124.67 29.0402 125.772 28.8437Z"
		fill="#E72D30" />
	<path
		d="M84.3229 35.2971C85.823 35.0752 87.3241 34.8565 88.8211 34.6375C90.3168 34.4187 91.8153 34.1969 93.3123 33.9769C93.1804 34.4832 93.0508 34.9875 92.9214 35.4902C92.3627 35.6294 91.8821 35.9292 91.4869 36.39C91.0927 36.8498 90.8078 37.4133 90.6386 38.0779C90.3717 39.1163 90.1078 40.1534 89.8399 41.1911C90.9097 41.1148 91.8497 40.7182 92.6623 40.0002C93.4723 39.2845 94.2609 38.3491 95.0294 37.1787C96.226 35.3519 97.4544 34.0509 98.7129 33.286C99.9753 32.5191 101.267 32.279 102.591 32.5727C102.354 33.4705 102.121 34.3701 101.889 35.2728C101.657 36.1694 101.425 37.0695 101.195 37.9657C100.666 38.045 100.136 38.1263 99.6075 38.2039C99.7508 37.7667 99.7176 37.3849 99.5128 37.0566C99.3061 36.7256 98.9482 36.5978 98.4323 36.6739C97.828 36.7645 97.3495 36.9626 96.9961 37.2631C96.6399 37.566 96.1841 38.0602 95.6265 38.7528C94.6894 39.916 93.6982 40.8112 92.6653 41.4367C92.6448 41.5071 92.6265 41.5794 92.6082 41.6497C93.496 41.4919 94.3338 41.4844 95.1272 41.6292C95.9225 41.7746 96.5853 42.0694 97.1246 42.5136C97.6657 42.9591 97.9725 43.5078 98.0763 44.1554C98.1498 44.6143 98.2134 45.1966 98.2328 45.9112C98.2521 46.6257 98.343 47.1433 98.5066 47.464C98.6697 47.7837 99.0078 47.9741 99.5128 48.035C99.3878 48.5214 99.2606 49.0117 99.1362 49.4926C98.0285 49.6759 97.069 49.7719 96.2709 49.8358C92.6075 50.1291 91.6842 49.2204 91.577 47.8678C91.4693 46.507 92.1791 44.6963 91.7533 43.192C91.5966 42.6379 90.6699 42.6181 89.3958 42.9194C89.0404 44.3013 88.6861 45.6845 88.333 47.065C87.9841 48.418 88.3455 49.1234 89.4091 49.1839C89.2773 49.6893 89.148 50.191 89.0208 50.6946C87.5251 50.9216 86.0279 51.1473 84.5334 51.3737C83.0394 51.6005 81.5398 51.8226 80.0469 52.0469C80.1722 51.5481 80.302 51.0415 80.4298 50.5369C81.6121 50.1381 82.3779 49.2615 82.7261 47.9045C83.1102 46.4084 83.4898 44.9067 83.8726 43.4099C84.2558 41.9117 84.6435 40.4078 85.027 38.9074C85.1972 38.2412 85.194 37.7141 85.0158 37.3215C84.8389 36.9318 84.4754 36.7639 83.9348 36.815C84.0647 36.3096 84.1948 35.8062 84.3229 35.2971Z"
		fill="#E72D30" />
	<path
		d="M120.89 52.043C121.04 54.6707 121.381 57.2762 121.53 59.9039C121.549 59.9018 121.568 59.8996 121.53 59.9039C121.492 59.9082 121.511 59.906 121.53 59.9039C122.484 58.3885 123.668 56.8539 124.614 55.3558C125.553 53.8673 126.494 52.3794 127.427 50.9021C128.826 50.7403 130.23 50.575 131.628 50.4114C133.028 50.2476 134.425 50.0871 135.826 49.9195C135.688 50.4113 135.558 50.9029 135.425 51.3965C134.309 51.6616 133.568 52.4849 133.189 53.871C132.784 55.3522 132.379 56.8393 131.972 58.3303C131.562 59.8323 131.151 61.3432 130.738 62.8581C130.363 64.2351 130.689 64.9775 131.724 65.0831C131.586 65.5986 131.447 66.1141 131.306 66.6294C129.813 66.8102 128.32 66.9925 126.823 67.1742C125.331 67.3554 123.83 67.5322 122.334 67.7145C122.485 67.1937 122.629 66.6748 122.777 66.1558C123.964 65.7285 124.745 64.8487 125.116 63.5304C125.357 62.6752 125.597 61.8194 125.836 60.9691C126.075 60.1206 126.316 59.2734 126.554 58.4282C126.791 57.5883 127.03 56.7466 127.264 55.9135C127.499 55.0809 127.735 54.2449 127.97 53.4151C127.883 53.4262 127.793 53.4373 127.7 53.4485C126.951 54.6496 126.198 55.8546 125.441 57.0662C124.684 58.2776 123.923 59.4979 123.161 60.7177C122.391 61.9499 121.618 63.186 120.843 64.4283C120.068 65.6706 119.288 66.9212 118.505 68.1756C117.786 68.264 117.06 68.3503 116.334 68.4365C116.284 67.2893 116.239 66.1422 116.192 65.0049C116.144 63.8699 116.102 62.7348 116.056 61.6058C116.011 60.4828 115.962 59.3619 115.919 58.2488C115.875 57.138 115.831 56.031 115.785 54.9281C115.695 54.9391 115.607 54.95 115.514 54.961C115.253 55.8179 114.991 56.6766 114.732 57.5383C114.472 58.4018 114.21 59.2653 113.947 60.1334C113.684 61.0055 113.415 61.8805 113.151 62.7578C112.886 63.6359 112.618 64.5162 112.351 65.3981C111.976 66.6381 112.231 67.7569 113.292 67.7739L112.976 69.4909L107.719 69.4748C107.877 68.9517 108.041 68.4323 108.201 67.9071C109.176 68.1982 109.863 67.7286 110.242 66.2869C110.3 66.0662 110.433 65.8596 110.506 65.6194C110.768 64.7533 111.034 63.8893 111.295 63.0302C111.556 62.1719 111.823 61.313 112.082 60.4587C112.341 59.6068 112.605 58.7573 112.863 57.9128C113.122 57.07 113.382 56.2245 113.639 55.385C113.928 54.4456 113.541 54.0129 112.472 54.0846C112.627 53.5864 112.778 53.0919 112.935 52.5915C115.645 52.2813 118.181 52.3625 120.89 52.043Z"
		fill="#E72D30" />
	<path
		d="M152.913 60.6905C152.788 61.198 152.663 61.7056 152.537 62.2147C151.539 63.1234 150.391 63.6819 149.096 63.8898C147.495 64.147 146.506 63.5164 146.134 61.9996C146.058 62.0119 145.982 62.0242 145.906 62.0365C144.878 62.9893 143.829 63.7506 142.763 64.3166C141.696 64.8833 140.608 65.2524 139.505 65.4295C137.576 65.7393 136.37 65.4831 135.887 64.6589C135.405 63.8361 135.307 62.9216 135.591 61.9139C136.196 59.763 137.474 58.0139 139.421 56.6563C141.362 55.3028 143.984 54.3272 147.291 53.7277C147.396 53.3256 147.501 52.9252 147.606 52.5215C148.002 51.0079 148.089 50.0354 147.86 49.5988C147.631 49.1638 147.16 49.0057 146.445 49.1242C145.583 49.2669 144.67 49.9167 143.702 51.0781C143.281 51.5837 142.876 51.9978 142.489 52.3197C142.102 52.6419 141.685 52.8412 141.234 52.9152C140.788 52.9885 140.44 52.9096 140.191 52.6783C139.943 52.4472 139.883 52.1041 140.01 51.6476C140.253 50.7698 141.041 49.919 142.37 49.0936C143.033 48.682 143.785 48.3311 144.62 48.0414C145.453 47.7525 146.376 47.5212 147.384 47.3536C149.76 46.9589 151.385 47.2711 152.268 48.2909C153.155 49.3158 153.292 51.0648 152.668 53.551C152.439 54.464 152.21 55.379 151.979 56.2971C151.748 57.2189 151.515 58.1442 151.281 59.0732C151.184 59.4576 151.137 59.7993 151.135 60.0994C151.133 60.3996 151.259 60.627 151.515 60.7863C151.772 60.9456 152.235 60.9143 152.913 60.6905ZM146.836 55.4625C145.628 55.6599 144.531 56.2278 143.544 57.1691C142.555 58.1118 141.895 59.1871 141.569 60.3934C141.137 61.9928 141.546 62.6962 142.798 62.4941C144.325 62.248 145.41 60.9057 146.043 58.4843C146.308 57.4732 146.572 56.4652 146.836 55.4625Z"
		fill="#E72D30" />
	<path
		d="M177.381 43.0735C177.229 43.5997 177.076 44.1205 176.925 44.6414C175.729 45.0239 174.932 45.9094 174.529 47.3004C174.085 48.8335 173.642 50.3667 173.202 51.8876C172.762 53.405 172.324 54.9193 171.888 56.4263C171.512 57.7273 171.837 58.4459 172.868 58.5803C172.72 59.0857 172.574 59.5909 172.427 60.0944C170.922 60.2987 169.425 60.5028 167.935 60.7054C166.451 60.9072 164.97 61.1068 163.496 61.3073C163.636 60.8099 163.776 60.3126 163.917 59.8134C165.075 59.4344 165.844 58.5716 166.227 57.2221C166.533 56.1425 166.84 55.0613 167.148 53.9765C165.673 54.1053 164.643 54.4771 164.047 55.0877C163.452 55.6977 162.824 56.5628 162.202 57.7041C161.397 59.181 160.448 60.3482 159.315 61.1838C158.188 62.0156 156.888 62.5305 155.421 62.7293C154.977 62.7895 154.331 62.8102 153.486 62.7916C153.623 62.2874 153.76 61.7815 153.898 61.2741C154.406 61.1779 154.767 60.972 154.982 60.6567C155.196 60.3422 155.495 59.8239 155.859 59.087C156.581 57.6254 157.512 56.4975 158.678 55.713C159.847 54.9264 161.021 54.391 162.202 54.1085C162.226 54.0249 162.25 53.9378 162.274 53.8507C160.359 54.0064 159.022 53.7872 158.254 53.1982C157.486 52.6086 157.287 51.6427 157.652 50.3048C158.211 48.2522 159.341 46.8882 161.048 46.2216C161.903 45.8877 162.897 45.5801 164.031 45.3029C165.166 45.0256 166.445 44.7726 167.864 44.5521C169.434 44.3082 171.012 44.0631 172.593 43.8173C174.181 43.5706 175.778 43.3225 177.381 43.0735ZM169.419 45.9621C169.233 45.9907 169.046 46.0196 168.863 46.0477C167.719 46.2232 166.625 46.5463 165.586 47.0123C164.542 47.48 163.821 48.442 163.417 49.8969C163.079 51.1137 163.26 51.8722 163.965 52.1709C164.671 52.4698 165.893 52.4905 167.641 52.235C167.936 51.1967 168.232 50.1551 168.527 49.1115C168.823 48.0666 169.12 47.0159 169.419 45.9621Z"
		fill="#E72D30" />
	<path fill-rule="evenodd" clip-rule="evenodd"
		d="M43.9132 17.6319V16.8786C43.9132 -1.33208 14.7279 -0.4355 6.61445 13.3247C2.36899 20.5246 5.80344 27.5679 15.9957 27.4144C19.9662 27.3545 24.8423 26.8906 30.4748 24.1199C27.8827 28.415 5.40151 33.0153 1.12896 24.4653C-2.89657 15.8872 4.53021 7.97044 12.5689 4.40103C23.4577 -0.434208 47.3609 -0.249109 50.3183 14.2764C51.4831 23.4392 44.4618 36.6175 36.8603 47.3731C33.9617 51.4744 31.9063 54.0817 27.7442 57.3509C27.1083 57.8505 26.4914 58.3306 25.9233 58.7752C23.8633 60.3872 22.3905 61.3721 21.8347 61.4256C22.3379 47.4449 32.7833 27.4882 43.9132 17.6319ZM29.3322 51.7055C28.7782 41.5447 35.8242 26.9747 43.8181 20.4545C44.3061 34.2631 29.8057 54.7116 29.3322 51.7055Z"
		fill="#E72D30" />
	<path fill-rule="evenodd" clip-rule="evenodd"
		d="M43.8181 20.4546C43.6502 21.0081 44.0791 18.2258 43.9132 17.6319C50.2163 12.8555 61.8378 1.25662 76.3632 0.0331913C82.047 -0.445465 84.4001 4.33989 82.1738 8.77087C77.7068 17.6619 64.0055 28.0571 60.8878 29.1265C60.6601 29.2046 61.5895 27.7785 61.4979 27.7738C53.8981 28.0123 45.2989 37.5402 44.9537 41.7955C48.7431 40.0098 57.5248 34.3432 61.0002 30.4669C61.1617 30.2867 61.7447 29.675 62.3581 29.5547C62.9715 29.4345 64.0335 29.7068 64.1684 29.5065C64.4751 29.0514 60.832 29.5003 60.7825 29.0351C60.4216 27.7816 73.9083 15.8353 76.1808 10.767C77.1242 8.66284 76.436 4.8637 73.432 4.28174C62.3728 2.13953 43.9054 20.1663 43.8181 20.4546Z"
		fill="#E72D30" />
	<path fill-rule="evenodd" clip-rule="evenodd"
		d="M64.896 36.9825C60.862 39.575 56.0026 44.3595 52.9158 47.8111C45.824 56.9889 44.1721 70.7873 57.9804 67.8453C69.5549 65.2245 81.2669 49.4205 78.8317 38.0613C77.3694 31.2394 71.1338 26.4951 63.3011 28.1078C62.2324 28.3278 61.4012 28.6765 60.9928 29.2179L60.7822 29.0351C60.9941 29.2538 61.2962 29.553 61.7263 29.5524C63.6555 29.5498 67.5294 29.5579 69.7968 32.3307C74.204 37.7205 70.6522 47.0329 67.3247 52.3372C64.4229 56.9632 59.9352 60.8429 54.5136 61.2753C49.189 61.6998 49.0724 56.6957 50.5818 52.9971C53.5805 45.6473 65.1677 36.6616 64.896 36.9825Z"
		fill="#E72D30" />
	<path
		d="M60.7755 29.2902C61.0679 29.5727 61.6129 29.4978 61.9929 29.1227C62.3728 28.7477 62.4438 28.2146 62.1515 27.9321C61.8591 27.6496 61.3141 27.7246 60.9341 28.0996C60.5541 28.4746 60.4831 29.0077 60.7755 29.2902Z"
		fill="#E72D30" />
	<path
		d="M162.069 41.2455C162.169 17.9432 131.995 17.1512 114.418 19.337C102.516 20.3582 91.6051 23.7005 81.1406 28.0903C101.425 17.6668 129.794 12.4931 152.242 17.1356C163.361 19.4353 178.994 26.5719 176.617 39.9826L162.069 41.2455Z"
		fill="#E72D30" />
	<path
		d="M137.979 68.286C126.618 76.4713 109.256 81.308 89.8428 85C112.744 83.4619 133.972 77.8379 152.851 66.4773L137.979 68.286Z"
		fill="#E72D30" />
	<path fill-rule="evenodd" clip-rule="evenodd"
		d="M167.252 18.5116C167.969 16.5433 170.999 12.6479 172.411 11.2794C173.394 10.3257 175.897 8.42717 177.635 7.23195C181.639 4.47974 188.338 4.6995 185.078 10.0323C184.108 11.6204 182.982 11.8964 182.432 12.6463C181.911 13.3571 182.324 13.9252 182.843 14.4978C183.931 15.6996 184.747 16.2575 183.048 17.5362C181.467 18.7257 178.11 19.3988 174.881 19.7472C172.721 19.9802 170.817 19.8511 169.34 19.8511C169.561 19.4077 171.341 19.4538 173.951 18.9717C178.472 18.137 184.289 16.8644 182.611 15.5397C181.903 14.9812 180.589 14.1806 181.408 11.9688C181.909 10.6133 185.119 10.1725 184.534 7.48233C184.346 6.61989 182.521 6.65559 180.973 7.14818C177.38 8.29093 173.026 12.2418 170.345 14.9176C169.876 15.3858 167.633 18.5223 167.252 18.5116Z"
		fill="#E72D30" />
	<path fill-rule="evenodd" clip-rule="evenodd"
		d="M166.219 18.0504C165.467 14.5713 164.579 -1.94629 171.369 0.232134C173.681 0.973729 172.727 4.49961 172.864 5.94753C172.924 6.57852 173.193 6.59572 173.662 6.94045C174.744 7.73572 174.454 9.4969 173.735 9.56167C173.387 7.4413 173.274 8.25618 172.354 7.69082C171.841 7.37645 171.642 7.12882 171.581 6.51968C171.404 4.74922 172.64 1.2887 170.68 1.13113C169.553 1.04065 169.144 1.54545 168.669 2.45675C165.676 8.19658 166.248 18.1864 166.219 18.0504Z"
		fill="#E72D30" />
	<path fill-rule="evenodd" clip-rule="evenodd"
		d="M173.686 24.3052C173.471 23.7109 168.819 20.3432 168.031 19.9079C166.666 19.1541 165.262 18.3718 163.683 18.0036C162.908 17.8228 162.74 17.8926 163.033 18.6541C163.248 19.215 163.641 19.5584 163.879 19.536C163.881 19.5279 163.878 19.474 163.873 19.3963C163.821 18.6206 163.344 18.4492 164.363 18.7349C165.161 18.9588 169.12 20.8722 169.593 21.4138C169.596 21.4173 170.434 22.064 170.499 22.0858C170.5 22.1017 170.327 22.1056 170.122 22.0185C168.963 21.5247 165.122 20.2751 164.433 20.2411C164.459 20.6839 168.04 21.8908 170.593 22.8224C171.818 23.269 172.747 23.8399 172.993 24.0455C173.165 24.1888 173.734 24.4384 173.686 24.3052Z"
		fill="#E72D30" />
	<path
		d="M162.669 17.4361C162.565 17.1152 161.188 15.9524 161.45 15.7733C162.043 15.369 162.592 17.2255 162.669 17.4361Z"
		fill="#E72D30" />
	<path
		d="M162.209 17.8563C161.886 17.7381 160.769 16.3347 160.572 16.5814C160.128 17.1385 161.998 17.7702 162.209 17.8563Z"
		fill="#E72D30" />
</svg>
