<svg width="420" height="27" viewBox="0 0 420 27" fill="none" xmlns="http://www.w3.org/2000/svg">
	<g clip-path="url(#clip0_284_24)">
		<path d="M146.187 0C105.899 0 108.703 27 0 27H290.5C183.671 25.0244 186.475 0 146.187 0Z" fill="white" />
		<path
			d="M436.686 10.7144C396.399 10.7144 399.203 27.0001 290.5 27.0001H581C474.173 25.8084 476.977 10.7144 436.686 10.7144Z"
			fill="white" />
		<path opacity="0.5"
			d="M249.064 10.7144C208.776 10.7144 211.58 27.0001 102.877 27.0001H393.377C286.548 25.8084 289.352 10.7144 249.064 10.7144Z"
			fill="white" />
		<path opacity="0.5"
			d="M75.1092 10.7144C54.4099 10.7144 55.8502 27.0001 0 27.0001H149.255C94.3678 25.8084 95.8085 10.7144 75.1092 10.7144Z"
			fill="white" />
	</g>
	<defs>
		<clipPath id="clip0_284_24">
			<rect width="581" height="27" fill="white" />
		</clipPath>
	</defs>
</svg>