<svg width="23" height="28" viewBox="0 0 23 28" fill="none" xmlns="http://www.w3.org/2000/svg">
	<g clip-path="url(#clip0_133_1022)">
		<path
			d="M0 11.0376C0.0448343 5.68928 3.78402 1.18866 9.23587 0.227361C13.5848 -0.532938 17.4047 0.576925 20.3458 3.92399C22.3185 6.16119 23.1435 8.80913 22.9731 11.7455C22.8386 14.0264 21.9688 16.0713 20.8211 18.0201C19.1263 20.8865 16.9294 23.351 14.4994 25.6319C13.7283 26.3572 12.9123 27.0388 12.0963 27.7292C11.6659 28.0963 11.3789 28.0875 10.9396 27.7292C7.72943 25.09 4.85107 22.1537 2.60936 18.6668C1.45263 16.8666 0.546979 14.9702 0.188304 12.8553C0.0896686 12.2523 0.062768 11.6406 0 11.0376ZM11.5045 4.90277C8.55439 4.90277 6.15127 7.25358 6.1423 10.1462C6.13333 13.0039 8.54542 15.3809 11.4686 15.3897C14.4635 15.3984 16.8936 13.0651 16.8936 10.1812C16.9025 7.25358 14.4994 4.90277 11.5045 4.90277Z"
			fill="#E72D30" />
	</g>
	<defs>
		<clipPath id="clip0_133_1022">
			<rect width="23" height="28" fill="white" />
		</clipPath>
	</defs>
</svg>