<svg width="14" height="14" viewBox="0 0 14 14" fill="none" xmlns="http://www.w3.org/2000/svg">
	<path
		d="M11.0755 13.998C10.5771 14.0026 10.1291 13.8204 9.681 13.629C6.80968 12.3898 4.38642 10.5721 2.50269 8.06638C1.56996 6.82264 0.810983 5.47412 0.225744 4.03449C-0.222329 2.93198 -0.0028645 1.98893 0.879565 1.18711C1.20419 0.890981 1.54253 0.613076 1.89459 0.344284C2.62156 -0.206969 3.39426 -0.0930741 3.90177 0.66319C4.15324 1.04588 4.3407 1.46957 4.56474 1.87504C4.85279 2.38984 5.15912 2.89554 5.4426 3.41945C5.57519 3.66547 5.69864 3.92971 5.76265 4.20305C5.88152 4.71786 5.65292 5.15066 5.18198 5.39212C5.04482 5.46046 4.89851 5.51057 4.74762 5.54702C4.33613 5.66091 4.21725 5.98438 4.48701 6.32151C4.72934 6.62219 4.98081 6.91832 5.23685 7.20989C5.9684 8.02993 6.76853 8.77253 7.62809 9.4559C7.69211 9.50602 7.75612 9.55613 7.8247 9.59258C8.12189 9.73836 8.38708 9.6108 8.4648 9.29189C8.48766 9.19166 8.51967 9.09599 8.55625 9.00032C8.80772 8.36251 9.34266 8.09827 10.0056 8.28961C10.1519 8.33062 10.2982 8.38984 10.4308 8.46274C11.3453 8.96387 12.2551 9.47412 13.165 9.98438C13.5033 10.1757 13.7548 10.4491 13.892 10.8181C14.0566 11.2554 14.0246 11.6837 13.7411 12.0527C13.3982 12.4992 13.037 12.9365 12.6483 13.342C12.2323 13.7657 11.6928 13.9889 11.0755 13.998Z"
		fill="#e72d30" />
</svg>
