<svg width="26" height="24" viewBox="0 0 26 24" fill="none" xmlns="http://www.w3.org/2000/svg">
	<path
		d="M17.8597 24H8.14028C4.71845 24 2.11567 22.7911 0.823386 20.6044C-0.4689 18.4178 -0.232284 15.6089 1.47863 12.7111L6.33836 4.48C8.04927 1.6 10.4154 0 13 0C15.5846 0 17.9507 1.6 19.6616 4.49778L24.5214 12.7289C26.2323 15.6267 26.4689 18.4356 25.1766 20.6222C23.8843 22.7911 21.2816 24 17.8597 24ZM13 2.66667C11.4347 2.66667 9.90579 3.78667 8.70451 5.83111L3.84479 14.0622C2.64351 16.1067 2.40689 17.9556 3.18954 19.2889C3.9722 20.6222 5.73771 21.3511 8.14028 21.3511H17.8597C20.2623 21.3511 22.0278 20.6222 22.8105 19.2889C23.5931 17.9556 23.3565 16.1067 22.1552 14.0622L17.2955 5.83111C16.0942 3.78667 14.5653 2.66667 13 2.66667Z"
		fill="white" />
</svg>