<svg width="89" height="89" viewBox="0 0 89 89" fill="none" xmlns="http://www.w3.org/2000/svg">
<circle cx="44.5" cy="44.5" r="44.5" fill="#E72D30"/>
<g clip-path="url(#clip0_133_468)">
<path d="M28.4358 51.4897C27.7147 51.3294 27.0064 51.1756 26.208 51.0025C26.575 49.9514 26.8712 48.9195 27.2833 47.926C28.7449 44.4457 30.9985 41.5103 33.6577 38.8632C36.0078 36.5238 38.6155 34.524 41.5259 32.9281C43.1356 32.0436 44.8097 31.3129 46.6125 30.8963C46.8314 30.845 47.0504 30.813 47.3079 30.7617C47.4367 31.4988 47.5526 32.2038 47.662 32.8319C46.5546 33.2229 45.4729 33.537 44.4426 33.9728C42.1504 34.9406 40.0836 36.3058 38.1455 37.8441C35.7245 39.7605 33.5804 41.9461 31.7904 44.4586C30.3224 46.516 29.1505 48.7272 28.526 51.1884C28.5002 51.2974 28.468 51.3807 28.4358 51.4897Z" fill="white"/>
<path d="M47.2047 34.3184C47.3978 35.0362 47.5845 35.722 47.7777 36.427C47.3914 36.5809 47.0115 36.7155 46.6445 36.8821C44.6613 37.8051 43.0259 39.1895 41.545 40.7662C39.7228 42.7082 38.2805 44.9131 37.2374 47.3615C36.6901 48.6497 36.3102 49.9957 36.0849 51.4186C35.3444 51.3096 34.6233 51.2007 33.8828 51.0917C34.1339 49.406 34.5975 47.8229 35.2672 46.3039C36.9348 42.5095 39.3751 39.3049 42.6524 36.7411C44.011 35.6836 45.4726 34.8055 47.2047 34.3184Z" fill="white"/>
<path d="M32.0742 55.8416C32.0742 56.5915 31.4947 57.1747 30.735 57.1811C29.9945 57.1875 29.3828 56.5851 29.3828 55.848C29.3828 55.1109 29.9881 54.5084 30.7285 54.502C31.4754 54.4956 32.0678 55.0917 32.0742 55.8416Z" fill="white"/>
<path d="M40.9596 58.5014C40.9596 59.2577 40.3479 59.8346 39.5688 59.8218C38.8541 59.8089 38.2617 59.1936 38.2746 58.463C38.2875 57.7195 38.8863 57.1362 39.6396 57.1426C40.3801 57.149 40.966 57.7515 40.9596 58.5014Z" fill="white"/>
<path d="M26.4663 60.3279C26.4663 61.065 25.8739 61.6675 25.1592 61.6675C24.3994 61.6675 23.7877 61.0714 23.7813 60.3151C23.7749 59.5844 24.393 58.9819 25.1399 58.9883C25.8997 58.9883 26.4663 59.5652 26.4663 60.3279Z" fill="white"/>
<path d="M33.3875 59.9629C34.128 59.9629 34.7332 60.559 34.7397 61.3024C34.7461 62.0203 34.1473 62.6228 33.4133 62.6356C32.6535 62.6484 32.0611 62.0652 32.0547 61.3089C32.0547 60.5461 32.6213 59.9693 33.3875 59.9629Z" fill="white"/>
<path d="M54.5898 37.3052C54.6092 37.0424 54.6156 36.7988 54.6542 36.5617C54.6671 36.4976 54.8345 36.4014 54.8603 36.4142C54.9569 36.4783 55.0792 36.5809 55.0856 36.6834C55.1178 37.0167 54.9182 37.2026 54.5898 37.3052Z" fill="white"/>
<path d="M70.1664 39.3759C70.2372 39.5746 70.2565 39.7925 70.3724 39.9015C70.572 40.0938 70.8682 39.8438 70.7588 39.5874C70.7137 39.4849 70.6429 39.3952 70.5463 39.2285C70.836 39.3695 70.9906 39.5426 70.9326 39.7797C70.894 39.9143 70.7008 40.113 70.6042 40.1002C70.4304 40.081 70.2437 39.9464 70.1278 39.8054C70.0054 39.6644 69.999 39.4657 70.1664 39.3759Z" fill="white"/>
<path d="M47.8618 56.7639C46.9475 55.7961 45.8142 55.1615 44.6231 54.6039C44.005 54.3155 43.5542 53.8668 43.3482 53.2323C43.1808 52.7131 43.0456 52.1555 43.0198 51.6107C42.9361 49.8738 43.2838 48.1945 43.9019 46.573C44.7583 44.304 46.0267 42.2979 47.791 40.6122C47.9197 40.4904 48.0485 40.3687 48.1902 40.2405C47.7008 39.67 47.2308 39.1188 46.7479 38.5548C46.6384 38.651 46.5547 38.7215 46.4774 38.792C43.5414 41.5416 41.7063 44.8937 40.9852 48.8419C40.7469 50.1366 40.6697 51.4505 40.9015 52.758C41.1397 54.1168 41.6999 55.3154 42.8653 56.1229C43.4126 56.5075 44.0436 56.7703 44.636 57.0972C45.4022 57.5202 46.1169 58.0009 46.5933 58.7636C47.1793 59.6994 47.1535 60.9428 46.4968 61.635C45.8851 62.2824 45.0802 62.5131 44.211 62.59C43.4898 62.6541 42.8717 62.3272 42.2343 62.1029C39.9678 61.2889 37.6692 62.0003 36.2591 63.9616C35.9887 64.3398 35.744 64.75 35.4285 65.0897C34.643 65.9357 33.1105 65.9677 32.0996 65.4165C31.8035 65.2563 31.5201 65.0063 31.3141 64.7371C29.7559 62.7246 27.1031 62.5003 25.2616 64.2436C24.9397 64.5513 24.5791 64.7436 24.1542 64.8589C22.86 65.205 21.8427 64.5897 21.5851 63.295C21.5722 63.2438 21.5722 63.1861 21.5593 63.1348C21.1215 60.7569 18.4687 59.4494 16.389 60.6031C15.9061 60.8723 15.4039 61.0005 14.8501 60.9812C14.0517 60.9556 13.2082 60.2185 13.2469 59.4366C13.2726 58.9046 13.6654 58.1291 13.7749 57.9688C13.7427 57.9817 13.9229 57.8022 14.071 57.6676C14.1547 57.5907 14.2513 57.4945 14.3543 57.4753C15.4554 57.2766 16.4148 56.7639 17.284 56.0973C18.6168 55.0718 19.5826 53.7451 20.3617 52.2837C21.2438 50.6237 22.1839 49.0021 23.2656 47.4574C24.9977 44.9962 26.9035 42.676 28.9961 40.5161C31.1918 38.2536 33.5612 36.1898 36.1561 34.3951C36.7291 33.9977 38.9698 32.4082 39.0406 32.5877C41.7449 31.0622 44.5909 29.9278 47.6622 29.3381C47.5205 28.5882 47.3917 27.896 47.2565 27.1846C47.1406 27.191 47.0505 27.191 46.9732 27.2102C45.2283 27.5627 43.5285 28.0819 41.8737 28.7485C39.8648 29.5625 37.9589 30.5751 36.1303 31.7416C33.7673 33.2478 31.5845 34.9848 29.5306 36.882C27.3607 38.8881 25.3647 41.0609 23.5296 43.3811C21.907 45.4257 20.4132 47.56 19.1512 49.8481C18.4237 51.1749 17.7862 52.5529 16.6916 53.6489C16.6466 53.6938 16.6272 53.7707 16.595 53.8348C16.4663 53.9245 16.3311 54.0014 16.2152 54.104C15.597 54.6488 14.8952 55.059 14.0968 55.2769C13.1825 55.5333 12.4613 56.0396 11.8883 56.7895C10.8001 58.1996 10.6842 60.148 11.6436 61.4491C13.073 63.3848 15.2622 63.6732 17.3162 62.6285C18.2047 62.1798 19.0353 62.4874 19.3251 63.4296C19.3637 63.5642 19.3895 63.6988 19.4088 63.8398C19.5891 65.0192 20.1621 65.9293 21.1988 66.551C22.7827 67.4996 25.384 67.3201 26.8005 65.8652C27.6569 64.9935 28.8159 65.1025 29.5048 66.1023C30.6702 67.788 33.4003 68.4225 35.3383 67.7047C36.4072 67.3137 37.212 66.6151 37.798 65.6473C38.1843 65.0063 38.6736 64.4615 39.3948 64.1731C40.2061 63.8526 41.0109 63.9552 41.7707 64.3013C43.1422 64.923 44.5329 64.9422 45.9366 64.4936C47.205 64.0898 48.2159 63.3591 48.7954 62.1349C49.626 60.4364 49.2139 58.206 47.8618 56.7639Z" fill="white"/>
<path d="M19.6338 57.0333C19.6338 57.7832 20.2326 58.3921 20.9666 58.3857C21.72 58.3857 22.3316 57.7896 22.3252 57.0589C22.3188 56.3026 21.7457 55.7129 20.9924 55.7129C20.2326 55.7065 19.6338 56.2962 19.6338 57.0333Z" fill="white"/>
<path d="M54.4873 34.4087C54.4873 33.0691 54.4873 31.7232 54.4873 30.3516C55.202 30.3516 55.9232 30.3516 56.6572 30.3516C56.6572 31.9539 56.6572 33.5434 56.6572 35.165C56.4898 34.9791 56.3481 34.8125 56.2 34.6651C55.8523 34.319 55.408 34.1651 54.9316 34.0882C54.6032 34.0434 54.571 34.0818 54.4873 34.4087Z" fill="white"/>
<path d="M78.9995 24.4998C78.8256 24.4998 78.6711 24.4998 78.523 24.4998C76.1857 24.4998 73.8484 24.4998 71.5047 24.4998C66.74 24.4998 61.9753 24.4998 57.2106 24.4998C56.5989 24.4998 56.5989 24.4998 56.3671 23.9486C55.7233 22.3912 54.5643 21.4362 52.9159 21.09C52.2334 20.949 51.5445 20.949 50.9135 21.3016C50.0121 21.8079 49.5742 22.577 49.5742 23.6153C49.5871 26.2881 49.5871 28.9544 49.5871 31.6271C49.5871 35.2356 49.5742 38.844 49.5871 42.4525C49.5871 43.5421 50.4177 44.5484 51.4222 44.7663C53.4826 45.215 55.8392 43.7857 56.4508 41.7154C56.5281 41.4527 56.6311 41.3629 56.908 41.3693C59.5221 41.3822 62.1427 41.3757 64.7569 41.3757C64.8599 41.3757 64.9694 41.3757 65.1303 41.3757C65.0788 41.5808 65.0466 41.7218 65.008 41.8629C64.641 43.2216 64.2804 44.5804 63.9134 45.9456C63.1407 48.8106 62.3616 51.6692 61.5954 54.5342C61.164 56.143 60.752 57.7517 60.3141 59.3541C59.9664 60.6423 59.5994 61.9242 59.2582 63.2125C59.0779 63.8919 59.1487 63.7445 58.5434 63.7573C57.9704 63.7637 57.3909 63.7573 56.8114 63.7573C56.8114 64.52 56.8114 65.2379 56.8114 65.9621C58.9298 65.9621 61.0288 65.9621 63.1279 65.9621C63.1279 65.2186 63.1279 64.5008 63.1279 63.7381C62.5548 63.7381 62.0011 63.7381 61.4216 63.7381C63.1343 57.3671 64.8406 51.0347 66.5469 44.7086C66.5726 44.715 66.5984 44.715 66.6241 44.7214C68.3304 51.0475 70.0302 57.38 71.7494 63.7637C71.1441 63.7637 70.584 63.7637 70.0302 63.7637C70.0302 64.5328 70.0302 65.2507 70.0302 65.9685C72.155 65.9685 74.2541 65.9685 76.3724 65.9685C76.3724 65.2315 76.3724 64.5072 76.3724 63.7573C75.7092 63.7573 75.0718 63.7445 74.4279 63.7637C74.1382 63.7765 74.0223 63.6804 73.945 63.3984C73.4364 61.4563 72.9213 59.5207 72.3868 57.5915C72.3096 57.3159 71.6399 54.8483 71.5884 54.6496C71.1184 52.8742 70.6355 51.1052 70.159 49.3362C69.6182 47.3172 69.0773 45.2983 68.5364 43.2793C68.369 42.664 68.2081 42.0487 68.0342 41.3822C71.7172 41.3822 75.3487 41.3822 78.9866 41.3822C78.9995 35.7291 78.9995 30.1273 78.9995 24.4998ZM76.4626 39.1645C74.9366 39.1453 73.417 39.1581 71.891 39.1581C71.7172 39.1581 71.5498 39.1581 71.3566 39.1581H70.8544C70.8286 39.1581 70.8029 39.1581 70.7707 39.1581H69.5602C66.9139 39.1581 64.2675 39.1581 61.6212 39.1581C60.0888 39.1581 58.5563 39.1517 57.0239 39.1645C56.7341 39.1645 56.6504 39.0748 56.6698 38.7992C56.6891 38.3954 56.6762 37.9916 56.6762 37.5429C56.6698 37.5493 56.6633 37.5557 56.6569 37.5622V33.614H54.487V34.7356C54.4162 34.8318 54.4806 35.0048 54.4677 35.1458C54.4741 35.1458 54.4806 35.1458 54.487 35.1458V35.9021C54.4677 35.9662 54.4613 36.0431 54.4613 36.1393C54.4677 36.4405 54.4741 36.7482 54.487 37.0494V38.0621C54.4677 39.0171 54.4741 39.9721 54.3389 40.9079C54.1973 41.8757 53.1864 42.5999 52.2012 42.6384C51.9115 42.6512 51.7827 42.5294 51.7956 42.241C51.802 41.9846 51.7956 41.7283 51.7956 41.4719C51.7892 37.4468 51.7827 33.4217 51.7827 29.3902C51.7827 27.4802 51.7892 25.5638 51.7956 23.6538C51.7956 23.3077 51.9244 23.1923 52.2721 23.2308C53.5276 23.3718 54.4419 24.3652 54.4677 25.6279C54.4741 25.9035 54.4741 26.1855 54.4677 26.4611C54.4613 26.647 54.545 26.7367 54.7381 26.7239C54.9828 26.7175 55.2275 26.7239 55.4786 26.7239C61.4731 26.7239 67.474 26.7239 73.4685 26.7239C74.4859 26.7239 75.5032 26.7303 76.5205 26.7175C76.7716 26.7111 76.8296 26.7944 76.8232 27.0251C76.8103 27.9545 76.8167 28.8839 76.8167 29.8132C76.8232 32.8064 76.8232 35.7996 76.8296 38.7928C76.8232 39.0555 76.7652 39.1645 76.4626 39.1645Z" fill="white"/>
</g>
<defs>
<clipPath id="clip0_133_468">
<rect width="68" height="47" fill="white" transform="translate(11 21)"/>
</clipPath>
</defs>
</svg>
