<svg width="89" height="89" viewBox="0 0 89 89" fill="none" xmlns="http://www.w3.org/2000/svg">
<circle cx="44.5" cy="44.5" r="44.5" fill="#E72D30"/>
<g clip-path="url(#clip0_133_500)">
<path d="M59.8839 21C60.8582 36.565 61.8325 52.1301 62.8069 67.7316C50.8713 67.7316 38.9722 67.7316 27 67.7316C27.9743 52.1544 28.9487 36.5772 29.923 21C39.91 21 49.8969 21 59.8839 21ZM32.3345 27.7351C32.298 27.7473 32.2736 27.7595 32.2371 27.7716C31.4698 40.1823 30.6903 52.5929 29.923 65.0157C39.9343 65.0157 49.8847 65.0157 59.8839 65.0157C59.1044 52.5807 58.3371 40.1701 57.5698 27.7595C57.3993 27.8813 57.3262 28.0152 57.2532 28.1614C56.2179 30.2318 55.1827 32.2901 54.1596 34.3606C54.0257 34.6407 53.8673 34.726 53.575 34.726C47.7899 34.7138 42.0048 34.7138 36.2197 34.726C35.9395 34.726 35.7934 34.6407 35.6716 34.385C34.6485 32.3145 33.6133 30.244 32.5781 28.1857C32.4928 28.0152 32.4076 27.8691 32.3345 27.7351ZM33.4672 23.7525C33.5037 23.8499 33.5037 23.9108 33.5281 23.9595C34.8191 26.5415 36.1222 29.1235 37.401 31.7177C37.5228 31.9735 37.7055 31.9613 37.9126 31.9613C42.565 31.9613 47.2175 31.9613 51.8821 31.9735C52.1866 31.9735 52.3328 31.8882 52.4667 31.6081C53.6968 29.1114 54.9513 26.6268 56.1814 24.1422C56.2423 24.0326 56.2788 23.8987 56.3397 23.7525C48.7034 23.7525 41.1157 23.7525 33.4672 23.7525Z" fill="white"/>
<path d="M54.5123 40.2794C54.3905 42.4351 54.7071 44.5421 54.22 46.6248C53.2335 50.8388 49.4092 53.9323 45.0734 53.981C43.7702 53.9932 42.4427 54.0419 41.1517 53.8836C37.9973 53.5182 35.4396 50.7048 35.33 47.526C35.2813 46.0524 35.3178 44.5787 35.3178 43.0076C37.8389 43.1902 40.4453 42.5204 42.7715 43.9088C43.3805 43.3486 43.9407 42.764 44.574 42.2646C46.267 40.9493 48.2034 40.3038 50.3348 40.2916C51.6989 40.2672 53.0751 40.2794 54.5123 40.2794ZM46.2548 51.0337C49.4823 50.8997 52.5027 46.4056 51.6867 43.0319C48.4105 42.7396 46.1817 43.9941 44.9151 45.7844C46.0964 47.3434 46.3887 49.1337 46.2548 51.0337ZM43.5145 51.192C43.9529 46.9902 41.1639 45.346 38.0947 45.8088C37.6684 49.4747 39.8485 51.6548 43.5145 51.192Z" fill="white"/>
<path d="M38.0713 59.4255C38.0713 58.5243 38.0713 57.6474 38.0713 56.7461C42.6263 56.7461 47.1448 56.7461 51.712 56.7461C51.712 57.623 51.712 58.5121 51.712 59.4255C47.1935 59.4255 42.6507 59.4255 38.0713 59.4255Z" fill="white"/>
<path d="M40.8115 29.1843C40.8115 28.2709 40.8115 27.394 40.8115 26.5049C43.5397 26.5049 46.2313 26.5049 48.9716 26.5049C48.9716 27.3818 48.9716 28.2709 48.9716 29.1843C46.28 29.1843 43.564 29.1843 40.8115 29.1843Z" fill="white"/>
</g>
<defs>
<clipPath id="clip0_133_500">
<rect width="35.8069" height="46.7316" fill="white" transform="translate(27 21)"/>
</clipPath>
</defs>
</svg>
