<svg width="89" height="89" viewBox="0 0 89 89" fill="none" xmlns="http://www.w3.org/2000/svg">
<circle cx="44.5" cy="44.5" r="44.5" fill="#E72D30"/>
<g clip-path="url(#clip0_133_432)">
<path d="M68.0004 23.2026C67.4741 24.9401 66.0298 24.6709 64.6957 24.6709C64.1204 30.63 61.391 35.3778 56.7155 38.9875C53.0803 41.8019 48.9311 43.1846 44.3045 43.1234C39.1027 43.0622 34.6353 41.1901 30.8532 37.7027C27.0712 34.2031 24.8803 29.8714 24.4152 24.6709C23.9501 24.6709 23.5095 24.6709 23.0688 24.6709C21.9673 24.6709 21.2207 24.1203 21.0371 23.1536C20.8535 22.2481 21.3798 21.4405 22.3957 21.0489C22.4202 21.0367 22.4446 21.0122 22.4691 21C37.1566 21 51.8441 21 66.5316 21C67.2782 21.2325 67.7678 21.7219 68.0004 22.4684C68.0004 22.7131 68.0004 22.9578 68.0004 23.2026ZM60.9259 24.6954C50.0082 24.6954 39.0905 24.6954 28.1728 24.6954C28.9561 32.698 35.3207 39.3301 44.5493 39.3301C53.8392 39.3301 60.167 32.6246 60.9259 24.6954Z" fill="white"/>
<path d="M67.9995 66.5196C67.6446 67.6454 66.849 68.0002 65.723 68.0002C61.2066 67.9757 56.7024 67.988 52.186 68.0002C51.525 68.0002 50.9743 67.8167 50.4602 67.4006C48.967 66.2137 47.4493 65.0512 45.9316 63.8765C44.9279 63.1057 44.1079 63.1057 43.1164 63.8888C41.5987 65.0757 40.081 66.2626 38.5756 67.4618C38.1349 67.8044 37.6576 67.988 37.0946 67.988C32.3946 67.9757 27.7068 67.988 23.0068 67.988C21.6115 67.988 20.7425 66.8989 21.1097 65.6141C21.33 64.831 22.0032 64.3293 22.9089 64.3171C23.9125 64.3048 24.9284 64.3171 25.9321 64.3171C29.3592 64.3171 32.7862 64.3171 36.2133 64.3048C36.4581 64.3048 36.7519 64.2069 36.9477 64.0479C38.2941 63.02 39.6282 61.9677 40.9623 60.9153C43.1042 59.239 45.8336 59.2022 48 60.8419C49.3831 61.8943 50.754 62.9833 52.1493 64.0356C52.3573 64.1947 52.6633 64.3048 52.9326 64.3048C57.2042 64.3171 61.4636 64.3171 65.7352 64.3171C67.0938 64.3171 67.4977 64.574 68.0118 65.7854C67.9995 66.0302 67.9995 66.2749 67.9995 66.5196Z" fill="white"/>
<path d="M44.4993 48.8994C45.7967 48.8994 46.8004 49.8906 46.8004 51.1876C46.8004 52.4969 45.7845 53.5003 44.4626 53.4881C43.2264 53.4758 42.2105 52.4235 42.2228 51.1754C42.2228 49.9273 43.2631 48.8994 44.4993 48.8994Z" fill="white"/>
<path d="M32.1137 42.8907C32.126 44.2 31.159 45.2034 29.8617 45.2279C28.552 45.2524 27.5361 44.2367 27.5361 42.9274C27.5361 41.6916 28.5765 40.6637 29.8127 40.6515C31.0611 40.6392 32.1015 41.6549 32.1137 42.8907Z" fill="white"/>
<path d="M59.1872 40.6396C60.4357 40.6396 61.476 41.643 61.4883 42.8911C61.5005 44.2127 60.4969 45.2283 59.1872 45.2161C57.9021 45.2161 56.8984 44.2127 56.8984 42.9156C56.8984 41.6797 57.9388 40.6519 59.1872 40.6396Z" fill="white"/>
<path d="M39.4571 47.5036C39.4449 48.8129 38.4657 49.8041 37.1683 49.8041C35.8587 49.8041 34.8551 48.7762 34.8673 47.4669C34.8918 46.231 35.9321 45.2154 37.1806 45.2276C38.4413 45.2399 39.4571 46.2677 39.4571 47.5036Z" fill="white"/>
<path d="M54.1446 47.4922C54.1446 48.8015 53.1655 49.7927 51.8681 49.8049C50.5584 49.8172 49.5426 48.7893 49.5548 47.48C49.567 46.2441 50.6074 45.2285 51.8558 45.2285C53.1043 45.2285 54.1446 46.2564 54.1446 47.4922Z" fill="white"/>
<path d="M29.7996 48.8985C31.048 48.8863 32.1006 49.9019 32.1129 51.1378C32.1251 52.4593 31.1337 53.475 29.8241 53.475C28.5389 53.475 27.5353 52.4716 27.5353 51.1745C27.523 49.9386 28.5511 48.9108 29.7996 48.8985Z" fill="white"/>
<path d="M61.4879 51.1754C61.4879 52.4847 60.4965 53.4758 59.2113 53.4758C57.9017 53.4881 56.898 52.4602 56.9103 51.1509C56.9225 49.915 57.9629 48.8994 59.2235 48.8994C60.4597 48.9117 61.4879 49.9395 61.4879 51.1754Z" fill="white"/>
<path d="M37.1443 53.4874C38.3927 53.4752 39.4453 54.4908 39.4453 55.7267C39.4576 57.0482 38.4661 58.0638 37.1443 58.0638C35.8591 58.0638 34.8555 57.0604 34.8555 55.7634C34.8677 54.5275 35.8958 53.4997 37.1443 53.4874Z" fill="white"/>
<path d="M32.1137 59.4097C32.126 60.719 31.159 61.7224 29.8617 61.7346C28.552 61.7591 27.5361 60.7435 27.5361 59.4342C27.5361 58.1983 28.5765 57.1704 29.8127 57.1582C31.0611 57.1582 32.1015 58.1738 32.1137 59.4097Z" fill="white"/>
<path d="M61.4883 59.4097C61.4883 60.719 60.5214 61.7101 59.224 61.7346C57.9143 61.7469 56.8984 60.7312 56.8984 59.4219C56.8984 58.1861 57.9388 57.1582 59.1872 57.1582C60.4479 57.1582 61.476 58.1738 61.4883 59.4097Z" fill="white"/>
<path d="M54.145 55.8001C54.1327 57.0482 53.1046 58.0761 51.8684 58.0761C50.571 58.0761 49.5674 57.0727 49.5674 55.7879C49.5674 54.4786 50.5833 53.4752 51.9051 53.4874C53.1413 53.4997 54.145 54.5397 54.145 55.8001Z" fill="white"/>
<path d="M39.4571 29.9207C39.4571 31.1565 38.429 32.1844 37.1806 32.1966C35.9321 32.2089 34.8918 31.181 34.8673 29.9451C34.8551 28.6358 35.8587 27.608 37.1683 27.6202C38.4657 27.6202 39.4571 28.6236 39.4571 29.9207Z" fill="white"/>
<path d="M51.8069 32.1966C50.5584 32.1722 49.5426 31.1198 49.5548 29.8962C49.5793 28.5991 50.5829 27.608 51.8681 27.6202C53.1777 27.6325 54.1691 28.6603 54.1324 29.9819C54.1202 31.2177 53.0553 32.2211 51.8069 32.1966Z" fill="white"/>
<path d="M44.5121 35.8675C43.2637 35.8675 42.2233 34.8397 42.211 33.616C42.1988 32.3067 43.2147 31.2789 44.5243 31.2911C45.8217 31.3034 46.8009 32.2945 46.7887 33.6038C46.8009 34.8397 45.7605 35.8675 44.5121 35.8675Z" fill="white"/>
</g>
<defs>
<clipPath id="clip0_133_432">
<rect width="47" height="47" fill="white" transform="translate(21 21)"/>
</clipPath>
</defs>
</svg>
