<svg width="89" height="89" viewBox="0 0 89 89" fill="none" xmlns="http://www.w3.org/2000/svg">
<circle cx="44.5" cy="44.5" r="44.5" fill="#E72D30"/>
<g clip-path="url(#clip0_133_487)">
<path d="M68.9761 66.4067C68.9641 66.3585 68.9521 66.3223 68.9401 66.274C68.9281 66.2258 68.9162 66.1776 68.9042 66.1534C68.6287 64.1876 67.8264 62.463 66.521 61.0158C67.2635 57.8077 65.7545 54.467 62.9042 52.8871C63.5389 51.5243 63.9461 50.0771 64.0898 48.5936C64.1018 48.5695 64.1258 48.5454 64.1377 48.5333C64.9761 47.8218 65.8144 47.1343 66.6886 46.3987L66.7844 46.3263C67.0359 46.1213 67.2874 45.9042 67.5509 45.6992L68.6527 44.7826L67.3234 44.264C67.2754 44.2519 67.2395 44.2278 67.2036 44.2158C67.1198 44.1796 67.0359 44.1434 66.9401 44.1193L66.1377 43.866C65.2515 43.5886 64.3293 43.2992 63.4072 43.0218H63.3952C62.8204 41.3213 61.9701 39.862 60.8563 38.6921C60.2695 38.0771 59.6587 37.5343 59.012 36.9555C58.8922 36.8469 58.7605 36.7263 58.6287 36.6178L63.3473 26.6318L61.2156 27.6449C61.1437 27.6811 61.0838 27.7052 61.012 27.7414C60.9042 27.7896 60.8084 27.8379 60.7006 27.8982L59.527 28.5615C57.6108 29.6349 55.6347 30.7444 53.6826 31.8539C51.7784 30.3826 49.7066 30.1293 47.5269 31.1062C44.4731 28.7544 41 27.9585 37.2036 28.7183C36.5928 28.8389 36.006 29.0318 35.4431 29.2248C35.1916 29.3092 34.9281 29.3936 34.6766 29.466L33.7665 29.7434L33.8263 29.8881L33.1677 30.3223C33.1198 30.3585 33.0599 30.3946 33 30.4188C32.8443 30.5153 32.6766 30.6117 32.509 30.7685C32.1138 31.1424 31.7186 31.5163 31.3234 31.8901L31.3114 31.9022C30.8443 32.3364 30.3772 32.7947 29.8982 33.2288C29.0838 33.1203 28.2695 32.9876 27.479 32.867C27.1078 32.8188 26.7485 32.7585 26.3772 32.6982C25.6707 32.6017 24.9641 32.4931 24.2335 32.3846L21 31.9142L22.5928 33.7957C22.6766 33.8921 22.7485 33.9766 22.8084 34.0489L23.7425 35.0861C24.8922 36.3766 26.0898 37.7153 27.2635 39.0178L27.2754 39.0298C26.976 40.6218 26.988 42.2258 27.3234 43.8178C26.2335 44.7223 25.5389 45.8921 25.2754 47.2911C25.0479 48.473 25.1677 49.6429 25.6228 50.7404C24.006 52.3806 22.7964 54.4308 22.0299 56.8188C21.8144 57.4941 21.6707 58.1816 21.5389 58.857C21.479 59.1343 21.4192 59.4479 21.3593 59.7374L21.3353 59.8338V62.1856L21.3473 62.3303C21.3832 62.5112 21.4072 62.7042 21.4311 62.8851C21.491 63.3072 21.5629 63.7414 21.6587 64.1756C21.9102 65.3816 22.4251 66.5756 23.2515 67.9384C23.3234 68.059 23.3952 68.1916 23.4671 68.3364C23.503 68.4087 23.5389 68.4811 23.5868 68.5534L23.8263 68.9997H69V66.5152L68.9761 66.4067ZM35.3353 32.4811L35.7904 32.3002C39.9222 30.7082 43.5269 31.3836 46.8084 34.3745L47.2874 34.8087L47.8743 34.4228C47.9341 34.3866 47.982 34.3504 48.0419 34.3142C49.7186 33.1203 51.1198 33.3012 52.4731 34.857C52.7246 35.1464 53.2515 35.5565 54.0419 35.1102C54.9162 34.6037 55.8144 34.1092 56.6886 33.6147L54.7246 37.7756L55.3473 38.1735C55.3832 38.1977 55.4072 38.2097 55.4311 38.2338C55.491 38.27 55.5629 38.3183 55.6347 38.3665C58.2335 39.7293 59.9102 41.7916 60.7844 44.6861C60.9281 45.1685 61.3473 45.5062 61.7066 45.6389C61.9701 45.7354 62.2335 45.8198 62.509 45.9042C62.2455 46.1213 61.9701 46.3504 61.7066 46.5916C61.4431 46.8208 61.1557 47.2308 61.1317 47.6891C61.024 49.655 60.4132 51.464 59.2994 53.0801C59.2156 53.2127 59.1317 53.3333 59.0599 53.466L59.0479 53.4781C59.012 53.5263 58.988 53.5866 58.9521 53.6469L58.3533 54.6238L59.7545 54.9856C59.9581 55.0338 60.1377 55.0821 60.3293 55.1303C61.5868 55.4439 62.6048 56.2158 63.1796 57.3253C63.7545 58.4107 63.8263 59.665 63.3952 60.871C63.1437 61.5585 63.2755 62.1132 63.8264 62.6198C64.8323 63.5484 65.479 64.6338 65.7784 65.9364H60.0898C60.4611 63.1745 59.5629 60.7745 57.4192 58.8087C57.3353 55.9504 55.515 53.4901 52.8922 52.6821C52.2455 52.4891 51.5988 52.4168 50.976 52.3444C50.8443 52.3323 50.7246 52.3203 50.5928 52.2962C50.1377 51.1022 49.4072 50.065 48.4132 49.1846C48.3533 48.0871 48.2934 46.9896 48.2335 45.9163C48.2096 45.3856 48.1737 44.8429 48.1497 44.3122C48.1138 43.7092 48.0778 43.1062 48.0419 42.467L47.8503 39.3193L46.485 41.1042C46.4252 41.1766 46.3772 41.2369 46.3413 41.2972C46.2575 41.4057 46.1856 41.4901 46.1138 41.5987L45.2635 42.7926C44.1976 44.2881 43.1078 45.8318 42.018 47.3756C41.9581 47.46 41.9222 47.4962 41.7545 47.5323C38.5808 48.3404 36.6168 50.3665 35.9102 53.5625C35.7904 54.0931 35.7665 54.5997 35.7425 55.0941C35.7425 55.1183 35.7425 55.1424 35.7425 55.1665L35.6228 55.2268L35.8024 55.6127L35.6108 55.2389C35.1198 55.468 34.6527 55.6972 34.1856 55.9022C33.994 55.9866 33.8743 55.9987 33.8503 55.9987C33.4311 55.9504 32.988 55.8781 32.5569 55.8057C32.3413 55.7695 32.1138 55.7333 31.8982 55.6972C31.3473 55.6127 30.7844 55.5283 30.2096 55.4439L27.7545 55.0821L28.497 56.5414C28.6766 56.9032 28.8563 57.2529 29.0359 57.5906L29.0479 57.6147C29.5629 58.6278 30.0539 59.5806 30.521 60.5454C30.5569 60.6178 30.5808 60.7625 30.5569 60.871C30.3054 62.2941 30.1138 64.1152 30.7964 65.9605C29.1078 65.9605 27.3713 65.9605 25.6587 65.9484C25.5868 65.8037 25.515 65.671 25.4551 65.5384C25.1677 64.9595 24.8802 64.4047 24.7485 63.862C23.8623 60.3524 24.6287 56.9635 27.0359 53.8037C27.4072 53.3213 27.8503 52.8751 28.3293 52.4168C28.5569 52.1997 28.7964 51.9705 29.024 51.7173L29.479 51.2348L29.1317 50.6801L29.1198 50.656C29.0838 50.5957 29.024 50.4871 28.9281 50.3786C28.3174 49.6429 28.0898 48.6901 28.2934 47.7856C28.497 46.8931 29.0838 46.1575 29.9222 45.7715C30.2096 45.6389 30.8683 45.2168 30.5689 44.2278C30.0419 42.4791 29.994 40.7062 30.4132 38.9695C30.6048 38.1735 30.1856 37.7153 30.0419 37.5585C29.6228 37.1002 29.2036 36.6298 28.7844 36.1595C29.3114 36.2439 29.8263 36.3163 30.3533 36.4007C30.5928 36.4369 31.3234 36.5575 31.8503 35.7615C32.509 34.7725 33.3713 33.9042 34.4012 33.1806C34.497 33.1203 34.5928 33.0479 34.6886 32.9756L35.3353 32.4811ZM52.7964 65.9484C51.3234 65.9484 49.8623 65.9484 48.3892 65.9484H48.2695C43.9102 65.9364 39.4072 65.9364 34.9162 65.9846C34.3054 65.9967 34.0419 65.8158 33.7425 65.2127C33.6347 64.9957 33.5509 64.7665 33.491 64.5253C33.2036 63.4278 33.3353 62.3183 33.6108 60.9796C33.6946 60.5575 33.6467 60.063 33.4551 59.6529C33.3473 59.4117 33.2395 59.1826 33.1198 58.9414C33.3832 58.9776 33.6587 59.0258 33.9222 59.074C34.4731 59.1705 34.9521 59.062 35.3713 58.7243C35.9341 58.2781 36.6168 57.9886 37.3952 57.868C37.5749 57.8439 37.7665 57.8198 37.9581 57.7957C38.0539 57.7836 38.1617 57.7715 38.2695 57.7595L39.1437 57.6509L39 56.7826C38.988 56.7223 38.976 56.674 38.976 56.6258C38.9641 56.5534 38.9521 56.4931 38.9521 56.457C38.9281 56.2519 38.9042 56.0469 38.8802 55.8419C38.8204 55.4439 38.7725 55.07 38.7964 54.7323C39.012 52.3806 40.5449 50.7524 42.8922 50.3906C43.4192 50.3062 43.8144 50.065 44.1257 49.6067C44.509 49.0399 44.9162 48.473 45.3114 47.9183C45.3473 48.5816 45.3832 49.2449 45.4072 49.9082C45.4311 50.463 45.6587 50.8972 46.1138 51.2228C47.1078 51.9343 47.7425 52.9112 48.006 54.1414C48.0419 54.3223 48.0778 54.5032 48.1138 54.7082C48.1257 54.8047 48.1497 54.9012 48.1617 55.0097L48.3293 55.9263L49.4551 55.6007C49.5988 55.5645 49.7186 55.5283 49.8503 55.4921C51.0359 55.1665 52.2216 55.4077 53.1198 56.1555C54.006 56.8911 54.4611 58.0127 54.3653 59.2308C54.3174 59.9183 54.5329 60.4007 55.1078 60.8228C56.7365 62.0168 57.479 63.9705 57.0359 65.9484C56.509 65.9243 55.982 65.9243 55.479 65.9364H55.4551C55.2275 65.9364 55 65.9484 54.7725 65.9484H52.7964Z" fill="white"/>
<path d="M32.6645 44.6385C32.8082 45.6757 33.2034 46.5923 33.8501 47.3883L34.3651 48.0154L36.6765 46.2667L36.2573 45.6034C35.3951 44.2526 35.3711 43.0345 36.1975 41.8888C37.1915 40.5139 38.4849 40.2004 40.2813 40.8999L40.9998 41.1772L41.3352 40.4777C41.6945 39.73 42.3052 39.2476 42.9998 39.1511C43.6585 39.0667 44.3292 39.3561 44.7843 39.9109L45.2992 40.526L47.6466 38.7411L47.1436 38.0657C46.2813 36.9079 44.9759 36.1963 43.5507 36.0999C42.1136 36.0034 40.7244 36.5461 39.7064 37.5833C37.7543 37.2818 35.8501 37.8727 34.4609 39.2114C33.0238 40.6225 32.3771 42.5883 32.6645 44.6385Z" fill="white"/>
<path d="M29.9106 29.4663C31.0483 29.4663 32.1022 29.0201 32.8926 28.2121C33.6831 27.404 34.1262 26.3427 34.1142 25.2211C34.1022 22.8935 32.222 21 29.8986 21C28.7849 21 27.731 21.4462 26.9405 22.2422C26.1501 23.0503 25.707 24.1116 25.719 25.2452C25.719 26.3789 26.1621 27.4402 26.9525 28.2362C27.7429 29.0322 28.7849 29.4663 29.9106 29.4663ZM28.737 25.2452C28.737 24.9196 28.8567 24.6181 29.0843 24.3889C29.2998 24.1719 29.5992 24.0392 29.9106 24.0392C30.222 24.0392 30.5214 24.1719 30.7489 24.401C30.9765 24.6302 31.0962 24.9317 31.0962 25.2332C31.0962 25.8844 30.5693 26.4151 29.9226 26.4151H29.9106C29.5992 26.4151 29.2998 26.2945 29.0843 26.0774C28.8567 25.8603 28.737 25.5588 28.737 25.2452Z" fill="white"/>
<path d="M60.5928 35.8465C60.5809 37.8002 62.1497 39.4042 64.0898 39.4284H64.1138C66.0419 39.4284 67.6228 37.8485 67.6467 35.9188C67.6707 33.9651 66.1138 32.349 64.1857 32.3128C63.2276 32.3007 62.3294 32.6625 61.6467 33.3379C60.9761 34.0012 60.6048 34.8937 60.5928 35.8465ZM64.1258 36.3771C63.8623 36.3771 63.6228 36.1238 63.6108 35.8706C63.6108 35.7379 63.6707 35.6173 63.7665 35.5088C63.8623 35.4123 63.994 35.352 64.1258 35.352C64.4012 35.352 64.6288 35.5932 64.6168 35.8706C64.6288 36.1359 64.3892 36.3771 64.1258 36.3771Z" fill="white"/>
<path d="M54.0181 30.1419C55.9702 30.1298 57.551 28.5499 57.551 26.5962C57.551 25.6434 57.1798 24.7509 56.5091 24.0756C55.8265 23.4002 54.9283 23.0263 53.9822 23.0384C52.0181 23.0625 50.4852 24.6303 50.4971 26.6082C50.5091 28.562 52.09 30.1419 54.0181 30.1419ZM54.5331 26.5841C54.5331 26.7168 54.4852 26.8374 54.3894 26.9338C54.2935 27.0303 54.1618 27.0906 54.0301 27.0906C53.8864 27.0906 53.7666 27.0424 53.6708 26.9459C53.575 26.8494 53.5271 26.7288 53.5151 26.5962C53.5151 26.3067 53.7187 26.0896 54.0181 26.0776C54.2935 26.0896 54.5331 26.3067 54.5331 26.5841Z" fill="white"/>
<path d="M47.1554 57.121C45.4069 56.8798 43.85 57.3984 42.5566 58.6527L41.9219 59.2677L44.0776 61.33L44.6524 60.8235C45.335 60.2205 46.0895 60.0034 46.9398 60.1843C47.7901 60.3532 48.3889 60.8597 48.8081 61.7642L49.1434 62.4878L51.9458 61.3662L51.5746 60.5582C50.6644 58.5562 49.1794 57.3984 47.1554 57.121Z" fill="white"/>
</g>
<defs>
<clipPath id="clip0_133_487">
<rect width="48" height="48" fill="white" transform="translate(20 21)"/>
</clipPath>
</defs>
</svg>
