<svg width="206" height="94" viewBox="0 0 206 94" fill="none" xmlns="http://www.w3.org/2000/svg">
	<path
		d="M152.326 43.8943C152.68 44.2909 153.042 44.688 153.403 45.0862C151.667 46.5438 149.919 47.6406 148.171 48.3698C146.441 49.0918 144.712 49.4555 142.997 49.4643C141.592 49.4717 140.434 49.2369 139.523 48.7718C138.622 48.3122 137.959 47.621 137.526 46.7043C137.102 45.8038 136.902 44.7931 136.933 43.6772C136.963 42.5699 137.212 41.3553 137.682 40.0337C138.203 38.5693 138.9 37.2538 139.767 36.0852C140.634 34.9176 141.679 33.8819 142.909 32.9822C144.141 32.0806 145.388 31.3715 146.644 30.8612C147.912 30.3458 149.202 30.0285 150.509 29.9098C151.53 29.8171 152.429 29.8395 153.208 29.9727C153.991 30.1065 154.652 30.3585 155.186 30.7257C156.267 31.4701 156.632 32.4286 156.264 33.5932C156.028 34.3392 155.589 34.9337 154.943 35.3767C154.301 35.8176 153.628 36.0588 152.926 36.1023C151.089 36.2163 150.415 35.3057 150.884 33.3796C151.173 32.1931 150.797 31.6435 149.759 31.7307C148.497 31.8367 147.473 32.574 146.673 33.9468C146.272 34.6363 145.865 35.4603 145.457 36.4157C145.047 37.3778 144.633 38.4755 144.212 39.7164C143.962 40.4521 143.71 41.1893 143.459 41.9315C142.932 43.4838 142.888 44.6679 143.338 45.4701C143.794 46.2822 144.633 46.6802 145.856 46.6608C146.765 46.6465 147.759 46.4088 148.834 45.9514C149.915 45.4916 151.081 44.8038 152.326 43.8943Z"
		fill="white" />
	<path
		d="M139.092 31.8984C138.942 32.4516 138.805 32.9949 138.67 33.5287C137.992 33.5546 137.322 33.8531 136.631 34.429C135.936 35.0077 135.008 36.0918 133.84 37.6832C132.702 39.2342 131.553 40.8052 130.4 42.3772C129.233 43.9681 128.062 45.5787 126.887 47.1841C125.71 48.7927 124.531 50.3961 123.348 52.0105C122.147 53.6512 120.942 55.3007 119.725 56.9619C118.251 58.9757 117.017 60.4593 116.004 61.407C114.994 62.356 113.731 62.9761 112.233 63.2451C110.941 63.4769 110.002 63.3469 109.431 62.8203C108.86 62.2937 108.722 61.5642 108.987 60.6272C109.582 58.5607 112.65 56.6406 114.666 57.9643C115.221 58.329 115.726 58.4705 116.182 58.3973C117.193 58.2349 119.284 53.9195 120.062 52.8686C119.64 50.7588 119.462 48.582 119.285 46.3781C119.106 44.153 118.923 41.8879 118.477 39.6478C118.16 38.0582 117.338 37.3309 116.05 37.4298C116.2 36.8935 116.357 36.3661 116.519 35.8199C118.477 35.4834 120.433 35.1449 122.399 34.8043C123.384 34.6336 124.379 34.4645 125.365 34.2912C126.345 34.1209 127.328 33.9536 128.311 33.7795C128.169 34.3214 128.024 34.8568 127.875 35.3923C126.584 35.5845 125.825 36.1171 125.586 36.9753C125.571 37.0315 125.692 39.0317 125.823 41.0346C125.953 43.0224 126.096 45.0198 126.127 45.1662C127.08 45.0363 131.349 38.7521 132.159 37.6618C132.716 36.9087 133.086 36.2065 133.261 35.5171C133.338 35.214 133.235 34.971 132.952 34.7952C132.673 34.6228 132.179 34.6186 131.483 34.7667C131.616 34.233 131.765 33.6959 131.905 33.1588C133.099 32.9534 134.29 32.7381 135.481 32.5322C136.675 32.3226 137.873 32.1157 139.092 31.8984Z"
		fill="white" />
	<path
		d="M93.2522 39.0348C94.9112 38.7893 96.5712 38.5476 98.2267 38.3053C99.8808 38.0633 101.538 37.8181 103.193 37.5748C103.048 38.1346 102.904 38.6924 102.761 39.2483C102.143 39.4023 101.612 39.7338 101.175 40.2434C100.739 40.7518 100.424 41.3751 100.237 42.11C99.9415 43.2583 99.6496 44.4053 99.3534 45.5529C100.536 45.4684 101.576 45.0299 102.475 44.2359C103.37 43.4444 104.242 42.4099 105.092 41.1156C106.416 39.0953 107.774 37.6566 109.166 36.8108C110.562 35.9626 111.991 35.6971 113.455 36.0219C113.192 37.0147 112.935 38.0096 112.678 39.0078C112.422 39.9995 112.166 40.9949 111.911 41.9859C111.326 42.0736 110.739 42.1635 110.155 42.2493C110.314 41.7658 110.277 41.3436 110.051 40.9806C109.822 40.6145 109.426 40.4732 108.856 40.5573C108.187 40.6575 107.658 40.8766 107.267 41.2089C106.873 41.5439 106.369 42.0905 105.753 42.8564C104.716 44.1427 103.62 45.1327 102.478 45.8244C102.455 45.9024 102.435 45.9822 102.415 46.06C103.397 45.8855 104.323 45.8771 105.201 46.0373C106.08 46.1981 106.813 46.5241 107.409 47.0153C108.008 47.5081 108.347 48.1148 108.462 48.831C108.543 49.3385 108.614 49.9825 108.635 50.7727C108.656 51.5629 108.757 52.1353 108.938 52.4899C109.118 52.8435 109.492 53.0541 110.051 53.1214C109.912 53.6593 109.772 54.2015 109.634 54.7333C108.409 54.9361 107.348 55.0423 106.465 55.1128C102.414 55.4372 101.393 54.4324 101.274 52.9365C101.155 51.4316 101.94 49.4292 101.469 47.7655C101.296 47.1528 100.271 47.1309 98.8622 47.4641C98.4692 48.9924 98.0774 50.522 97.6869 52.0487C97.3011 53.545 97.7007 54.3251 98.877 54.3919C98.7312 54.9508 98.5882 55.5057 98.4475 56.0626C96.7935 56.3136 95.1377 56.5632 93.485 56.8136C91.8328 57.0644 90.1744 57.31 88.5234 57.5581C88.662 57.0065 88.8056 56.4462 88.9469 55.8882C90.2544 55.4472 91.1013 54.4778 91.4864 52.977C91.9111 51.3225 92.3309 49.6618 92.7542 48.0066C93.178 46.3498 93.6068 44.6866 94.0308 43.0274C94.2191 42.2906 94.2156 41.7077 94.0185 41.2735C93.8229 40.8426 93.4209 40.6568 92.823 40.7134C92.9667 40.1545 93.1106 39.5978 93.2522 39.0348Z"
		fill="white" />
	<path
		d="M133.691 57.5544C133.856 60.4603 134.233 63.3418 134.398 66.2477C134.419 66.2454 134.44 66.2429 134.398 66.2477C134.356 66.2524 134.377 66.2499 134.398 66.2477C135.454 64.5719 136.763 62.8747 137.809 61.2181C138.848 59.5719 139.888 57.9265 140.92 56.2928C142.467 56.1138 144.02 55.931 145.566 55.75C147.114 55.5689 148.659 55.3914 150.209 55.2061C150.056 55.7499 149.912 56.2936 149.765 56.8394C148.531 57.1327 147.711 58.0431 147.292 59.576C146.844 61.2141 146.396 62.8586 145.946 64.5075C145.493 66.1685 145.038 67.8394 144.582 69.5147C144.167 71.0375 144.527 71.8585 145.672 71.9753C145.519 72.5454 145.366 73.1155 145.21 73.6853C143.559 73.8853 141.907 74.0868 140.252 74.2878C138.603 74.4881 136.942 74.6837 135.288 74.8852C135.455 74.3094 135.614 73.7355 135.777 73.1616C137.09 72.689 137.954 71.7161 138.364 70.2582C138.63 69.3124 138.896 68.366 139.161 67.4257C139.425 66.4874 139.691 65.5504 139.955 64.6157C140.217 63.6869 140.481 62.756 140.74 61.8347C140.999 60.9141 141.261 59.9895 141.521 59.0718C141.424 59.0841 141.325 59.0964 141.222 59.1088C140.393 60.437 139.561 61.7696 138.724 63.1095C137.887 64.4492 137.045 65.7987 136.202 67.1477C135.351 68.5103 134.496 69.8773 133.639 71.2511C132.782 72.625 131.919 74.008 131.054 75.3953C130.258 75.493 129.455 75.5885 128.653 75.6838C128.597 74.4151 128.547 73.1465 128.495 71.8888C128.443 70.6336 128.396 69.3783 128.345 68.1298C128.295 66.8879 128.242 65.6483 128.193 64.4174C128.145 63.1889 128.097 61.9647 128.045 60.745C127.946 60.7572 127.849 60.7692 127.746 60.7814C127.457 61.729 127.168 62.6786 126.881 63.6316C126.593 64.5865 126.303 65.5414 126.013 66.5014C125.721 67.466 125.425 68.4336 125.132 69.4038C124.839 70.3749 124.543 71.3483 124.248 72.3236C123.833 73.6949 124.115 74.9322 125.288 74.951L124.939 76.8497L119.125 76.832C119.3 76.2535 119.481 75.6791 119.659 75.0983C120.736 75.4202 121.497 74.9009 121.916 73.3066C121.98 73.0625 122.126 72.834 122.207 72.5683C122.497 71.6106 122.792 70.6551 123.08 69.705C123.368 68.7558 123.664 67.806 123.95 66.8612C124.236 65.9191 124.528 64.9796 124.814 64.0458C125.1 63.1137 125.388 62.1787 125.673 61.2503C125.991 60.2114 125.564 59.7329 124.382 59.8122C124.553 59.2613 124.72 58.7144 124.894 58.161C127.89 57.818 130.695 57.9078 133.691 57.5544Z"
		fill="white" />
	<path
		d="M169.105 67.1193C168.966 67.6805 168.828 68.2418 168.689 68.8049C167.585 69.8098 166.316 70.4274 164.884 70.6574C163.113 70.9418 162.02 70.2444 161.608 68.5671C161.524 68.5807 161.44 68.5943 161.355 68.6079C160.219 69.6615 159.059 70.5034 157.88 71.1294C156.701 71.756 155.497 72.1642 154.277 72.3601C152.143 72.7027 150.81 72.4194 150.276 71.5079C149.743 70.5979 149.635 69.5866 149.948 68.4722C150.618 66.0936 152.03 64.1593 154.184 62.658C156.331 61.1612 159.23 60.0822 162.887 59.4193C163.003 58.9746 163.119 58.5318 163.236 58.0853C163.674 56.4115 163.769 55.336 163.516 54.8532C163.264 54.3722 162.742 54.1972 161.952 54.3283C160.999 54.4861 159.989 55.2047 158.919 56.4891C158.453 57.0482 158.005 57.5061 157.577 57.8622C157.149 58.2185 156.687 58.4389 156.19 58.5207C155.696 58.6018 155.311 58.5145 155.036 58.2587C154.761 58.0031 154.695 57.6237 154.835 57.1189C155.105 56.1481 155.976 55.2073 157.446 54.2945C158.179 53.8393 159.011 53.4512 159.934 53.1308C160.855 52.8113 161.876 52.5556 162.991 52.3703C165.618 51.9338 167.415 52.2791 168.391 53.4068C169.372 54.5402 169.523 56.4744 168.834 59.2238C168.581 60.2335 168.327 61.2454 168.072 62.2607C167.816 63.2802 167.559 64.3033 167.3 65.3307C167.193 65.7558 167.141 66.1337 167.139 66.4656C167.136 66.7976 167.275 67.0491 167.559 67.2252C167.843 67.4014 168.355 67.3668 169.105 67.1193ZM162.385 61.3377C161.049 61.556 159.835 62.1841 158.743 63.2251C157.65 64.2676 156.92 65.4568 156.56 66.7907C156.082 68.5595 156.534 69.3373 157.919 69.1139C159.608 68.8417 160.807 67.3573 161.508 64.6795C161.8 63.5613 162.092 62.4466 162.385 61.3377Z"
		fill="white" />
	<path
		d="M196.163 47.6357C195.994 48.2176 195.826 48.7936 195.659 49.3697C194.336 49.7927 193.455 50.7719 193.009 52.3102C192.518 54.0056 192.028 55.7012 191.541 57.3831C191.055 59.0612 190.571 60.7358 190.088 62.4024C189.672 63.8411 190.032 64.6358 191.172 64.7845C191.009 65.3433 190.847 65.902 190.685 66.4589C189.02 66.6848 187.364 66.9105 185.717 67.1345C184.075 67.3577 182.438 67.5785 180.807 67.8002C180.963 67.2502 181.118 66.7002 181.274 66.1481C182.554 65.7289 183.405 64.7748 183.828 63.2825C184.166 62.0885 184.506 60.8928 184.846 59.6931C183.215 59.8356 182.076 60.2467 181.417 60.9221C180.759 61.5966 180.065 62.5534 179.377 63.8154C178.487 65.4488 177.437 66.7396 176.184 67.6636C174.937 68.5835 173.5 69.1529 171.878 69.3727C171.387 69.4393 170.672 69.4623 169.738 69.4416C169.89 68.884 170.041 68.3246 170.194 67.7634C170.755 67.6571 171.155 67.4294 171.392 67.0807C171.629 66.7329 171.96 66.1597 172.362 65.3447C173.161 63.7285 174.19 62.4811 175.479 61.6135C176.772 60.7436 178.071 60.1515 179.377 59.8391C179.403 59.7467 179.43 59.6503 179.456 59.5541C177.339 59.7262 175.86 59.4838 175.011 58.8325C174.161 58.1805 173.942 57.1123 174.345 55.6327C174.963 53.3628 176.213 51.8544 178.1 51.1172C179.046 50.7479 180.145 50.4077 181.4 50.1012C182.654 49.7945 184.069 49.5147 185.639 49.2709C187.375 49.0012 189.12 48.7301 190.869 48.4582C192.624 48.1854 194.39 47.9111 196.163 47.6357ZM187.358 50.8301C187.153 50.8618 186.945 50.8938 186.743 50.9249C185.478 51.1189 184.268 51.4762 183.119 51.9915C181.965 52.5088 181.167 53.5727 180.72 55.1816C180.347 56.5273 180.547 57.3661 181.327 57.6964C182.107 58.0269 183.459 58.0499 185.392 57.7673C185.718 56.6191 186.046 55.4672 186.372 54.3131C186.699 53.1575 187.028 51.9955 187.358 50.8301Z"
		fill="white" />
	<path fill-rule="evenodd" clip-rule="evenodd"
		d="M48.5629 19.4988V18.6657C48.5629 -1.47317 16.2874 -0.481654 7.31481 14.7355C2.61983 22.6978 6.41793 30.4868 17.6894 30.3171C22.0802 30.2509 27.4726 29.7379 33.7016 26.6737C30.835 31.4237 5.97344 36.511 1.2485 27.0557C-3.20327 17.5694 5.00988 8.81434 13.8997 4.86699C25.9415 -0.480225 52.3756 -0.275527 55.6462 15.788C56.9343 25.9209 49.1696 40.4946 40.7632 52.3891C37.5577 56.9246 35.2847 59.8081 30.6819 63.4234C29.9787 63.9759 29.2965 64.5068 28.6682 64.9985C26.39 66.7812 24.7613 67.8704 24.1466 67.9295C24.7032 52.4685 36.2545 30.3987 48.5629 19.4988ZM32.438 57.1802C31.8253 45.9435 39.6174 29.8308 48.4577 22.6203C48.9974 37.891 32.9616 60.5046 32.438 57.1802Z"
		fill="white" />
	<path fill-rule="evenodd" clip-rule="evenodd"
		d="M48.458 22.6204C48.2723 23.2325 48.7467 20.1556 48.5632 19.4988C55.5337 14.2167 68.3858 1.38968 84.4492 0.0367058C90.7347 -0.492632 93.337 4.79941 90.875 9.69957C85.935 19.532 70.7829 31.0279 67.3352 32.2106C67.0834 32.2969 68.1111 30.7197 68.0098 30.7146C59.6053 30.9784 50.0957 41.5151 49.7139 46.2209C53.9045 44.2462 63.6161 37.9795 67.4595 33.6928C67.6381 33.4935 68.2828 32.8171 68.9611 32.6841C69.6395 32.5511 70.8139 32.8522 70.9631 32.6308C71.3023 32.1274 67.2734 32.6239 67.2187 32.1094C66.8196 30.7232 81.7343 17.512 84.2474 11.9071C85.2907 9.5801 84.5297 5.37869 81.2076 4.73511C68.9774 2.36607 48.5546 22.3016 48.458 22.6204Z"
		fill="white" />
	<path fill-rule="evenodd" clip-rule="evenodd"
		d="M71.768 40.8984C67.3069 43.7654 61.933 49.0565 58.5192 52.8737C50.6766 63.0232 48.8498 78.2826 64.1201 75.0292C76.9202 72.1308 89.8723 54.6534 87.1793 42.0914C85.5621 34.5472 78.6663 29.3006 70.0042 31.0841C68.8223 31.3274 67.9032 31.713 67.4515 32.3118L67.2186 32.1095C67.4529 32.3514 67.7871 32.6823 68.2627 32.6816C70.3962 32.6787 74.6802 32.6877 77.1877 35.7541C82.0616 41.7146 78.1336 52.013 74.4539 57.8789C71.2448 62.9948 66.2819 67.2852 60.2863 67.7634C54.3979 68.2329 54.2689 62.699 55.9382 58.6088C59.2544 50.4807 72.0685 40.5435 71.768 40.8984Z"
		fill="white" />
	<path
		d="M67.2103 32.3919C67.5336 32.7043 68.1364 32.6214 68.5565 32.2066C68.9767 31.7919 69.0553 31.2024 68.7319 30.89C68.4086 30.5775 67.8059 30.6604 67.3857 31.0752C66.9655 31.4899 66.8869 32.0794 67.2103 32.3919Z"
		fill="white" />
	<path
		d="M179.23 45.6135C179.341 19.8438 145.971 18.968 126.534 21.3852C113.371 22.5145 101.305 26.2107 89.7324 31.0653C112.165 19.5382 143.537 13.8166 168.362 18.9507C180.658 21.4939 197.946 29.3862 195.318 44.2169L179.23 45.6135Z"
		fill="white" />
	<path
		d="M152.589 75.5168C140.025 84.5688 120.825 89.9176 99.3555 94.0005C124.682 92.2996 148.157 86.08 169.035 73.5166L152.589 75.5168Z"
		fill="white" />
	<path fill-rule="evenodd" clip-rule="evenodd"
		d="M184.961 20.4736C185.754 18.2969 189.105 13.9891 190.666 12.4756C191.754 11.421 194.521 9.32138 196.444 7.99961C200.872 4.95599 208.28 5.19902 204.675 11.0965C203.602 12.8527 202.356 13.1579 201.749 13.9873C201.173 14.7733 201.629 15.4016 202.203 16.0348C203.406 17.3639 204.309 17.9808 202.429 19.3949C200.681 20.7104 196.969 21.4548 193.398 21.84C191.009 22.0977 188.903 21.9549 187.27 21.9549C187.514 21.4646 189.482 21.5156 192.37 20.9824C197.369 20.0593 203.802 18.652 201.946 17.187C201.163 16.5694 199.711 15.684 200.615 13.238C201.17 11.7389 204.72 11.2515 204.073 8.2765C203.865 7.32274 201.847 7.36222 200.135 7.90696C196.161 9.17072 191.346 13.5399 188.382 16.4991C187.863 17.0168 185.382 20.4854 184.961 20.4736Z"
		fill="white" />
	<path fill-rule="evenodd" clip-rule="evenodd"
		d="M183.819 19.963C182.989 16.1156 182.006 -2.15101 189.515 0.258077C192.071 1.07819 191.016 4.97741 191.168 6.57864C191.234 7.27644 191.532 7.29546 192.051 7.6767C193.247 8.55617 192.926 10.5038 192.132 10.5755C191.746 8.23058 191.622 9.13174 190.604 8.50652C190.037 8.15886 189.817 7.88501 189.75 7.21138C189.554 5.25344 190.92 1.42652 188.753 1.25226C187.507 1.1522 187.054 1.71045 186.529 2.71824C183.22 9.06582 183.852 20.1134 183.819 19.963Z"
		fill="white" />
	<path fill-rule="evenodd" clip-rule="evenodd"
		d="M192.075 26.8803C191.838 26.223 186.693 22.4988 185.821 22.0174C184.312 21.1838 182.759 20.3186 181.013 19.9115C180.156 19.7115 179.97 19.7887 180.294 20.6309C180.533 21.2511 180.967 21.6309 181.23 21.6061C181.232 21.5972 181.229 21.5375 181.223 21.4516C181.166 20.5938 180.638 20.4042 181.765 20.7202C182.648 20.9678 187.026 23.0838 187.549 23.6827C187.552 23.6866 188.479 24.4018 188.55 24.4258C188.552 24.4434 188.361 24.4478 188.134 24.3514C186.852 23.8054 182.605 22.4235 181.843 22.3858C181.872 22.8756 185.832 24.2102 188.655 25.2404C190.009 25.7344 191.037 26.3657 191.309 26.593C191.499 26.7515 192.129 27.0276 192.075 26.8803Z"
		fill="white" />
	<path
		d="M179.892 19.2841C179.777 18.9294 178.254 17.6434 178.545 17.4453C179.2 16.9982 179.807 19.0513 179.892 19.2841Z"
		fill="white" />
	<path
		d="M179.384 19.7486C179.027 19.6179 177.791 18.0659 177.573 18.3388C177.082 18.9548 179.15 19.6534 179.384 19.7486Z"
		fill="white" />
</svg>