<svg width="1759" height="80" viewBox="0 0 1759 80" fill="none" xmlns="http://www.w3.org/2000/svg">
	<g clip-path="url(#clip0_133_9)">
		<path d="M442.588 0C320.614 0 329.103 80 0 80H879.5C556.071 74.1463 564.56 0 442.588 0Z" fill="white" />
		<path d="M1322.08 31.746C1200.11 31.746 1208.6 80 879.5 80H1759C1435.58 76.4692 1444.06 31.746 1322.08 31.746Z"
			fill="white" />
		<path opacity="0.5"
			d="M754.051 31.746C632.077 31.746 640.566 80 311.463 80H1190.96C867.534 76.4692 876.023 31.746 754.051 31.746Z"
			fill="white" />
		<path opacity="0.5"
			d="M227.396 31.746C164.728 31.746 169.089 80 0 80H451.877C285.702 76.4692 290.064 31.746 227.396 31.746Z"
			fill="white" />
		<path opacity="0.5"
			d="M1539.6 31.746C1478.34 31.746 1482.6 80 1317.33 80H1759C1596.58 76.4692 1600.84 31.746 1539.6 31.746Z"
			fill="white" />
	</g>
	<defs>
		<clipPath id="clip0_133_9">
			<rect width="1759" height="80" fill="white" />
		</clipPath>
	</defs>
</svg>