<svg width="78" height="10" viewBox="0 0 78 10" fill="none" xmlns="http://www.w3.org/2000/svg">
	<g clip-path="url(#clip0_214_1712)">
		<path
			d="M68.6875 1.72775C69.0324 1.12565 69.3508 0.602094 69.6957 0C72.4549 1.57068 75.1344 3.089 77.9732 4.71204C75.2671 6.51832 72.7202 8.24607 70.0671 10.0262C69.6957 9.47644 69.3242 8.97906 68.8997 8.37696C70.6242 7.19895 72.2691 6.09948 74.1263 4.84293C72.2957 3.79581 70.5181 2.77487 68.6875 1.72775Z"
			fill="#989898" />
		<path
			d="M14.0873 5.75963C13.0526 5.75963 12.071 5.75963 11.0098 5.75963C11.0098 5.13136 11.0098 4.52926 11.0098 3.84863C12.0179 3.84863 13.0261 3.84863 14.0873 3.84863C14.0873 4.47691 14.0873 5.05282 14.0873 5.75963Z"
			fill="#989898" />
		<path
			d="M42.6348 5.73345C42.6348 5.10518 42.6348 4.50308 42.6348 3.84863C43.6429 3.84863 44.6511 3.84863 45.7123 3.84863C45.7123 4.45073 45.7123 5.05282 45.7123 5.73345C44.7042 5.73345 43.696 5.73345 42.6348 5.73345Z"
			fill="#989898" />
		<path
			d="M48.9756 5.70708C48.9756 5.05263 48.9756 4.47672 48.9756 3.82227C50.0103 3.82227 51.0184 3.82227 52.0797 3.82227C52.0797 4.45054 52.0797 5.02645 52.0797 5.70708C51.0715 5.70708 50.0633 5.70708 48.9756 5.70708Z"
			fill="#989898" />
		<path
			d="M7.69441 5.75963C6.65972 5.75963 5.70462 5.75963 4.66992 5.75963C4.66992 5.10518 4.66992 4.50308 4.66992 3.84863C5.67809 3.84863 6.65972 3.84863 7.69441 3.84863C7.69441 4.45073 7.69441 5.05282 7.69441 5.75963Z"
			fill="#989898" />
		<path
			d="M17.3516 3.84863C18.3863 3.84863 19.3944 3.84863 20.4291 3.84863C20.4291 4.50308 20.4291 5.079 20.4291 5.73345C19.4209 5.73345 18.4128 5.73345 17.3516 5.73345C17.3516 5.10518 17.3516 4.50308 17.3516 3.84863Z"
			fill="#989898" />
		<path
			d="M23.6914 5.81198C23.6914 5.10518 23.6914 4.50308 23.6914 3.84863C24.7261 3.84863 25.7077 3.84863 26.6628 3.84863C27.0608 5.73345 26.9812 5.81198 25.2037 5.81198C24.6996 5.81198 24.222 5.81198 23.6914 5.81198Z"
			fill="#989898" />
		<path
			d="M29.9795 5.73345C29.9795 5.079 29.9795 4.50308 29.9795 3.84863C30.9877 3.84863 31.9693 3.84863 33.0305 3.84863C33.0305 4.45073 33.0305 5.05282 33.0305 5.73345C32.0223 5.73345 31.0672 5.73345 29.9795 5.73345Z"
			fill="#989898" />
		<path
			d="M39.3448 5.75963C38.3366 5.75963 37.3815 5.75963 36.3203 5.75963C36.3203 5.10518 36.3203 4.52926 36.3203 3.84863C37.3019 3.84863 38.2836 3.84863 39.3448 3.84863C39.3448 4.45073 39.3448 5.079 39.3448 5.75963Z"
			fill="#989898" />
		<path
			d="M61.6836 3.77009C62.4265 3.77009 63.0897 3.82244 63.7265 3.77009C64.5489 3.69155 64.9203 3.95333 64.7877 4.79103C64.7346 5.07899 64.7611 5.36695 64.7346 5.73344C63.7265 5.73344 62.7448 5.73344 61.6836 5.73344C61.6836 5.13134 61.6836 4.52925 61.6836 3.77009Z"
			fill="#989898" />
		<path
			d="M70.9953 5.8112C70.1198 5.8112 69.2973 5.83737 68.4749 5.78502C68.2626 5.75884 67.9973 5.41853 67.9442 5.2091C67.8647 4.81643 67.9177 4.37141 67.9177 3.87402C68.9789 3.87402 69.934 3.87402 70.9953 3.87402C70.9953 4.44994 70.9953 5.05203 70.9953 5.8112Z"
			fill="#989898" />
		<path
			d="M58.4203 5.73345C57.3326 5.73345 56.3775 5.73345 55.3428 5.73345C55.3428 5.079 55.3428 4.50308 55.3428 3.84863C56.3775 3.84863 57.3591 3.84863 58.4203 3.84863C58.4203 4.47691 58.4203 5.05282 58.4203 5.73345Z"
			fill="#989898" />
		<path
			d="M0 5.73326C0 5.07881 0 4.47672 0 3.82227C0.477551 3.82227 0.902041 3.82227 1.37959 3.82227C1.37959 4.47672 1.37959 5.07881 1.37959 5.73326C0.928571 5.73326 0.530612 5.73326 0 5.73326Z"
			fill="#989898" />
	</g>
	<defs>
		<clipPath id="clip0_214_1712">
			<rect width="78" height="10" fill="white" />
		</clipPath>
	</defs>
</svg>