<svg width="33" height="33" viewBox="0 0 33 33" fill="none" xmlns="http://www.w3.org/2000/svg">
	<path
		d="M16.4645 18.7323C16.3089 18.9358 16.2371 19.0914 16.1175 19.2111C11.7382 23.5919 7.35896 27.9608 2.99166 32.3417C2.51305 32.8324 1.97462 33.1197 1.26867 32.9521C0.0841187 32.6649 -0.394489 31.2764 0.383248 30.3308C0.490935 30.1872 0.622552 30.0675 0.754169 29.9358C5.09753 25.5909 9.4409 21.2459 13.7962 16.901C13.9159 16.7813 14.0475 16.6975 14.215 16.5658C14.0475 16.3863 13.9278 16.2546 13.8082 16.1349C9.405 11.7421 5.02574 7.34929 0.634517 2.95648C0.143945 2.46573 -0.11929 1.9271 0.0721534 1.22089C0.371283 0.0718186 1.74728 -0.371054 2.68057 0.371057C2.82415 0.478783 2.9438 0.610448 3.07542 0.742112C7.41878 5.08705 11.7621 9.43199 16.1175 13.7889C16.2371 13.9086 16.3328 14.0403 16.4645 14.2078C16.632 14.0403 16.7636 13.9325 16.8832 13.8128C21.2266 9.45593 25.5819 5.09902 29.9373 0.730143C30.8227 -0.155602 31.7679 -0.239389 32.4978 0.466813C33.2397 1.19695 33.1559 2.15452 32.2585 3.05223C27.9152 7.39717 23.5718 11.7421 19.2165 16.099C19.0968 16.2187 18.9772 16.3145 18.8096 16.4701C18.9532 16.6257 19.0729 16.7573 19.1925 16.877C23.5718 21.2579 27.9391 25.6387 32.3303 30.0076C32.8328 30.5103 33.12 31.049 32.9286 31.7791C32.6294 32.9162 31.2774 33.383 30.3561 32.6649C30.2244 32.5691 30.1168 32.4494 29.9971 32.3297C25.6298 27.9608 21.2625 23.5919 16.8952 19.2231C16.7756 19.1034 16.6679 18.9717 16.4645 18.7323Z"
		fill="#393939" />
</svg>