<svg width="14" height="14" viewBox="0 0 14 14" fill="none" xmlns="http://www.w3.org/2000/svg">
	<g clip-path="url(#clip0_239_33)">
		<path
			d="M5.78802e-05 6.98426C0.0156178 3.09537 3.16649 -0.0196286 7.06424 -0.00018412C10.927 0.0192603 14.039 3.18093 13.9962 7.09704C13.9573 10.9354 10.8258 14.0154 6.95921 13.9998C3.10814 13.9804 -0.015502 10.8265 5.78802e-05 6.98426ZM6.62857 7.87871C6.86585 7.87871 7.08369 7.87871 7.30153 7.87871C7.41823 7.87871 7.53493 7.88259 7.65163 7.86704C8.82251 7.71537 9.65885 6.71593 9.59661 5.54537C9.53826 4.39815 8.59689 3.49593 7.42601 3.46482C7.02923 3.45315 6.62857 3.46093 6.23179 3.46093C5.85835 3.46093 5.68719 3.63204 5.68719 4.00148C5.68719 4.92315 5.68719 5.84871 5.68719 6.77037C5.68719 6.82093 5.68719 6.87537 5.68719 6.94537C5.57827 6.94537 5.48102 6.94537 5.38378 6.94537C5.1815 6.94926 4.97533 6.93759 4.77305 6.96482C4.53965 6.99982 4.38794 7.22148 4.40739 7.45093C4.42684 7.68037 4.61745 7.86315 4.85085 7.87482C4.92865 7.87871 5.00645 7.87482 5.08425 7.87482C5.28264 7.87482 5.47713 7.87482 5.67552 7.87482C5.67552 8.06926 5.67552 8.24426 5.67552 8.42704C5.61328 8.42704 5.56271 8.42704 5.50826 8.42704C5.29431 8.42704 5.08036 8.42315 4.86641 8.43093C4.59411 8.44259 4.39572 8.65259 4.4035 8.91315C4.41128 9.16593 4.61356 9.35648 4.88197 9.36037C5.09592 9.36426 5.30987 9.36037 5.52381 9.36037C5.57438 9.36037 5.62495 9.36426 5.6833 9.36815C5.6833 9.62093 5.67941 9.85426 5.6833 10.0876C5.68719 10.3248 5.87002 10.5115 6.09953 10.5348C6.33682 10.5543 6.54688 10.4143 6.59356 10.177C6.6169 10.0681 6.60912 9.95537 6.61301 9.84259C6.6169 9.68315 6.61301 9.52759 6.61301 9.36037C6.69081 9.36037 6.74527 9.36037 6.79583 9.36037C7.40656 9.36037 8.02117 9.36037 8.6319 9.36037C8.77583 9.36037 8.90031 9.32148 9.00145 9.21648C9.1376 9.07259 9.16872 8.89759 9.09481 8.71871C9.00923 8.51648 8.84585 8.42704 8.6319 8.42704C8.0134 8.42704 7.39878 8.42704 6.78027 8.42704C6.72971 8.42704 6.67525 8.42704 6.6169 8.42704C6.62857 8.24426 6.62857 8.06926 6.62857 7.87871Z"
			fill="#E72D30" />
		<path
			d="M6.625 6.94554C6.625 6.08999 6.625 5.25388 6.625 4.37888C6.99455 4.39832 7.36409 4.37888 7.71419 4.44888C8.31325 4.56943 8.72169 5.18776 8.65945 5.79054C8.59332 6.43221 8.07596 6.9261 7.438 6.94554C7.17349 6.94943 6.90897 6.94554 6.625 6.94554Z"
			fill="#E72D30" />
	</g>
	<defs>
		<clipPath id="clip0_239_33">
			<rect width="14" height="14" fill="white" />
		</clipPath>
	</defs>
</svg>