<svg width="42" height="42" viewBox="0 0 42 42" fill="none" xmlns="http://www.w3.org/2000/svg">
	<g clip-path="url(#clip0_262_2231)">
		<path
			d="M0.0449219 21.7089C0.0449219 20.9008 0.0449219 20.1083 0.0449219 19.3002C0.0760439 19.005 0.107166 18.7253 0.138288 18.43C0.636241 14.0168 2.31683 10.1163 5.30455 6.8219C8.46343 3.32548 12.3848 1.14993 17.0531 0.326332C17.8312 0.186476 18.6092 0.108778 19.3873 0C20.1964 0 20.9901 0 21.7992 0C22.4839 0.0932379 23.1842 0.155396 23.8533 0.264174C28.1481 0.978998 31.8828 2.82822 34.9639 5.88952C39.5855 10.4893 41.6084 16.0991 41.0171 22.5791C40.6281 26.9302 38.9164 30.7685 36.0064 34.0474C32.1317 38.3829 27.2611 40.7294 21.4569 41.0091C17.411 41.2111 13.5986 40.2632 10.1285 38.1498C4.79103 34.902 1.52322 30.1935 0.371703 24.0554C0.216093 23.2784 0.153849 22.4859 0.0449219 21.7089ZM20.601 3.72951C11.3733 3.71397 3.84181 11.2041 3.77957 20.4813C3.71732 29.6807 11.3111 37.2641 20.5699 37.2951C29.7976 37.3262 37.3291 29.8206 37.3914 20.5434C37.4536 11.3595 29.8754 3.76059 20.601 3.72951Z"
			fill="#E72D30" />
		<path
			d="M18.7343 24.8479C18.7343 22.9676 18.7187 21.0873 18.7343 19.207C18.7499 18.4301 19.1545 17.8706 19.8703 17.5598C20.5861 17.2646 21.2708 17.3889 21.8465 17.9172C22.2822 18.3057 22.4534 18.8185 22.4378 19.3935C22.4378 20.8387 22.4378 22.2683 22.4378 23.7135C22.4378 25.9357 22.4378 28.1423 22.4378 30.3645C22.4378 31.4989 21.6909 32.2914 20.6483 32.3225C19.559 32.3536 18.7343 31.5611 18.7188 30.4111C18.7188 28.5464 18.7343 26.6971 18.7343 24.8479Z"
			fill="#E72D30" />
		<path
			d="M20.6012 8.71794C21.9706 8.73348 23.091 9.86787 23.0754 11.2198C23.0598 12.5718 21.9083 13.6906 20.5701 13.6751C19.2007 13.6595 18.0803 12.5251 18.0959 11.1577C18.127 9.80571 19.2474 8.7024 20.6012 8.71794Z"
			fill="#E72D30" />
	</g>
	<defs>
		<clipPath id="clip0_262_2231">
			<rect width="41.0655" height="41.0247" fill="white" transform="translate(0.0449219)" />
		</clipPath>
	</defs>
</svg>