<svg width="11" height="14" viewBox="0 0 11 14" fill="none" xmlns="http://www.w3.org/2000/svg">
	<g clip-path="url(#clip0_133_1193)">
		<path
			d="M1.09618 0C3.78325 0 6.47031 0 9.15738 0C9.1645 0.00711806 9.16805 0.0142361 9.17517 0.0177951C9.89766 0.199306 10.25 0.651302 10.25 1.39514C10.25 5.02891 10.25 8.66267 10.25 12.2964C10.25 13.1257 9.71259 13.6667 8.87977 13.6667C6.37422 13.6667 3.87222 13.6667 1.36667 13.6667C0.540972 13.6667 0 13.1257 0 12.2964C0 10.2464 0 8.19644 0 6.14644C0 4.53776 0 2.92552 0 1.31684C0 0.800781 0.227778 0.409288 0.676215 0.156597C0.80434 0.0854167 0.953819 0.0533854 1.09618 0ZM5.43108 3.04653C5.577 3.04653 5.72292 3.05009 5.8724 3.04653C6.10017 3.03941 6.27812 2.86858 6.29236 2.64436C6.3066 2.43793 6.15356 2.24575 5.94002 2.2066C5.84748 2.19236 5.75495 2.19236 5.66241 2.19592C5.58767 2.19592 5.54496 2.18168 5.51649 2.09983C5.45243 1.91832 5.28871 1.82222 5.09653 1.83646C4.91858 1.84714 4.77977 1.96458 4.71927 2.14609C4.70503 2.1888 4.66588 2.23507 4.62674 2.25286C4.1605 2.44149 3.89714 2.88281 3.98611 3.34193C4.07865 3.82951 4.46658 4.14271 4.98264 4.14983C5.09297 4.14983 5.20686 4.13915 5.31363 4.15694C5.3599 4.16406 5.42396 4.23168 5.42396 4.27439C5.42396 4.31354 5.3599 4.36337 5.31363 4.39184C5.28516 4.40964 5.23533 4.39896 5.19618 4.39896C4.92569 4.39896 4.65521 4.3954 4.38116 4.40252C4.14983 4.40964 3.97899 4.58759 3.97187 4.81181C3.96476 5.03958 4.12491 5.22109 4.35625 5.24601C4.42743 5.25313 4.49861 5.25668 4.56979 5.24957C4.66588 5.24245 4.71927 5.2638 4.75486 5.36701C4.81536 5.53429 4.97552 5.62326 5.15703 5.61259C5.32786 5.60547 5.47378 5.4987 5.52361 5.33142C5.54852 5.24245 5.59479 5.20686 5.67309 5.17483C6.07882 5.01823 6.33863 4.58759 6.28168 4.16762C6.22118 3.70139 5.87951 3.35616 5.43108 3.3099C5.2816 3.29566 5.12856 3.29922 4.97908 3.29566C4.90078 3.29566 4.83316 3.27431 4.8296 3.18177C4.82604 3.08212 4.89366 3.05365 4.97908 3.05009C5.13212 3.04653 5.2816 3.04653 5.43108 3.04653ZM4.27795 7.56649C4.27795 7.29245 4.28151 7.01484 4.27795 6.7408C4.27439 6.46319 4.11068 6.2888 3.83307 6.28524C3.27786 6.27813 2.72266 6.27813 2.16389 6.28524C1.88628 6.2888 1.71901 6.46675 1.71545 6.74436C1.71189 7.29245 1.71189 7.83698 1.71545 8.38507C1.71545 8.66979 1.88984 8.84418 2.17101 8.84418C2.72266 8.84774 3.27431 8.84774 3.82595 8.84418C4.10712 8.84418 4.27439 8.67335 4.27795 8.39575C4.27795 8.11814 4.27795 7.8441 4.27795 7.56649ZM4.27795 10.5561C4.27795 10.282 4.28151 10.0044 4.27795 9.73038C4.27439 9.45278 4.11068 9.27839 3.83307 9.27483C3.27786 9.26771 2.72266 9.26771 2.16389 9.27483C1.88628 9.27839 1.71901 9.45634 1.71545 9.73394C1.71189 10.282 1.71189 10.8266 1.71545 11.3747C1.71545 11.6594 1.88984 11.8338 2.17101 11.8338C2.72266 11.8373 3.27431 11.8373 3.82595 11.8338C4.10712 11.8338 4.27439 11.6629 4.27795 11.3853C4.27795 11.1077 4.27795 10.8337 4.27795 10.5561ZM6.61979 7.34939C7.10738 7.34939 7.59852 7.34939 8.08611 7.34939C8.30321 7.34939 8.46337 7.22839 8.51675 7.03976C8.59505 6.75148 8.39219 6.49879 8.06476 6.49879C7.58785 6.49523 7.1145 6.49879 6.63759 6.49879C6.15356 6.49879 5.66953 6.49879 5.1855 6.49879C5.00399 6.49879 4.85451 6.55573 4.75842 6.723C4.59826 7.00773 4.79757 7.34939 5.13924 7.35295C5.63394 7.35295 6.12865 7.34939 6.61979 7.34939ZM6.60556 10.339C7.10026 10.339 7.59141 10.339 8.08611 10.339C8.30321 10.339 8.46337 10.2215 8.51675 10.0293C8.59505 9.74106 8.39219 9.48837 8.06832 9.48481C7.61632 9.48125 7.16076 9.48481 6.70877 9.48481C6.20339 9.48481 5.69444 9.48481 5.18906 9.48481C5.00755 9.48481 4.85807 9.54175 4.76198 9.70547C4.59826 9.99019 4.80113 10.3319 5.13924 10.3354C5.62682 10.3425 6.11797 10.339 6.60556 10.339ZM6.18915 8.63064C6.53437 8.63064 6.88316 8.6342 7.22839 8.62708C7.31024 8.62708 7.39922 8.60929 7.4704 8.5737C7.64479 8.48828 7.72665 8.28542 7.68038 8.09679C7.63411 7.9046 7.46684 7.77648 7.24262 7.77292C6.54861 7.76936 5.8546 7.76936 5.16059 7.77292C4.8901 7.77292 4.69792 7.96155 4.70148 8.20712C4.70503 8.45269 4.89722 8.62352 5.17127 8.62708C5.51293 8.63064 5.85104 8.63064 6.18915 8.63064ZM6.18915 11.6202C6.53437 11.6202 6.88316 11.6238 7.22839 11.6167C7.3138 11.6167 7.40634 11.5953 7.48108 11.5562C7.64835 11.4672 7.72665 11.2714 7.68038 11.0899C7.63411 10.8977 7.46684 10.7696 7.24262 10.7661C6.54861 10.7625 5.8546 10.7625 5.16059 10.7661C4.8901 10.7661 4.69792 10.9547 4.70148 11.2003C4.70503 11.4458 4.89722 11.6202 5.17127 11.6202C5.51293 11.6202 5.85104 11.6202 6.18915 11.6202Z"
			fill="#E72D30" />
		<path
			d="M3.41708 7.14648C3.41708 7.42765 3.41708 7.69813 3.41708 7.9793C3.13947 7.9793 2.86187 7.9793 2.57715 7.9793C2.57715 7.70169 2.57715 7.43121 2.57715 7.14648C2.85475 7.14648 3.1288 7.14648 3.41708 7.14648Z"
			fill="#E72D30" />
		<path
			d="M2.57715 10.9725C2.57715 10.6949 2.57715 10.4244 2.57715 10.1396C2.85475 10.1396 3.13236 10.1396 3.41708 10.1396C3.41708 10.4137 3.41708 10.6877 3.41708 10.9725C3.13947 10.9725 2.86543 10.9725 2.57715 10.9725Z"
			fill="#E72D30" />
	</g>
	<defs>
		<clipPath id="clip0_133_1193">
			<rect width="10.25" height="13.6667" fill="white" />
		</clipPath>
	</defs>
</svg>