<svg width="89" height="89" viewBox="0 0 89 89" fill="none" xmlns="http://www.w3.org/2000/svg">
<circle cx="44.5" cy="44.5" r="44.5" fill="#E72D30"/>
<g clip-path="url(#clip0_133_454)">
<path d="M56.9085 39.0147L57.3314 38.6884C60.2674 36.4532 63.2879 34.1455 66.2964 31.9103C66.9851 31.4028 67.7221 30.7262 68 29.6267L68.0121 29.5905V28.5756L67.9758 28.5152C67.8429 28.2614 67.71 28.0077 67.5892 27.7419C67.2992 27.162 66.9972 26.5699 66.671 25.99C66.4414 25.5792 66.1998 25.1684 65.9702 24.7697C65.6681 24.2622 65.354 23.7306 65.0882 23.199C64.6895 22.4378 64.0008 21.3746 62.6234 21.0121L62.5751 21H61.5722L49.8645 25.8692L49.8525 25.8571C49.7558 25.7 49.6712 25.555 49.5866 25.41C49.2967 24.8905 49.3692 24.6368 49.8645 24.3468C50.0579 24.238 50.2512 24.1293 50.4324 24.0206C50.6982 23.8756 50.964 23.7185 51.2298 23.5494C51.8581 23.1627 52.0635 22.4499 51.701 21.8578C51.3507 21.2779 50.662 21.1208 50.0337 21.4591C49.7075 21.6283 49.3933 21.8216 49.0792 22.0028C48.9584 22.0753 48.8496 22.1357 48.7288 22.2082C46.9527 23.2352 46.5057 24.9147 47.5327 26.6907L48.2214 27.8869C49.7316 30.4967 51.2902 33.2031 52.8247 35.8491C52.9334 36.0424 52.9214 36.0424 52.8005 36.1753C50.0579 38.9784 47.9918 42.2889 46.6386 45.9861C46.3969 46.6506 46.1794 47.3393 45.9741 48.0039C45.9016 48.2455 45.817 48.4992 45.7445 48.7409H45.1283C44.1375 48.7409 43.0985 48.7409 42.0836 48.7288C42.0473 48.7046 41.9869 48.6442 41.9627 48.5959C40.8149 46.0344 39.1959 43.5938 37.1661 41.3344C36.8882 41.0203 36.5861 40.7062 36.2962 40.4041C36.2116 40.3195 36.127 40.2229 36.0424 40.1383L36.417 39.4859C36.719 38.9542 37.0332 38.4226 37.3352 37.891C37.7581 37.154 38.1931 36.4049 38.616 35.6679C39.5584 34.0368 40.537 32.3452 41.4915 30.6779C42.3373 29.2039 41.9748 27.4882 40.6458 26.5941C40.0658 26.1954 39.4255 25.8571 38.8697 25.555C38.2776 25.2288 37.5769 25.4221 37.2386 25.99C36.9003 26.5699 37.0815 27.2707 37.6856 27.6573C37.9877 27.8506 38.2535 28.0077 38.5314 28.1527C39.1597 28.4789 39.4738 28.7206 39.5342 28.9501C39.5946 29.1918 39.3892 29.5422 39.0872 30.0375C39.0267 30.0134 38.9784 29.9892 38.918 29.965L35.6558 28.5877C33.191 27.5486 30.7142 26.5095 28.2494 25.4584C26.6062 24.7697 25.0959 25.2771 24.2018 26.8237C23.3681 28.2856 22.4741 29.8442 21.5075 31.5236C20.6013 33.1064 20.9154 34.6409 22.3774 35.7404C23.2111 36.3686 24.0327 36.9969 24.8663 37.6252C26.9928 39.2442 29.1918 40.9236 31.3908 42.5306C32.2124 43.1347 32.7561 43.8234 33.1185 44.6933C33.1789 44.8504 33.2514 45.0075 33.3239 45.1645C33.4689 45.4787 33.6018 45.7807 33.6864 46.0949C33.8797 46.7715 34.0489 47.4602 34.2301 48.1851C34.2784 48.3663 34.3267 48.5476 34.363 48.7409H31.0525C28.1769 48.7409 25.3013 48.7409 22.4257 48.7409C21.4712 48.7409 21.0121 49.2 21.0121 50.1424V50.2149C21.0121 51.4715 21 52.7643 21.0121 54.045C21.0242 56.3165 22.3895 58.1288 24.5643 58.7691C24.6972 58.8054 24.7093 58.8175 24.7214 58.9745C25.1805 63.445 28.7689 67.2388 33.0581 67.7946C34.8342 68.0242 36.6586 68.0121 38.4226 68C39.1113 68 39.8121 67.9879 40.5129 68H40.525C40.8149 68 41.0807 67.8913 41.2861 67.6738C41.5157 67.4442 41.6486 67.118 41.6365 66.7797C41.6244 66.1514 41.1411 65.656 40.5008 65.6077C40.38 65.5956 40.2712 65.5956 40.1625 65.5956H40.0658H40.0537C39.5221 65.5956 38.9905 65.5956 38.4468 65.6077C37.2869 65.6198 36.0908 65.6198 34.9067 65.5956C31.572 65.499 29.1435 63.9041 27.7057 60.8594C27.017 59.4216 26.9928 57.8751 27.0653 56.401C28.8656 56.5219 30.2792 56.2198 31.5116 55.4586C32.9252 54.5766 34.3267 54.5766 35.8008 55.4707C37.9756 56.7997 40.1866 56.7877 42.3615 55.4707C43.8113 54.5887 45.2129 54.5887 46.6507 55.4586C48.8496 56.7997 51.0848 56.7877 53.2959 55.4344C54.6854 54.5887 56.0627 54.5887 57.5126 55.4344C58.1651 55.8211 58.8417 56.0869 59.482 56.2198C60.1103 56.3406 60.7386 56.3889 61.4031 56.4252C61.5964 56.4373 61.7776 56.4494 61.971 56.4614V56.5823V57.5368C61.971 62.1401 58.5034 65.6077 53.9242 65.6077C53.3926 65.6077 52.8609 65.6077 52.3293 65.6077C51.1332 65.6077 49.8887 65.6077 48.6684 65.6077C47.9435 65.6077 47.4239 66.0789 47.3877 66.7555C47.3756 67.0817 47.4964 67.408 47.726 67.6496C47.9555 67.8792 48.2576 68.0121 48.5838 68.0121C49.2 68.0121 49.8283 68.0121 50.4324 68.0242C50.9278 68.0242 51.4111 68.0362 51.9185 68.0362C53.0422 68.0362 54.1779 68.0121 55.3016 67.9275C57.5247 67.7463 59.6753 66.7314 61.3427 65.064C62.998 63.4087 64.0491 61.2581 64.2908 59.0108C64.3028 58.8416 64.327 58.8296 64.4841 58.7812C66.2843 58.2254 67.4321 57.0051 67.9034 55.1445C67.9154 55.0961 67.9396 55.0357 67.9638 54.9753C67.9758 54.9391 67.9879 54.9149 68 54.8787L68.0121 54.8303V49.635L67.9758 49.5625C67.5892 48.8375 66.9247 48.753 66.4776 48.765C63.6383 48.7771 60.7507 48.7771 57.9597 48.7771C57.0414 48.7771 56.1231 48.7771 55.2049 48.7771H54.9028C54.8908 48.6925 54.8787 48.608 54.8545 48.5234C54.7941 48.173 54.7337 47.8347 54.7095 47.4964C54.5041 44.7537 55.0962 42.0835 56.4856 39.5704C56.5702 39.3288 56.7273 39.1476 56.9085 39.0147ZM47.7381 51.4715C47.7501 51.3627 47.7622 51.2661 47.7743 51.1573C47.8347 51.1573 47.883 51.1452 47.9314 51.1452C48.4267 51.1452 48.91 51.1452 49.4054 51.1452C50.5532 51.1452 51.7494 51.1452 52.9093 51.1332C53.1026 51.1332 53.1388 51.1573 53.1992 51.3386C53.3321 51.7131 53.4771 52.0635 53.61 52.4139C53.6342 52.4622 53.6463 52.5105 53.6704 52.5468C53.5255 52.6193 53.3684 52.6918 53.2355 52.7643C52.7522 53.0059 52.2931 53.2234 51.846 53.4771C50.4203 54.2504 49.055 54.1658 47.6535 53.2113C47.6293 53.1992 47.6052 53.1388 47.6052 53.1147C47.6293 52.5709 47.6897 52.0393 47.7381 51.4715ZM52.426 48.7046H48.318C49.4296 44.7779 51.4111 41.2378 54.2142 38.1931C54.2987 38.3622 54.2625 38.5314 54.1296 38.7972C52.4622 42.0352 51.8944 45.3699 52.426 48.7046ZM55.809 31.3545C56.099 31.1853 56.2923 30.9558 56.3769 30.6779C56.4735 30.3154 56.3769 29.8925 56.099 29.4093L55.4707 28.3219C55.1566 27.7781 54.8545 27.2465 54.5404 26.7028C54.5162 26.6666 54.492 26.6183 54.4679 26.5699L55.5794 26.0987C55.7003 26.3041 55.809 26.4974 55.9298 26.7028C56.3527 27.4398 56.7877 28.201 57.2347 28.938C57.416 29.2401 57.7301 29.5059 58.0321 29.6267C58.4913 29.808 58.9866 29.663 59.3129 29.228C59.627 28.8172 59.6512 28.3339 59.3974 27.8748C59.1195 27.3915 58.8417 26.9203 58.5758 26.437C58.3584 26.0625 58.153 25.7 57.9355 25.3254C57.8992 25.265 57.8751 25.2167 57.8388 25.1563L58.9504 24.6851L60.1224 26.7028C60.1465 26.7512 60.1828 26.8116 60.207 26.8599C60.2674 26.9686 60.3278 27.0774 60.3882 27.174C60.799 27.8506 61.4877 28.0681 62.0918 27.7177C62.708 27.3674 62.8651 26.6424 62.4784 25.9658C62.2126 25.5067 61.9468 25.0355 61.681 24.5884C61.536 24.3468 61.391 24.0931 61.2581 23.8514C61.2339 23.8152 61.2098 23.7668 61.1856 23.7306C61.1977 23.7306 61.2098 23.7185 61.2219 23.7185C61.4514 23.6219 61.6689 23.5252 61.8985 23.4527C62.1884 23.356 62.4059 23.4527 62.563 23.7064C63.6866 25.6154 64.6532 27.2949 65.5231 28.8414C65.644 29.0589 65.6923 29.3247 65.209 29.6992C63.7108 30.835 62.2247 31.9586 60.7265 33.0943L59.3974 34.0972C58.3221 34.9067 57.2589 35.7162 56.1836 36.5257C56.1473 36.5499 56.1111 36.574 56.0748 36.6103L51.109 27.9956L52.2206 27.5244L52.3656 27.7781C52.583 28.1648 52.8005 28.5393 53.018 28.9018C53.2113 29.2401 53.4167 29.5905 53.61 29.9288L54.0088 30.6175C54.6974 31.8136 55.4949 31.5236 55.809 31.3545ZM45.3458 51.1694L45.2008 52.426H43.3039L42.9656 51.1694H45.3458ZM27.609 28.201C27.2707 28.7931 26.9324 29.373 26.6062 29.9409C26.5095 30.11 26.4129 30.3033 26.3525 30.5087C26.2075 31.0887 26.5095 31.6686 27.0653 31.8982C27.6453 32.1278 28.2373 31.9224 28.5635 31.3666C28.8776 30.847 29.1918 30.3033 29.4818 29.7838C29.6267 29.5301 29.7717 29.2763 29.9288 29.0226C29.9771 28.9501 30.0255 28.8656 30.0738 28.7931L31.1854 29.2643L29.9892 31.3424C29.953 31.4028 29.9167 31.4753 29.8684 31.5357C29.7838 31.6807 29.6992 31.8257 29.6147 31.9828C29.2884 32.6231 29.4576 33.2997 30.0255 33.638C30.6296 34.0005 31.3183 33.7951 31.717 33.1548C31.9707 32.7319 32.2244 32.2969 32.4661 31.874C32.5627 31.6928 32.6715 31.5236 32.7681 31.3424L33.4206 30.2067L34.5442 30.6779C34.5321 30.7021 34.5201 30.7262 34.508 30.7383C34.2905 31.1249 34.0609 31.5116 33.8435 31.8982C33.5052 32.4902 33.1548 33.0823 32.8165 33.6743C32.4178 34.3751 32.5627 35.0517 33.1669 35.4262C33.4447 35.5954 33.7589 35.6437 34.0609 35.5712C34.3992 35.4866 34.7013 35.245 34.9188 34.8704C35.39 34.0609 35.8612 33.2514 36.3324 32.4298L36.8036 31.6082L37.9273 32.0794L32.9615 40.6941L32.6232 40.4404C32.1761 40.1021 31.7411 39.7758 31.3062 39.4496L30.2792 38.6763C28.1406 37.0573 26.0021 35.4383 23.8756 33.8314C23.3561 33.4326 23.3198 33.2514 23.6581 32.6715C24.5401 31.1249 25.4342 29.5905 26.3283 28.044C26.5458 27.6815 26.6908 27.5244 26.9324 27.5244C27.0653 27.5244 27.2224 27.5728 27.4399 27.6573C27.5728 27.7177 27.7057 27.7661 27.8386 27.8265L27.609 28.201ZM36.574 53.0542C36.5257 52.9576 36.574 52.7159 36.6345 52.3293C36.6707 52.0997 36.707 51.8581 36.7432 51.6044C36.7674 51.4594 36.7794 51.3144 36.7915 51.1452H37.3715C38.3985 51.1452 39.3651 51.1452 40.3437 51.1573C40.3679 51.1694 40.4041 51.1936 40.4162 51.2177C40.6699 52.0152 40.8633 52.6918 41.0082 53.3321C40.9962 53.3684 40.9599 53.4409 40.9357 53.465C39.6309 54.19 38.3985 54.19 37.1661 53.465C36.8519 53.2838 36.6224 53.1509 36.574 53.0542ZM36.6103 47.7985C36.3807 46.8923 36.1753 46.0465 35.9095 45.1887C35.68 44.4517 35.3417 43.6784 34.8946 42.9051C34.7496 42.6514 34.7134 42.4823 34.81 42.301C36.7432 44.3188 38.2414 46.4211 39.3771 48.7046H36.8399C36.7553 48.4026 36.6828 48.1005 36.6103 47.7985ZM24.6126 51.1694V56.1594C23.9723 55.8211 23.489 55.1082 23.4527 54.3591C23.4165 53.5617 23.4165 52.7884 23.4286 51.9548C23.4286 51.6889 23.4406 51.4352 23.4406 51.1694H24.6126ZM34.363 51.1815C34.363 51.2057 34.3509 51.2177 34.3509 51.2419C34.2905 51.6165 34.2301 51.9789 34.1576 52.3414C34.1455 52.3535 34.1334 52.3535 34.1334 52.3656C32.7681 52.281 31.4874 52.6314 30.098 53.465C29.2643 53.9604 28.2856 54.1175 27.0774 53.9362V51.1815H34.363ZM61.9347 53.9362C60.7627 54.1054 59.7599 53.9483 58.89 53.4409C58.1167 52.9938 57.271 52.5589 56.2802 52.4139C56.2561 52.4139 56.2198 52.3776 56.2077 52.3656C56.0386 51.991 55.8936 51.6044 55.7365 51.1936C55.7365 51.1815 55.7244 51.1694 55.7244 51.1573H61.9347V53.9362ZM65.5956 52.5951C65.5956 53.1147 65.5956 53.6584 65.5836 54.19C65.5594 55.0237 65.0761 55.809 64.3995 56.1715V51.1936H65.5836V51.8943C65.5836 52.1239 65.5956 52.3535 65.5956 52.5951Z" fill="white"/>
<path d="M55.3747 60.751C56.5346 60.751 57.7066 60.751 58.8544 60.751C59.2773 60.751 59.6398 60.6061 59.8814 60.3644C60.0989 60.1349 60.2077 59.8449 60.2077 59.5187C60.1956 58.8179 59.6519 58.3467 58.8665 58.3467C58.0449 58.3467 57.2233 58.3467 56.4138 58.3467H55.3868H54.3478C53.5262 58.3467 52.7167 58.3467 51.8951 58.3467C51.1097 58.3467 50.566 58.8179 50.5418 59.5187C50.5298 59.8449 50.6506 60.1469 50.856 60.3644C51.0976 60.6181 51.4722 60.7631 51.883 60.7631C53.055 60.751 54.2149 60.751 55.3747 60.751Z" fill="white"/>
<path d="M44.3795 60.1465C43.7754 60.1465 43.1834 60.1465 42.5793 60.1465H41.806H41.0207C40.4045 60.1465 39.7883 60.1465 39.1842 60.1465C38.7854 60.1465 38.4351 60.2794 38.1934 60.5331C37.9759 60.7506 37.8672 61.0406 37.8672 61.3668C37.8672 62.0676 38.423 62.5629 39.1962 62.5629C40.1024 62.5629 40.9844 62.5629 41.8302 62.5629C42.7122 62.5629 43.5579 62.5629 44.3916 62.5629C44.7903 62.5629 45.1407 62.43 45.3824 62.1884C45.5998 61.9709 45.7207 61.6688 45.7086 61.3547C45.7086 60.6298 45.177 60.1465 44.3795 60.1465Z" fill="white"/>
<path d="M34.2064 58.334C34.0373 58.334 33.8681 58.334 33.6869 58.334C33.5057 58.334 33.3365 58.334 33.1553 58.334C32.7445 58.334 32.3216 58.334 31.9108 58.334C31.1617 58.3461 30.6301 58.8294 30.618 59.506C30.6059 59.8322 30.7268 60.1342 30.9442 60.3517C31.1738 60.5934 31.5121 60.7263 31.8746 60.7384C32.4666 60.7504 33.0586 60.7504 33.6386 60.7504C34.2306 60.7504 34.8226 60.7504 35.4026 60.7384C35.7651 60.7384 36.0913 60.6054 36.3208 60.3638C36.5383 60.1342 36.6591 59.8322 36.6471 59.506C36.6229 58.8294 36.1154 58.3461 35.3905 58.334C35.0039 58.334 34.5931 58.334 34.2064 58.334Z" fill="white"/>
<path d="M49.9247 64.3754C50.4805 64.3754 51.0604 64.3754 51.6525 64.3754C52.0512 64.3754 52.3895 64.2425 52.6311 63.9888C52.8486 63.7713 52.9573 63.4693 52.9573 63.143C52.9453 62.4544 52.4136 61.9711 51.6766 61.959C51.2779 61.959 50.8792 61.959 50.4805 61.959C50.2992 61.959 50.118 61.959 49.9489 61.959H48.2694C48.2573 61.959 48.2453 61.959 48.2211 61.959C47.4478 61.9831 46.9041 62.4785 46.9162 63.1793C46.9283 63.868 47.472 64.3634 48.209 64.3634C48.7769 64.3754 49.3327 64.3754 49.9247 64.3754Z" fill="white"/>
<path d="M44.5238 65.584C44.2097 65.584 43.8834 65.7169 43.6539 65.9465C43.4243 66.176 43.2914 66.4902 43.3035 66.8043C43.3156 67.4447 43.8593 67.9884 44.4996 67.9884H44.5117C44.8259 67.9884 45.1279 67.8675 45.3575 67.6259C45.587 67.3963 45.7199 67.0822 45.7079 66.756C45.7079 66.1277 45.1642 65.5961 44.5238 65.584Z" fill="white"/>
</g>
<defs>
<clipPath id="clip0_133_454">
<rect width="47" height="47" fill="white" transform="translate(21 21)"/>
</clipPath>
</defs>
</svg>
