<svg width="89" height="92" viewBox="0 0 89 92" fill="none" xmlns="http://www.w3.org/2000/svg">
<ellipse cx="44.5" cy="45.9871" rx="44.5" ry="45.0796" fill="#E72D30"/>
<g clip-path="url(#clip0_262_2029)">
<path d="M21 58.9067C21 58.6588 21 58.4108 21 58.1628C21.3427 57.3941 21.918 57.0593 22.7503 57.1337C23.1052 57.1709 23.4724 57.1337 23.8273 57.1337C23.8396 56.9973 23.8396 56.9353 23.8396 56.8733C23.8396 48.876 23.8396 40.8786 23.8518 32.8812C23.8518 32.5961 23.7294 32.4969 23.5091 32.3729C21.9424 31.6165 21.1102 30.3394 21.0979 28.554C21.0857 26.9421 21.0979 25.3303 21.0979 23.7184C21.0979 22.7389 21.6365 22.1809 22.5911 22.1809C37.193 22.1809 51.807 22.1809 66.4089 22.1809C67.3513 22.1809 67.9021 22.7389 67.9021 23.7184C67.9021 25.3427 67.9143 26.9669 67.9021 28.6036C67.8776 30.3271 67.0698 31.5793 65.5643 32.3605C65.2339 32.5341 65.1359 32.6953 65.1359 33.0424C65.1482 40.9034 65.1482 48.752 65.1482 56.6129C65.1482 56.7741 65.1482 56.9477 65.1482 57.1461C65.5398 57.1461 65.8948 57.1709 66.2375 57.1461C67.0698 57.0717 67.6451 57.4065 67.9878 58.1752C67.9878 58.4232 67.9878 58.6712 67.9878 58.9191C67.8409 59.1299 67.743 59.4151 67.5471 59.5515C67.2534 59.7623 67.2411 60.0103 67.2534 60.3078C67.2534 62.862 67.2289 65.4162 67.2656 67.9828C67.2779 68.8383 67.0331 69.4583 66.2497 69.8055C66.0049 69.8055 65.7602 69.8055 65.5154 69.8055C64.732 69.4459 64.475 68.8383 64.4872 67.9828C64.524 65.4782 64.4995 62.9612 64.4995 60.4566C64.4995 60.2954 64.4995 60.1342 64.4995 59.9731C51.2195 59.9731 38.0008 59.9731 24.7453 59.9731C24.7453 60.159 24.7453 60.3326 24.7453 60.4938C24.7453 62.986 24.7208 65.4906 24.7576 67.9828C24.7698 68.8383 24.525 69.4583 23.7417 69.8055C23.4969 69.8055 23.2521 69.8055 23.0073 69.8055C22.224 69.4459 21.9792 68.8383 21.9914 67.9828C22.0281 65.4286 22.0036 62.8744 22.0036 60.3202C22.0036 60.159 21.9424 59.9731 21.8445 59.8491C21.5875 59.5143 21.2815 59.2167 21 58.9067ZM26.5935 57.1089C29.1026 57.1089 31.5505 57.1089 34.0352 57.1089C34.0352 55.3234 34.0107 53.5752 34.0474 51.8269C34.0964 49.1611 35.3448 47.2393 37.6826 46.049C38.2578 45.7638 38.9065 45.6026 39.5552 45.3794C38.5638 44.0403 38.1109 42.5029 38.2945 40.829C38.4781 39.1427 39.2247 37.7293 40.5221 36.6505C42.762 34.7783 45.9443 34.6915 48.2453 36.4522C49.3958 37.3325 50.1792 38.4732 50.5341 39.8867C51.0482 41.8953 50.632 43.7428 49.4203 45.4414C49.5549 45.4786 49.6161 45.5034 49.6896 45.5158C52.7495 46.0614 54.9526 48.7024 54.9648 51.8393C54.9648 53.4388 54.9648 55.0259 54.9648 56.6253C54.9648 56.7865 54.9648 56.9477 54.9648 57.0965C57.4862 57.0965 59.9341 57.0965 62.4065 57.0965C62.4065 56.9601 62.4065 56.8733 62.4065 56.7741C62.4065 48.8264 62.4065 40.8786 62.4065 32.9184C62.4065 32.8564 62.431 32.7821 62.4065 32.7325C62.3575 32.6333 62.3086 32.5093 62.2229 32.4597C61.819 32.2117 61.4151 31.9885 60.9867 31.7405C60.2034 32.3853 59.3099 32.7573 58.2695 32.7573C57.2169 32.7573 56.3234 32.3481 55.5156 31.7157C54.6833 32.3977 53.7898 32.7573 52.7495 32.7573C51.7091 32.7573 50.8156 32.3605 50.0323 31.7281C48.1719 33.1292 46.3237 33.1168 44.5 31.7281C43.0924 32.906 41.024 33.3028 38.9799 31.7281C38.1844 32.3729 37.3031 32.7573 36.2628 32.7573C35.2102 32.7573 34.3044 32.3729 33.4966 31.7033C32.6766 32.3853 31.7831 32.7449 30.7427 32.7573C29.6901 32.7573 28.7844 32.3605 28.0133 31.7405C27.6583 31.9637 27.3646 32.2117 27.0219 32.3357C26.6547 32.4721 26.6057 32.6829 26.6057 33.03C26.618 40.891 26.618 48.7396 26.618 56.6005C26.5935 56.7741 26.5935 56.9229 26.5935 57.1089ZM52.2109 57.1337C52.2109 55.5342 52.2232 53.9719 52.2109 52.4097C52.2109 51.9757 52.2109 51.5417 52.113 51.1202C51.856 49.8803 51.1216 49.0123 49.9099 48.4792C49.9099 50.0043 49.9099 51.4549 49.9099 52.9056C49.9099 53.7612 49.3469 54.3563 48.5146 54.3563C45.8341 54.3563 43.1659 54.3563 40.4854 54.3563C39.6531 54.3563 39.0901 53.7736 39.0779 52.918C39.0779 51.5913 39.0779 50.2522 39.0779 48.9255C39.0779 48.7892 39.0656 48.6652 39.0656 48.5288C37.707 49.0123 36.8013 50.3514 36.7891 51.8889C36.7768 53.5504 36.7891 55.1994 36.7891 56.8609C36.7891 56.9477 36.8013 57.0345 36.8135 57.1337C41.9419 57.1337 47.0458 57.1337 52.2109 57.1337ZM41.0117 41.4985C40.9995 43.408 42.5661 45.0323 44.4633 45.0571C46.3482 45.0819 47.9516 43.4948 47.9883 41.5729C48.025 39.6511 46.4339 38.002 44.5122 37.9896C42.6273 37.9772 41.024 39.5767 41.0117 41.4985ZM41.8685 48.2312C41.8685 49.3595 41.8685 50.4382 41.8685 51.5293C43.6432 51.5293 45.3935 51.5293 47.1437 51.5293C47.1437 50.4134 47.1437 49.3347 47.1437 48.2312C45.3813 48.2312 43.6432 48.2312 41.8685 48.2312ZM23.8518 24.9955C23.8518 26.2602 23.8151 27.4877 23.8641 28.7152C23.8885 29.4343 24.525 29.9799 25.1982 29.9923C25.8714 30.0047 26.5323 29.4715 26.569 28.7524C26.618 27.5125 26.5812 26.2602 26.5812 24.9955C25.6755 24.9955 24.7943 24.9955 23.8518 24.9955ZM29.3596 24.9831C29.3596 26.2354 29.3352 27.4381 29.3719 28.6408C29.3841 29.3971 30.0328 29.9923 30.7305 29.9923C31.4526 29.9923 32.0768 29.3723 32.1013 28.5912C32.1258 28.0456 32.1013 27.5125 32.1013 26.9669C32.1013 26.3098 32.1013 25.6526 32.1013 24.9831C31.1711 24.9831 30.2898 24.9831 29.3596 24.9831ZM34.8674 24.9831C34.8674 26.2354 34.843 27.4381 34.8797 28.6408C34.9042 29.3971 35.5406 29.9923 36.2505 29.9923C36.9604 29.9923 37.5724 29.3971 37.6214 28.6408C37.6458 28.1944 37.6336 27.7481 37.6336 27.3017C37.6336 26.533 37.6336 25.7642 37.6336 24.9831C36.6789 24.9831 35.7977 24.9831 34.8674 24.9831ZM40.3753 24.9831C40.3753 26.2354 40.3508 27.4505 40.3875 28.6656C40.412 29.3971 41.0484 29.9675 41.7339 29.9799C42.407 29.9923 43.068 29.4591 43.0924 28.74C43.1414 27.5001 43.1047 26.2478 43.1047 24.9831C42.199 24.9831 41.3177 24.9831 40.3753 24.9831ZM45.8831 24.9831C45.8831 26.2354 45.8586 27.4381 45.8953 28.6408C45.9076 29.3971 46.5562 29.9923 47.2539 29.9923C47.976 29.9923 48.6003 29.3847 48.6247 28.6036C48.6492 27.9588 48.6247 27.3017 48.637 26.6569C48.637 26.1114 48.637 25.5534 48.637 24.9955C47.6945 24.9831 46.8133 24.9831 45.8831 24.9831ZM51.3786 24.9831C51.3786 26.2106 51.3664 27.3885 51.3786 28.554C51.3909 29.3599 52.0273 29.9923 52.7617 29.9799C53.5083 29.9675 54.1081 29.3475 54.1203 28.5292C54.1326 27.4505 54.1203 26.3718 54.1203 25.2807C54.1203 25.1815 54.0958 25.0823 54.0836 24.9831C53.1901 24.9831 52.3089 24.9831 51.3786 24.9831ZM56.8865 24.9831C56.8865 26.223 56.8742 27.4133 56.8865 28.6036C56.8987 29.3847 57.5352 29.9923 58.2695 29.9923C59.0039 29.9923 59.6036 29.3723 59.6404 28.5912C59.6648 27.9836 59.6404 27.3885 59.6404 26.7809C59.6404 26.1858 59.6404 25.5906 59.6404 24.9831C58.7102 24.9831 57.8289 24.9831 56.8865 24.9831ZM65.1604 25.0079C64.2424 25.0079 63.349 25.0079 62.4065 25.0079C62.4065 26.2478 62.3698 27.4877 62.4187 28.7152C62.4432 29.4467 63.1164 30.0047 63.8018 29.9923C64.5362 29.9675 65.1359 29.3599 65.1482 28.5664C65.1727 27.3885 65.1604 26.223 65.1604 25.0079Z" fill="white"/>
<path d="M58.2703 69.793C57.6339 69.483 57.2177 69.0243 57.2545 68.2431C57.2545 68.1563 57.1198 68.0076 57.0219 67.9704C56.006 67.5116 55.2961 66.7801 54.831 65.7633C54.7698 65.6394 54.5617 65.5278 54.4271 65.5278C53.3623 65.503 52.2852 65.5154 51.2203 65.5154C45.8472 65.5154 40.4862 65.5154 35.113 65.503C34.7336 65.503 34.5255 65.5774 34.3542 65.9617C33.9503 66.8669 33.2649 67.524 32.3591 67.9208C32.1143 68.0324 32.0164 68.1563 32.0164 68.4291C32.0287 69.1235 31.5758 69.4954 31.0128 69.793C30.768 69.793 30.5232 69.793 30.2784 69.793C29.4951 69.4334 29.1891 68.8259 29.2625 67.9704C29.2992 67.6232 29.2625 67.2636 29.2748 66.9041C29.287 66.1477 29.8133 65.5898 30.5477 65.5154C31.5024 65.4286 31.943 64.9822 32.0287 64.0275C32.0899 63.2339 32.6651 62.7256 33.5219 62.7256C39.0297 62.7256 44.5253 62.7256 50.0331 62.7256C51.9425 62.7256 53.8518 62.7256 55.7612 62.7256C56.6547 62.7256 57.1933 63.2215 57.2545 64.1143C57.3157 64.9202 57.8297 65.441 58.6375 65.5154C59.5065 65.5898 59.9961 66.1229 60.0084 66.9908C60.0084 67.3132 59.9839 67.648 60.0084 67.9704C60.0818 68.8259 59.788 69.4458 58.9925 69.793C58.7599 69.793 58.5151 69.793 58.2703 69.793Z" fill="white"/>
</g>
<defs>
<clipPath id="clip0_262_2029">
<rect width="47" height="47.6122" fill="white" transform="translate(21 22.1809)"/>
</clipPath>
</defs>
</svg>
