<svg width="89" height="91" viewBox="0 0 89 91" fill="none" xmlns="http://www.w3.org/2000/svg">
<ellipse cx="44.5" cy="45.7322" rx="44.5" ry="45.0796" fill="#E72D30"/>
<g clip-path="url(#clip0_262_2036)">
<path d="M13 47.1318C19.3909 44.1139 24.7334 39.6797 29.5765 34.5544C33.5042 30.4068 39.6455 30.0191 44.239 33.5933C44.472 33.7788 44.6884 33.9474 44.9047 34.116C45.7369 33.5596 46.5358 33.0538 47.3013 32.4806C47.4345 32.3794 47.4678 32.0085 47.4178 31.7893C47.1349 30.3731 47.2015 28.9906 47.6508 27.6081C49.2652 22.6007 55.0237 20.409 59.4841 23.1234C59.8835 23.3594 60.1165 23.3594 60.5159 23.1234C63.1788 21.5723 65.9083 21.4711 68.5878 22.9885C71.284 24.5228 72.682 26.9506 72.7486 30.0865C72.7985 32.43 71.8665 34.5038 70.4352 36.2741C69.2702 37.724 67.9387 39.0391 66.6239 40.4722C67.4062 41.0791 68.2716 41.7872 69.1703 42.4447C71.4338 44.1139 73.8304 45.5975 76.3934 46.7946C76.8095 46.9969 76.926 47.2329 76.9593 47.6882C77.0425 48.784 76.7429 49.5765 75.9441 50.4026C73.6972 52.6787 71.9497 55.3425 70.5184 58.2256C67.5726 64.1433 62.8959 67.8357 56.4717 69.1339C52.7436 69.8926 49.1154 69.4205 45.5871 68.0211C45.1877 67.8694 44.8715 67.8357 44.472 68.0042C35.0354 71.8652 24.4171 67.9031 19.7404 58.7145C17.9929 55.41 15.9625 52.3415 13.3329 49.6945C13.233 49.5933 13.1165 49.509 13 49.4079C13 48.6492 13 47.8905 13 47.1318ZM19.5907 50.9252C20.7224 52.9316 21.9207 54.8536 22.9525 56.8599C27.0301 64.8683 36.4501 67.9874 44.3555 63.8904C44.7882 63.6713 45.1045 63.6544 45.5538 63.8736C48.4996 65.3741 51.6285 66.0654 54.9072 65.5596C60.3994 64.7166 64.4104 61.7493 67.0234 56.7756C68.0053 54.9042 69.1703 53.1339 70.2521 51.313C70.3187 51.2119 70.3686 51.1107 70.4518 50.9758C70.352 50.959 70.2854 50.9252 70.2355 50.9252C67.9887 51.195 65.7419 51.4985 63.495 51.7177C62.1802 51.8357 60.8155 52.0043 59.534 51.7851C57.7033 51.4479 55.9224 50.8578 54.1749 50.2171C50.9462 49.0369 48.1335 49.5596 45.7535 52.1054C45.5039 52.3752 45.3042 52.6955 45.0712 52.999C44.5719 52.4932 44.2557 52.1392 43.9062 51.802C42.9076 50.8578 41.8091 50.0823 40.4444 49.7619C38.7302 49.3573 37.1158 49.7619 35.5014 50.3351C33.471 51.0601 31.4405 51.9368 29.2603 51.92C27.6292 51.9031 25.9982 51.6502 24.3672 51.4816C22.7362 51.313 21.1218 51.1107 19.5907 50.9252ZM45.0379 39.6797C43.9561 38.6176 42.9741 37.5554 41.8757 36.6281C40.7107 35.6334 39.346 35.0264 37.7815 34.9758C35.4348 34.9084 33.5209 35.8188 31.9232 37.5385C28.6445 41.0454 25.0662 44.2319 21.0719 46.8957C20.9554 46.98 20.8056 46.9969 20.6725 47.0306C20.739 47.0981 20.789 47.1486 20.8555 47.2161C23.0191 47.469 25.1827 47.7556 27.3463 47.9916C28.1452 48.0759 28.994 48.194 29.7596 48.0254C31.2907 47.6882 32.8052 47.2329 34.2865 46.6934C37.8814 45.3952 41.3431 45.3446 44.6717 47.5027C44.8215 47.6039 45.1544 47.5701 45.3208 47.469C47.8506 45.7999 50.6133 45.4121 53.5092 46.1033C55.0737 46.4742 56.5882 47.0981 58.136 47.587C59.301 47.9411 60.4826 48.2782 61.7475 48.1265C63.0623 47.9579 64.3938 47.823 65.7086 47.6544C66.8403 47.5196 67.9887 47.3678 69.187 47.2329C69.0871 47.1149 69.0705 47.0643 69.0205 47.0306C67.2564 45.6987 65.4922 44.3668 63.7447 43.018C63.4618 42.7988 63.2953 42.8831 63.0457 43.0348C62.0637 43.6924 61.0652 44.3499 60.0499 45.0074C56.0223 42.4447 52.0945 39.8146 49.2319 35.8526C47.4345 36.7798 46.2528 38.2804 45.0379 39.6797ZM59.9834 28.5017C59.4508 28.0465 58.7518 27.4226 58.0361 26.8157C56.6547 25.6355 55.1069 25.4332 53.5092 26.2256C51.8948 27.018 51.046 28.3668 51.046 30.2214C51.046 31.6882 51.7118 32.9021 52.5439 34.0148C54.5744 36.7124 57.2539 38.6176 60.1331 40.5733C61.9805 39.0728 63.8612 37.5891 65.6753 36.0212C66.9402 34.9084 67.972 33.5933 68.6045 31.9917C69.4033 29.9516 68.8208 27.7936 67.1399 26.5965C65.4256 25.3657 63.4118 25.5512 61.7142 27.0517C61.0818 27.5744 60.4327 28.1139 59.9834 28.5017Z" fill="white"/>
</g>
<defs>
<clipPath id="clip0_262_2036">
<rect width="63.9426" height="47.6122" fill="white" transform="translate(13 21.9263)"/>
</clipPath>
</defs>
</svg>
