<svg width="89" height="89" viewBox="0 0 89 89" fill="none" xmlns="http://www.w3.org/2000/svg">
<circle cx="44.5" cy="44.5" r="44.5" fill="#E72D30"/>
<path d="M24.2064 64.214L24.2067 64.2147C25.4025 66.8633 28.6785 68.248 33.2968 68.248H33.2974H33.298H33.2986H33.2992H33.2999H33.3005H33.3011H33.3017H33.3023H33.3029H33.3035H33.3041H33.3047H33.3053H33.3059H33.3065H33.3071H33.3077H33.3083H33.3089H33.3095H33.3101H33.3108H33.3114H33.312H33.3126H33.3132H33.3138H33.3144H33.315H33.3156H33.3162H33.3168H33.3174H33.318H33.3186H33.3192H33.3198H33.3204H33.321H33.3216H33.3222H33.3228H33.3234H33.324H33.3246H33.3252H33.3258H33.3264H33.327H33.3276H33.3282H33.3288H33.3294H33.33H33.3306H33.3312H33.3318H33.3324H33.333H33.3336H33.3342H33.3348H33.3354H33.336H33.3365H33.3371H33.3377H33.3383H33.3389H33.3395H33.3401H33.3407H33.3413H33.3419H33.3425H33.3431H33.3437H33.3443H33.3449H33.3455H33.3461H33.3467H33.3473H33.3479H33.3485H33.349H33.3496H33.3502H33.3508H33.3514H33.352H33.3526H33.3532H33.3538H33.3544H33.355H33.3556H33.3562H33.3568H33.3573H33.3579H33.3585H33.3591H33.3597H33.3603H33.3609H33.3615H33.3621H33.3627H33.3633H33.3638H33.3644H33.365H33.3656H33.3662H33.3668H33.3674H33.368H33.3686H33.3692H33.3697H33.3703H33.3709H33.3715H33.3721H33.3727H33.3733H33.3739H33.3745H33.375H33.3756H33.3762H33.3768H33.3774H33.378H33.3786H33.3792H33.3798H33.3803H33.3809H33.3815H33.3821H33.3827H33.3833H33.3839H33.3845H33.385H33.3856H33.3862H33.3868H33.3874H33.388H33.3886H33.3892H33.3897H33.3903H33.3909H33.3915H33.3921H33.3927H33.3933H33.3938H33.3944H33.395H33.3956H33.3962H33.3968H33.3974H33.3979H33.3985H33.3991H33.3997H33.4003H33.4009H33.4015H33.402H33.4026H33.4032H33.4038H33.4044H33.405H33.4055H33.4061H33.4067H33.4073H33.4079H33.4085H33.4091H33.4096H33.4102H33.4108H33.4114H33.412H33.4126H33.4131H33.4137H33.4143H33.4149H33.4155H33.4161H33.4166H33.4172H33.4178H33.4184H33.419H33.4196H33.4201H33.4207H33.4213H33.4219H33.4225H33.4231H33.4236H33.4242H33.4248H33.4254H33.426H33.4266H33.4271H33.4277H33.4283H33.4289H33.4295H33.4301H33.4306H33.4312H33.4318H33.4324H33.433H33.4336H33.4341H33.4347H33.4353H33.4359H33.4365H33.4371H33.4376H33.4382H33.4388H33.4394H33.44H33.4406H33.4411H33.4417H33.4423H33.4429H33.4435H33.444H33.4446H33.4452H33.4458H33.4464H33.447H33.4475H33.4481H33.4487H33.4493H33.4499H33.4505H33.451H33.4516H33.4522H33.4528H33.4534H33.454H33.4545H33.4551H33.4557H33.4563H33.4569H33.4574H33.458H33.4586H33.4592H33.4598H33.4604H33.4609H33.4615H33.4621H33.4627H33.4633H33.4639H33.4644H33.465H33.4656H33.4662H33.4668H33.4674H33.4679H33.4685H33.4691H33.4697H33.4703H33.4709H33.4714H33.472H33.4726H33.4732H33.4738H33.4744H33.4749H33.4755H33.4761H33.4767H33.4773H33.4779H33.4784H33.479H33.4796H33.4802H33.4808H33.4814H33.4819H33.4825H33.4831H33.4837H33.4843H33.4849H33.4854H33.486H33.4866H33.4872H33.4878H33.4884H33.489H33.4895H33.4901H33.4907H33.4913H33.4919H33.4925H33.493H33.4936H33.4942H33.4948H33.4954H33.496H33.4966H33.4971H33.4977H33.4983H33.4989H33.4995H33.5001H33.5007H33.5012H33.5018H33.5024H33.503H33.5036H33.5042H33.5048H33.5053H33.5059H33.5065H33.5071H33.5077H33.5083H33.5089H33.5094H33.51H33.5106H33.5112H33.5118H33.5124H33.513H33.5136H33.5141H33.5147H33.5153H33.5159H33.5165H33.5171H33.5177H33.5183H33.5188H33.5194H33.52H33.5206H33.5212H33.5218H33.5224H33.523H33.5236H33.5241H33.5247H33.5253H33.5259H33.5265H33.5271H33.5277H33.5283H33.5289H33.5295H33.53H33.5306H33.5312H33.5318H33.5324H33.533H33.5336H33.5342H33.5348H33.5354H33.536H33.5365H33.5371H33.5377H33.5383H33.5389H33.5395H33.5401H33.5407H33.5413H33.5419H33.5425H33.5431H33.5436H33.5442H33.5448H33.5454H33.546H33.5466H33.5472H33.5478H33.5484H33.549H33.5496H33.5502H33.5508H33.5514H33.552H33.5526H33.5532H33.5537H33.5543H33.5549H33.5555H33.5561H33.5567H33.5573H33.5579H33.5585H33.5591H33.5597H33.5603H33.5609H33.5615H33.5621H33.5627H33.5633H33.5639H33.5645H33.5651H33.5657H33.5663H33.5669H33.5675H33.5681H33.5687H33.5693H33.5699H33.5705H33.5711H33.5717H33.5723H33.5729H33.5735H33.5741H33.5747H33.5753H33.5759H33.5765H33.5771H33.5777H33.5783H33.5789H33.5795H33.5801H33.5807H33.5813H33.5819H33.5825H33.5831H33.5837H33.5843H33.5849H33.5855H33.5861H33.5867H33.5873H33.5879H33.5885H33.5891H33.5897H33.5903H33.5909H33.5915H33.5922H33.5928H33.5934H33.594H33.5946H33.5952H33.5958H33.5964H33.597H33.5976H33.5982H33.5988L33.5994 68.248L33.6028 68.248C38.062 68.1879 43.4037 66.9019 48.6396 64.6217C53.8839 62.3417 58.4539 59.3227 61.5003 56.1118L61.5003 56.1118C64.7607 52.6743 66.0046 49.2739 64.7894 46.56C63.5751 43.8481 60.182 42.4662 55.402 42.526C50.9422 42.5776 45.6003 43.8723 40.3561 46.1523C35.1119 48.4324 30.5419 51.4513 27.4955 54.6622L27.4954 54.6622C24.2351 58.0997 22.9912 61.5001 24.2064 64.214ZM26.7204 63.108L26.7199 63.1071C26.3785 62.3553 26.427 61.3862 26.8953 60.2497C27.3629 59.1149 28.2386 57.8414 29.5008 56.5117C32.2904 53.5829 36.5394 50.7768 41.4634 48.6347C46.3956 46.4929 51.3591 45.2878 55.4411 45.237H55.4416H55.4421H55.4426H55.4431H55.4436H55.4442H55.4447H55.4452H55.4457H55.4462H55.4467H55.4472H55.4477H55.4482H55.4487H55.4492H55.4498H55.4503H55.4508H55.4513H55.4518H55.4523H55.4528H55.4533H55.4538H55.4544H55.4549H55.4554H55.4559H55.4564H55.4569H55.4574H55.4579H55.4585H55.459H55.4595H55.46H55.4605H55.461H55.4615H55.4621H55.4626H55.4631H55.4636H55.4641H55.4646H55.4651H55.4657H55.4662H55.4667H55.4672H55.4677H55.4682H55.4688H55.4693H55.4698H55.4703H55.4708H55.4713H55.4719H55.4724H55.4729H55.4734H55.4739H55.4744H55.475H55.4755H55.476H55.4765H55.477H55.4776H55.4781H55.4786H55.4791H55.4796H55.4802H55.4807H55.4812H55.4817H55.4822H55.4828H55.4833H55.4838H55.4843H55.4848H55.4854H55.4859H55.4864H55.4869H55.4874H55.488H55.4885H55.489H55.4895H55.4901H55.4906H55.4911H55.4916H55.4921H55.4927H55.4932H55.4937H55.4942H55.4948H55.4953H55.4958H55.4963H55.4969H55.4974H55.4979H55.4984H55.499H55.4995H55.5H55.5005H55.5011H55.5016H55.5021H55.5026H55.5032H55.5037H55.5042H55.5047H55.5053H55.5058H55.5063H55.5068H55.5074H55.5079H55.5084H55.5089H55.5095H55.51H55.5105H55.511H55.5116H55.5121H55.5126H55.5131H55.5137H55.5142H55.5147H55.5153H55.5158H55.5163H55.5168H55.5174H55.5179H55.5184H55.5189H55.5195H55.52H55.5205H55.5211H55.5216H55.5221H55.5226H55.5232H55.5237H55.5242H55.5248H55.5253H55.5258H55.5263H55.5269H55.5274H55.5279H55.5285H55.529H55.5295H55.5301H55.5306H55.5311H55.5316H55.5322H55.5327H55.5332H55.5338H55.5343H55.5348H55.5353H55.5359H55.5364H55.5369H55.5375H55.538H55.5385H55.5391H55.5396H55.5401H55.5406H55.5412H55.5417H55.5422H55.5428H55.5433H55.5438H55.5444H55.5449H55.5454H55.546H55.5465H55.547H55.5475H55.5481H55.5486H55.5491H55.5497H55.5502H55.5507H55.5513H55.5518H55.5523H55.5529H55.5534H55.5539H55.5545H55.555H55.5555H55.556H55.5566H55.5571H55.5576H55.5582H55.5587H55.5592H55.5598H55.5603H55.5608H55.5614H55.5619H55.5624H55.563H55.5635H55.564H55.5646H55.5651H55.5656H55.5662H55.5667H55.5672H55.5677H55.5683H55.5688H55.5693H55.5699H55.5704H55.5709H55.5715H55.572H55.5725H55.5731H55.5736H55.5741H55.5747H55.5752H55.5757H55.5763H55.5768H55.5773H55.5779H55.5784H55.5789H55.5795H55.58H55.5805H55.581H55.5816H55.5821H55.5826H55.5832H55.5837H55.5842H55.5848H55.5853H55.5858H55.5864H55.5869H55.5874H55.588H55.5885H55.589H55.5896H55.5901H55.5906H55.5911H55.5917H55.5922H55.5927H55.5933H55.5938H55.5943H55.5949H55.5954H55.5959H55.5965H55.597H55.5975H55.5981H55.5986H55.5991H55.5996H55.6002H55.6007H55.6012H55.6018H55.6023H55.6028H55.6034H55.6039H55.6044H55.605H55.6055H55.606H55.6065H55.6071H55.6076H55.6081H55.6087H55.6092H55.6097H55.6103H55.6108H55.6113H55.6119H55.6124H55.6129H55.6134H55.614H55.6145H55.615H55.6156H55.6161H55.6166H55.6171H55.6177H55.6182H55.6187H55.6193H55.6198H55.6203H55.6208H55.6214H55.6219H55.6224H55.623H55.6235H55.624H55.6246H55.6251H55.6256H55.6261H55.6267H55.6272H55.6277H55.6282H55.6288H55.6293H55.6298H55.6304H55.6309H55.6314H55.6319H55.6325H55.633H55.6335H55.634H55.6346H55.6351H55.6356H55.6362H55.6367H55.6372H55.6377H55.6383H55.6388H55.6393H55.6398H55.6404H55.6409H55.6414H55.6419H55.6425H55.643H55.6435H55.644H55.6446H55.6451H55.6456H55.6461H55.6467H55.6472H55.6477H55.6482H55.6488H55.6493H55.6498H55.6503H55.6509H55.6514H55.6519H55.6524H55.653H55.6535H55.654H55.6545H55.655H55.6556H55.6561H55.6566H55.6571H55.6577H55.6582H55.6587H55.6592H55.6597H55.6603H55.6608H55.6613H55.6618H55.6624H55.6629H55.6634H55.6639H55.6644H55.665H55.6655H55.666H55.6665H55.667H55.6676H55.6681H55.6686H55.6691H55.6696H55.6702H55.6707H55.6712H55.6717H55.6722H55.6727H55.6733H55.6738H55.6743H55.6748H55.6753H55.6759H55.6764H55.6769H55.6774H55.6779H55.6784H55.679H55.6795H55.68H55.6805H55.681H55.6815H55.6821H55.6826H55.6831H55.6836H55.6841H55.6846H55.6851H55.6857H55.6862H55.6867H55.6872H55.6877H55.6882H55.6887H55.6893H55.6898H55.6903H55.6908H55.6913H55.6918H55.6923H55.6928H55.6934H55.6939H55.6944H55.6949H55.6954H55.6959H55.6964H55.6969H55.6974H55.698H55.6985H55.699H55.6995H55.7H55.7005H55.701H55.7015H55.702H55.7025H55.703H55.7036H55.7041H55.7046H55.7051H55.7056H55.7061H55.7066H55.7071H55.7076C57.4871 45.237 58.9722 45.4687 60.0947 45.8927C61.2192 46.3173 61.9538 46.9239 62.2842 47.6577L62.2845 47.6585C62.6259 48.4102 62.5774 49.3794 62.1091 50.5159C61.6416 51.6506 60.7658 52.9241 59.5036 54.2539C56.714 57.1826 52.465 59.9888 47.541 62.1308C42.6083 64.2729 37.6443 65.478 33.562 65.5286C31.7088 65.5496 30.1609 65.3281 28.9921 64.9037C27.821 64.4784 27.0584 63.8609 26.7204 63.108Z" fill="white" stroke="white" stroke-width="0.5"/>
<path d="M33.8047 47.8465L33.8954 47.7924L33.9199 47.6896C34.802 43.9836 36.7326 39.8017 39.4435 35.7727C42.4218 31.3534 45.9355 27.7073 49.3495 25.5025L49.3501 25.502C51.4507 24.1359 53.3128 23.459 54.7474 23.459C55.426 23.459 55.991 23.6113 56.4539 23.9041C57.154 24.3599 57.6434 25.2041 57.8716 26.4083C58.0995 27.6118 58.0602 29.1476 57.7266 30.9356L57.7265 30.9359C57.1451 34.0726 55.7313 37.6257 53.6835 41.1714L53.4669 41.5464H53.9H53.9002H53.9003H53.9005H53.9006H53.9008H53.9009H53.9011H53.9013H53.9014H53.9016H53.9017H53.9019H53.902H53.9022H53.9023H53.9025H53.9026H53.9028H53.903H53.9031H53.9033H53.9034H53.9036H53.9037H53.9039H53.904H53.9042H53.9044H53.9045H53.9047H53.9048H53.905H53.9051H53.9053H53.9055H53.9056H53.9058H53.9059H53.9061H53.9063H53.9064H53.9066H53.9067H53.9069H53.9071H53.9072H53.9074H53.9075H53.9077H53.9079H53.908H53.9082H53.9083H53.9085H53.9087H53.9088H53.909H53.9092H53.9093H53.9095H53.9096H53.9098H53.91H53.9101H53.9103H53.9105H53.9106H53.9108H53.9109H53.9111H53.9113H53.9114H53.9116H53.9118H53.9119H53.9121H53.9123H53.9124H53.9126H53.9128H53.9129H53.9131H53.9133H53.9134H53.9136H53.9138H53.9139H53.9141H53.9142H53.9144H53.9146H53.9148H53.9149H53.9151H53.9153H53.9154H53.9156H53.9158H53.9159H53.9161H53.9163H53.9164H53.9166H53.9168H53.9169H53.9171H53.9173H53.9174H53.9176H53.9178H53.9179H53.9181H53.9183H53.9185H53.9186H53.9188H53.919H53.9191H53.9193H53.9195H53.9196H53.9198H53.92H53.9202H53.9203H53.9205H53.9207H53.9208H53.921H53.9212H53.9213H53.9215H53.9217H53.9219H53.922H53.9222H53.9224H53.9226H53.9227H53.9229H53.9231H53.9232H53.9234H53.9236H53.9238H53.9239H53.9241H53.9243H53.9244H53.9246H53.9248H53.925H53.9251H53.9253H53.9255H53.9257H53.9258H53.926H53.9262H53.9264H53.9265H53.9267H53.9269H53.927H53.9272H53.9274H53.9276H53.9277H53.9279H53.9281H53.9283H53.9284H53.9286H53.9288H53.929H53.9291H53.9293H53.9295H53.9297H53.9298H53.93H53.9302H53.9304H53.9305H53.9307H53.9309H53.9311H53.9312H53.9314H53.9316H53.9318H53.9319H53.9321H53.9323H53.9325H53.9327H53.9328H53.933H53.9332H53.9334H53.9335H53.9337H53.9339H53.9341H53.9342H53.9344H53.9346H53.9348H53.9349H53.9351H53.9353H53.9355H53.9356H53.9358H53.936H53.9362H53.9364H53.9365H53.9367H53.9369H53.9371H53.9372H53.9374H53.9376H53.9378H53.9379H53.9381H53.9383H53.9385H53.9387H53.9388H53.939H53.9392H53.9394H53.9395H53.9397H53.9399H53.9401H53.9402H53.9404H53.9406H53.9408H53.941H53.9411H53.9413H53.9415H53.9417H53.9418H53.942H53.9422H53.9424H53.9426H53.9427H53.9429H53.9431H53.9433H53.9434H53.9436H53.9438H53.944H53.9441H53.9443H53.9445H53.9447H53.9449H53.945H53.9452H53.9454H53.9456H53.9457H53.9459H53.9461H53.9463H53.9465H53.9466H53.9468H53.947H53.9472H53.9473H53.9475H53.9477H53.9479H53.948H53.9482H53.9484H53.9486H53.9488H53.9489H53.9491H53.9493H53.9495H53.9496H53.9498H53.95H53.9502H53.9503H53.9505H53.9507H53.9509H53.9511H53.9512H53.9514H53.9516H53.9518H53.9519H53.9521H53.9523H53.9525H53.9526H53.9528H53.953H53.9532H53.9533H53.9535H53.9537H53.9539H53.954H53.9542H53.9544H53.9546H53.9548H53.9549H53.9551H53.9553H53.9555H53.9556H53.9558H53.956H53.9562H53.9563H53.9565H53.9567H53.9569H53.957H53.9572H53.9574H53.9576H53.9577H53.9579H53.9581H53.9583H53.9584H53.9586H53.9588H53.959H53.9591H53.9593H53.9595H53.9596H53.9598H53.96H53.9602H53.9603H53.9605H53.9607H53.9609H53.961H53.9612H53.9614H53.9616H53.9617H53.9619H53.9621H53.9622H53.9624H53.9626H53.9628H53.9629H53.9631H53.9633H53.9635H53.9636H53.9638H53.964H53.9641H53.9643H53.9645H53.9647H53.9648H53.965H53.9652H53.9653H53.9655H53.9657H53.9659H53.966H53.9662H53.9664H53.9665H53.9667H53.9669H53.9671H53.9672H53.9674H53.9676H53.9677H53.9679H53.9681H53.9682H53.9684H53.9686H53.9687H53.9689H53.9691H53.9693H53.9694H53.9696H53.9698H53.9699H53.9701H53.9703H53.9704H53.9706H53.9708H53.9709H53.9711H53.9713H53.9714H53.9716H53.9718H53.9719H53.9721H53.9723H53.9724H53.9726H53.9728H53.9729H53.9731H53.9733H53.9734H53.9736H53.9738H53.9739H53.9741H53.9743H53.9744H53.9746H53.9748H53.9749H53.9751H53.9752H53.9754H53.9756H53.9757H53.9759H53.9761H53.9762H53.9764H53.9766H53.9767H53.9769H53.977H53.9772H53.9774H53.9775H53.9777H53.9779H53.978H53.9782H53.9783H53.9785H53.9787H53.9788H53.979H53.9791H53.9793H53.9795H53.9796H53.9798H53.9799H53.9801H53.9803H53.9804H53.9806H53.9807H53.9809H53.9811H53.9812H53.9814H53.9815H53.9817H53.9818H53.982H53.9822H53.9823H53.9825H53.9826H53.9828H53.9829H53.9831H53.9833H53.9834H53.9836H53.9837H53.9839H53.984H53.9842H53.9843H53.9845H53.9847H53.9848H53.985H53.9851H53.9853H53.9854H53.9856H53.9857H53.9859H53.986H53.9862H53.9863L53.9865 41.5464L53.989 41.5464C54.8371 41.538 55.6393 41.5717 56.3793 41.6554L56.5463 41.6743L56.6268 41.5268C58.5212 38.0568 59.8377 34.5708 60.4229 31.4355L60.4229 31.4353C61.284 26.8074 60.4721 23.2815 57.9618 21.6474C55.4547 20.0155 51.8417 20.6459 47.8503 23.2288L47.8502 23.2288C44.1232 25.6411 40.3308 29.5629 37.1613 34.2688C33.9915 38.9664 31.8047 43.9385 30.9928 48.2573L30.9928 48.2573L30.9924 48.2597C30.9315 48.6019 30.8793 48.9267 30.8275 49.2493L30.8274 49.2503L30.735 49.826L31.2157 49.496C32.0406 48.9298 32.9092 48.38 33.8047 47.8465Z" fill="white" stroke="white" stroke-width="0.5"/>
</svg>
