<svg width="89" height="89" viewBox="0 0 89 89" fill="none" xmlns="http://www.w3.org/2000/svg">
<circle cx="44.5" cy="44.5" r="44.5" fill="#E72D30"/>
<path d="M46.1427 68C45.0416 68 43.9404 68 42.8393 68C42.7047 67.9755 42.5824 67.9266 42.4478 67.9144C41.4934 67.7676 40.5391 67.6942 39.597 67.4862C35.1802 66.532 31.3385 64.4768 28.1085 61.3083C24.5236 57.8096 22.2602 53.5891 21.367 48.6468C21.2202 47.8271 21.1223 46.9952 21 46.1634C21 45.0624 21 43.9614 21 42.8604C21.0979 42.1386 21.1713 41.4046 21.3059 40.6828C22.3581 34.7374 25.221 29.8196 29.9682 26.0884C35.5228 21.721 41.8727 20.1429 48.8344 21.4397C55.2577 22.6263 60.3229 26.0517 63.9812 31.4466C67.4559 36.5602 68.6427 42.2487 67.6761 48.3409C66.9665 52.7939 65.0701 56.7208 62.0603 60.0728C58.4632 64.0975 53.9975 66.6421 48.6753 67.633C47.8311 67.7798 46.9869 67.8777 46.1427 68ZM48.6142 30.7493C48.6142 30.945 48.6142 31.0918 48.6142 31.2386C48.6142 33.0614 48.6019 34.8719 48.6264 36.6947C48.6264 36.9516 48.7365 37.2697 48.9078 37.4654C52.0766 41.4291 55.2699 45.3804 58.4388 49.3318C59.442 50.5919 59.8091 52.0354 59.5644 53.6258C59.4053 54.6534 58.9526 55.5342 58.3898 56.2682C59.0016 56.8798 59.5766 57.4548 60.1517 58.0298C67.2846 50.0781 67.2479 36.6825 57.9127 28.7185C48.969 21.1338 37.0155 23.1279 30.9347 28.9387C33.8833 31.887 36.832 34.8352 39.7928 37.7957C40.1598 37.4532 40.3923 37.0862 40.3801 36.5112C40.3311 35.1044 40.3678 33.6975 40.3678 32.2907C40.3678 31.7891 40.3678 31.2876 40.3678 30.7493C39.8662 30.7493 39.4135 30.7615 38.9608 30.7493C38.19 30.7248 37.615 30.1254 37.615 29.3547C37.6272 28.6084 38.19 28.009 38.9486 27.9968C42.6435 27.9845 46.3507 27.9845 50.0456 27.9968C50.792 27.9968 51.367 28.6084 51.3792 29.3547C51.3792 30.1254 50.8042 30.7248 50.0334 30.7371C49.5807 30.7493 49.1403 30.7493 48.6142 30.7493ZM58.1084 60.0728C57.4477 59.4122 56.8115 58.776 56.1508 58.1521C56.053 58.0665 55.8572 58.0298 55.7104 58.042C55.1721 58.1032 54.6215 58.25 54.0831 58.25C47.6476 58.2622 41.212 58.2867 34.7765 58.25C32.5497 58.2377 30.8858 57.149 29.907 55.1549C28.916 53.1364 29.1362 51.1546 30.5065 49.3808C32.3662 46.9708 34.3116 44.6342 36.208 42.2609C36.8075 41.5147 37.407 40.7684 37.9453 40.0956C34.8744 37.025 31.8401 33.9911 28.8181 30.9695C21.8809 38.7989 21.832 51.436 30.1028 59.3999C38.5204 67.5107 50.8898 66.6299 58.1084 60.0728ZM53.4714 55.5219C53.4102 55.4241 53.398 55.3874 53.3735 55.3507C51.1957 53.1609 49.0057 50.9833 46.8156 48.8058C46.7177 48.7079 46.522 48.6345 46.3752 48.6345C42.5701 48.6223 38.7651 48.6223 34.96 48.6345C34.801 48.6345 34.6052 48.7202 34.4951 48.8425C33.8589 49.601 33.2227 50.3717 32.6231 51.1668C32.1949 51.7296 32.0114 52.4024 32.1215 53.1119C32.354 54.5922 33.4674 55.5097 35.009 55.5219C39.9029 55.5219 44.7969 55.5219 49.6786 55.5219C50.9265 55.5219 52.1745 55.5219 53.4714 55.5219ZM43.1084 30.7615C43.1084 30.9573 43.1084 31.1285 43.1084 31.2998C43.1084 33.3672 43.1329 35.4225 43.0962 37.4899C43.084 37.8691 42.9005 38.2851 42.7047 38.6154C42.4478 39.0435 42.093 39.4105 41.7748 39.8142C41.9217 39.961 42.0318 40.0834 42.1419 40.2057C43.7447 41.8083 45.3719 43.3742 46.9257 45.0134C47.5497 45.6863 48.1859 45.9921 49.1035 45.9065C50.0701 45.8208 51.0367 45.8942 52.0889 45.8942C51.9788 45.7352 51.9176 45.6618 51.8564 45.5762C49.9967 43.2641 48.137 40.9642 46.3018 38.6398C46.0571 38.334 45.898 37.8691 45.898 37.4777C45.8613 35.4102 45.8735 33.355 45.8735 31.2876C45.8735 31.1285 45.8735 30.9573 45.8735 30.7738C44.9437 30.7615 44.0628 30.7615 43.1084 30.7615ZM50.7186 48.6345C52.615 50.5307 54.4869 52.4146 56.3588 54.2864C57.0562 53.4545 57.0685 52.1333 56.3221 51.1546C55.7349 50.3717 55.1109 49.6254 54.4869 48.867C54.4013 48.7569 54.2422 48.6468 54.1199 48.6468C52.982 48.6345 51.8442 48.6345 50.7186 48.6345ZM39.9641 42.053C38.9731 43.2885 37.9576 44.5486 36.9054 45.8575C39.2545 45.8575 41.5301 45.8575 43.7569 45.8575C42.5089 44.5975 41.2487 43.3375 39.9641 42.053Z" fill="white"/>
</svg>
