<svg width="89" height="91" viewBox="0 0 89 91" fill="none" xmlns="http://www.w3.org/2000/svg">
<ellipse cx="44.5" cy="45.2417" rx="44.5" ry="45.0796" fill="#E72D30"/>
<g clip-path="url(#clip0_262_2022)">
<path d="M44.041 21.4355C44.282 21.4355 44.5344 21.4355 44.7754 21.4355C45.0278 21.6099 45.2917 21.7609 45.5212 21.9585C49.021 25.0497 52.0044 28.571 54.1846 32.743C55.9402 36.1248 57.0073 39.6809 56.7893 43.5624C56.7778 43.6786 56.8008 43.7948 56.8122 43.9575C58.3957 43.8529 59.9219 43.9342 61.1037 45.1661C62.2742 46.3979 62.561 47.8622 62.1135 49.524C62.7446 49.524 63.3069 49.524 63.8691 49.524C64.9018 49.5357 65.8083 49.8727 66.6001 50.5583C67.3918 51.244 67.782 52.1504 68.0115 53.1499C68.0115 53.5217 68.0115 53.8936 68.0115 54.2655C67.9885 54.3236 67.9541 54.3817 67.9426 54.4398C67.5754 56.52 65.7395 57.9959 63.5937 57.8913C63.1118 57.8681 62.6299 57.8913 62.1479 57.8913C62.1479 57.9959 62.1365 58.0424 62.1479 58.0889C62.9626 60.6804 60.989 63.6206 57.8564 63.4695C57.4548 63.4463 57.0417 63.4695 56.6401 63.4695C56.6401 63.5741 56.6286 63.6322 56.6401 63.6671C57.4548 66.2702 55.4697 69.1058 52.3945 69.0593C47.2424 68.9896 42.0903 69.0709 36.9382 69.0245C35.7104 69.0128 34.4597 68.8966 33.2549 68.6293C27.1045 67.3045 21.9983 62.2725 21.1492 55.7995C20.7361 52.7083 21.1606 49.7449 22.5376 46.9558C24.4997 42.9697 27.6094 40.3317 31.8091 39.0068C32.1189 38.9139 32.2451 38.7628 32.291 38.4374C32.5205 36.915 32.991 35.4624 33.5876 34.0562C34.8957 31.0114 36.7776 28.3502 39.0036 25.9446C40.5527 24.2944 42.1362 22.6906 44.041 21.4355ZM45.4868 41.1451C42.5837 41.1451 39.7265 41.1335 36.8694 41.1568C35.9743 41.1684 35.0679 41.2149 34.1728 41.3427C31.7517 41.6913 29.6289 42.7605 27.8274 44.4223C25.3948 46.6885 24.0408 49.5008 23.8113 52.8477C23.5932 56.0784 24.4883 58.9489 26.5307 61.4126C29.2388 64.6897 32.7844 66.2237 36.9726 66.247C42.1018 66.2702 47.2195 66.2586 52.3486 66.247C52.5322 66.247 52.7158 66.247 52.8994 66.2121C53.7944 66.0262 54.2878 65.1197 53.9206 64.3062C53.6452 63.6903 53.1289 63.4579 52.4748 63.4579C49.8701 63.4695 47.2768 63.4579 44.6721 63.4695C44.1672 63.4695 43.7541 63.3301 43.364 63.0279C41.2182 61.3428 39.2446 59.4718 37.5234 57.3451C34.7695 53.9517 32.7041 50.2446 32.1763 45.7936C32.0386 44.6315 32.5664 43.9459 33.7368 43.9459C36.3186 43.9459 38.9118 43.9575 41.4936 43.9459C43.3755 43.9226 44.9819 42.807 45.4868 41.1451ZM42.9853 38.3444C42.9853 34.184 42.9853 30.0701 42.9853 25.8632C39.3708 29.4426 36.2956 33.2543 35.1023 38.3444C37.7759 38.3444 40.3691 38.3444 42.9853 38.3444ZM43.0083 46.7117C40.3691 46.7117 37.7529 46.7117 35.1367 46.7117C35.5727 50.2329 40.1282 57.3103 43.0083 58.9953C43.0083 54.8698 43.0083 50.7559 43.0083 46.7117ZM45.7851 47.4671C45.8884 47.3974 45.9343 47.3741 45.9573 47.3509C48.4817 44.8058 50.9946 42.2492 53.5075 39.6925C53.6223 39.5763 53.6682 39.2974 53.6338 39.123C53.2551 37.2985 52.5322 35.5902 51.6831 33.9516C51.4192 33.4519 51.1323 32.9754 50.834 32.4408C49.2505 34.0562 47.7243 35.6251 46.1753 37.1474C45.8081 37.5077 45.7278 37.868 45.831 38.3561C46.2671 38.3561 46.6916 38.3561 47.1162 38.3561C47.9768 38.3677 48.5505 38.9487 48.5276 39.8319C48.4931 41.9121 47.6784 43.6321 46.1638 45.015C46.0032 45.1545 45.8081 45.3636 45.7966 45.5496C45.7507 46.1539 45.7851 46.7814 45.7851 47.4671ZM54.001 43.2253C53.8977 43.3067 53.8518 43.3299 53.8174 43.3648C51.2012 46.0144 48.5735 48.6641 45.9687 51.3253C45.854 51.4415 45.7851 51.674 45.7851 51.8483C45.7737 54.0447 45.7737 56.2527 45.7737 58.4491C45.7737 58.5654 45.7966 58.6816 45.8081 58.821C45.8884 58.7629 45.9228 58.7513 45.9573 58.7164C48.3669 56.2411 50.4783 53.545 52.0159 50.4305C53.1289 48.176 53.8862 45.8285 54.001 43.2253ZM52.5781 55.0906C56.3877 55.0906 60.1513 55.1022 63.9035 55.079C64.6838 55.079 65.269 54.3933 65.2461 53.6612C65.2231 52.9174 64.6264 52.3131 63.8232 52.3131C60.7021 52.3015 57.5925 52.3015 54.4714 52.3131C54.3452 52.3131 54.1616 52.3945 54.1042 52.4875C53.5879 53.3242 53.1059 54.1725 52.5781 55.0906ZM48.0456 60.6223C48.1145 60.6456 48.1604 60.6572 48.1948 60.6572C51.4995 60.6572 54.8042 60.6688 58.0974 60.6572C58.9236 60.6572 59.5317 60.0413 59.5317 59.2743C59.5432 58.4956 58.9121 57.8797 58.0744 57.8681C55.6304 57.8565 53.1863 57.8681 50.7422 57.8681C50.6274 57.8681 50.4668 57.8797 50.4094 57.9494C49.6177 58.8443 48.8489 59.7275 48.0456 60.6223ZM49.216 29.9655C48.1374 28.6988 47.0244 27.3972 45.8999 26.084C45.8655 26.1073 45.8425 26.1305 45.8081 26.1538C45.8081 28.5942 45.8081 31.0231 45.8081 33.417C46.9097 32.3014 48.0227 31.1625 49.216 29.9655ZM55.4927 49.5124C56.4221 49.5124 57.3056 49.5357 58.1892 49.5008C58.9695 49.4776 59.5661 48.8268 59.5547 48.0946C59.5432 47.3741 58.958 46.7698 58.2007 46.7233C57.6499 46.7001 57.0991 46.7001 56.5483 46.7233C56.445 46.7233 56.2959 46.8395 56.2615 46.9325C55.9975 47.7692 55.7566 48.6176 55.4927 49.5124Z" fill="white"/>
</g>
<defs>
<clipPath id="clip0_262_2022">
<rect width="47" height="47.6122" fill="white" transform="translate(21 21.4355)"/>
</clipPath>
</defs>
</svg>
