<svg xmlns="http://www.w3.org/2000/svg" xml:space="preserve" style="enable-background:new 0 0 512.001 512.001" viewBox="0 0 512.001 512.001"><path d="m366.398 70.071.893 84.849c.121 12.242 12.842 20.132 23.761 15.063l10.92-5.036 100.291-46.193a16.755 16.755 0 0 0-.267-30.549L394.022 40.772l-27.624 29.299z" style="fill:#598bc8"/><path d="M391.633 39.544c-5.902-2.513-13.296-1.331-18.256 3.629L272.885 143.664c-6.543 6.543-6.543 17.151 0 23.683l100.492 100.492a16.758 16.758 0 0 0 11.847 4.913c2.155 0 4.332-.413 6.409-1.284a16.728 16.728 0 0 0 10.34-15.465V55.019a16.76 16.76 0 0 0-10.34-15.475z" style="fill:#649ce2"/><path d="M201.882 446.163v-89.098a16.776 16.776 0 0 0-7.783-14.002 16.762 16.762 0 0 0-15.978-1.061l-10.63 4.902-100.57 46.338a16.754 16.754 0 0 0-9.748 15.353 16.759 16.759 0 0 0 10.016 15.185l109.101 47.935 25.592-25.552z" style="fill:#598bc8"/><path d="M296.568 344.648 196.076 244.156a16.728 16.728 0 0 0-18.256-3.629 16.744 16.744 0 0 0-10.328 15.476v200.984a16.694 16.694 0 0 0 8.799 14.728c1.743.99 4.675 2.021 7.939 2.021 8.241 0 11.849-4.915 17.675-10.741l94.663-94.663c6.543-6.533 6.543-17.141 0-23.684z" style="fill:#649ce2"/><path d="M284.728 373.241a16.692 16.692 0 0 1-11.841-4.907L4.909 100.355a16.737 16.737 0 0 1-3.631-18.253A16.74 16.74 0 0 1 16.75 71.765h200.984c4.443 0 8.701 1.766 11.841 4.907l167.487 167.487c6.542 6.536 6.542 17.146 0 23.684L296.57 368.334a16.694 16.694 0 0 1-11.842 4.907z" style="fill:#8bcafc"/><path d="M284.728 373.241c4.285 0 8.571-1.636 11.841-4.907l50.246-50.246L100.493 71.765H16.75A16.737 16.737 0 0 0 1.278 82.102a16.742 16.742 0 0 0 3.631 18.254l267.979 267.979a16.693 16.693 0 0 0 11.84 4.906z" style="fill:#7ebcef"/></svg>
