<svg width="694" height="704" viewBox="0 0 694 704" fill="none" xmlns="http://www.w3.org/2000/svg">
	<mask id="mask0_133_16" style="mask-type:luminance" maskUnits="userSpaceOnUse" x="0" y="0" width="694" height="704">
		<path
			d="M610.87 352.188C662.128 352.188 704.876 309.949 691.505 260.486C678.943 214.025 656.882 170.313 626.345 132.255C576.289 69.8726 506.448 26.4156 428.353 9.05811C350.257 -8.29935 268.574 1.48033 196.788 36.7828C125.003 72.0854 67.4053 130.8 33.5039 203.235C-0.397517 275.67 -8.57623 357.495 10.3179 435.203C29.212 512.911 74.0491 581.856 137.429 630.658C200.808 679.459 278.94 705.198 358.928 703.628C407.725 702.671 455.433 691.586 499.163 671.449C545.719 650.011 550.761 590.139 517.911 550.807C485.061 511.475 425.421 509.627 374.64 516.605C368.25 517.483 361.788 517.992 355.285 518.119C317.519 518.861 280.629 506.708 250.704 483.666C220.781 460.625 199.611 428.073 190.69 391.383C181.77 354.693 185.631 316.06 201.638 281.861C217.643 247.661 244.838 219.939 278.731 203.271C312.624 186.603 351.191 181.985 388.063 190.181C424.936 198.376 457.911 218.894 481.545 248.348C485.615 253.42 489.365 258.704 492.786 264.17C519.971 307.608 559.612 352.188 610.87 352.188Z"
			fill="white" />
	</mask>
	<g mask="url(#mask0_133_16)">
		<path
			d="M610.87 352.188C662.128 352.188 704.876 309.949 691.505 260.486C678.943 214.026 656.882 170.313 626.345 132.256C576.289 69.8728 506.448 26.4158 428.353 9.05835C350.257 -8.2991 268.574 1.48057 196.788 36.7831C125.003 72.0856 67.4053 130.801 33.5039 203.235C-0.397517 275.671 -8.57623 357.495 10.3179 435.203C29.212 512.911 74.0491 581.856 137.429 630.658C200.808 679.459 278.94 705.199 358.928 703.628C407.725 702.671 455.433 691.586 499.163 671.449C545.719 650.011 550.761 590.14 517.911 550.807C485.061 511.475 425.421 509.627 374.64 516.605C368.25 517.484 361.788 517.992 355.285 518.12C317.519 518.861 280.629 506.708 250.704 483.666C220.781 460.625 199.611 428.073 190.69 391.383C181.769 354.694 185.631 316.06 201.638 281.861C217.643 247.661 244.838 219.939 278.731 203.271C312.624 186.603 351.191 181.986 388.063 190.181C424.936 198.376 457.911 218.894 481.545 248.348C485.615 253.42 489.365 258.704 492.786 264.17C519.971 307.608 559.612 352.188 610.87 352.188Z"
			stroke="url(#paint0_radial_133_16)" stroke-width="342" />
	</g>
	<defs>
		<radialGradient id="paint0_radial_133_16" cx="0" cy="0" r="1" gradientUnits="userSpaceOnUse"
			gradientTransform="translate(215.484 137.512) rotate(57.3834) scale(603.813 603.918)">
			<stop stop-color="white" />
			<stop offset="1" stop-color="white" stop-opacity="0" />
		</radialGradient>
	</defs>
</svg>