<svg width="20" height="20" viewBox="0 0 20 20" fill="none" xmlns="http://www.w3.org/2000/svg">
	<g clip-path="url(#clip0_169_2313)">
		<path
			d="M0 10.0036C0 8.7974 0 7.58397 0 6.37776C0.00722022 3.19971 2.12274 0.628388 5.2491 0.108345C6.11552 -0.0361116 7.01083 0.0144482 7.8917 0.0288938C8.44043 0.0361167 8.86643 0.592274 8.85198 1.14843C8.83032 1.74793 8.36823 2.21019 7.74729 2.22463C7.27798 2.23908 6.80866 2.22463 6.33935 2.22463C3.97834 2.23185 2.21661 3.99422 2.21661 6.35609C2.21661 8.78296 2.21661 11.2098 2.21661 13.6439C2.21661 16.013 3.99278 17.7826 6.36101 17.7826C8.77256 17.7826 11.1769 17.7826 13.5884 17.7826C15.9856 17.7826 17.7545 16.013 17.7545 13.6078C17.7545 13.1455 17.7473 12.6905 17.7545 12.2282C17.7617 11.636 18.2238 11.152 18.8087 11.1232C19.3791 11.0943 19.935 11.5132 19.9567 12.091C20 13.1672 20.0505 14.2579 19.769 15.3196C19.0469 18.0498 16.5704 19.9856 13.7473 20C11.2419 20.0072 8.72924 20.0072 6.22383 20C2.81588 19.9783 0.0361011 17.212 0.00722022 13.7956C-0.00722022 12.5316 0.00722022 11.2676 0 10.0036Z"
			fill="#E72D30" />
		<path
			d="M9.87733 11.6649C10.325 11.087 10.7582 10.5309 11.1986 9.9675C13.0542 7.57674 14.9098 5.19321 16.7582 2.80246C17.0326 2.44854 17.3503 2.22463 17.8123 2.25352C18.2456 2.28964 18.5632 2.50632 18.7365 2.90358C18.9243 3.3225 18.8521 3.71253 18.5777 4.07367C17.4441 5.53268 16.3105 6.99892 15.177 8.45793C13.9784 9.99639 12.7871 11.5421 11.5885 13.0733C10.9965 13.8317 10.0939 14.1206 9.22751 13.81C8.91704 13.6945 8.59935 13.5067 8.36108 13.2756C7.15531 12.1055 5.97841 10.9137 4.7943 9.72192C4.3322 9.25966 4.31776 8.56627 4.74375 8.14735C5.21307 7.68509 5.88455 7.68509 6.36108 8.16179C7.46578 9.25244 8.55603 10.3575 9.6535 11.4554C9.71126 11.5132 9.79069 11.5782 9.87733 11.6649Z"
			fill="#E72D30" />
	</g>
	<defs>
		<clipPath id="clip0_169_2313">
			<rect width="20" height="20" fill="white" />
		</clipPath>
	</defs>
</svg>