<svg width="89" height="91" viewBox="0 0 89 91" fill="none" xmlns="http://www.w3.org/2000/svg">
<ellipse cx="44.5" cy="45.2229" rx="44.5" ry="45.0796" fill="#E72D30"/>
<g clip-path="url(#clip0_262_2084)">
<path d="M68 43.5432C68 44.6588 68 45.7744 68 46.8901C67.9266 47.4231 67.8654 47.9561 67.7919 48.4891C67.3635 51.4889 66.4211 54.3151 64.9646 56.9678C64.8667 57.1414 64.8667 57.3893 64.8667 57.6124C64.8789 58.4925 65.0503 59.385 64.9156 60.2403C64.3281 64.1078 60.693 66.6365 56.9109 65.868C56.5193 65.7936 56.2255 65.868 55.8828 66.0539C51.3052 68.6074 46.4094 69.5247 41.232 68.8182C36.7279 68.1984 32.7255 66.3762 29.274 63.3888C25.0391 59.6701 22.3831 55.0465 21.3672 49.456C21.2081 48.6007 21.1224 47.7454 21 46.8901C21 45.7744 21 44.6588 21 43.5432C21.0979 42.7747 21.1836 42.0061 21.306 41.25C22.0404 36.9486 23.7784 33.106 26.5812 29.7963C30.2409 25.5074 34.8063 22.8175 40.3141 21.7886C41.1464 21.6275 42.0031 21.5407 42.8477 21.4167C43.9492 21.4167 45.0508 21.4167 46.1523 21.4167C46.2747 21.4415 46.3849 21.4911 46.5073 21.5035C48.8328 21.6771 51.1094 22.1853 53.2513 23.115C61.1091 26.5486 65.9438 32.4986 67.6328 41.0269C67.7919 41.8574 67.8776 42.7003 68 43.5432ZM53.5328 64.1078C52.2966 62.8558 51.1094 61.641 49.8977 60.4386C49.812 60.3519 49.5794 60.3767 49.4448 60.4138C46.8622 61.2691 44.2307 61.5047 41.5747 60.9221C35.2714 59.5461 31.1711 55.6787 29.274 49.4436C28.9924 48.5387 28.8823 47.5842 28.6865 46.5926C28.05 46.5926 27.3768 46.5926 26.7159 46.5926C26.7159 45.6505 26.7159 44.758 26.7159 43.8531C28.307 43.8531 29.8737 43.8531 31.4771 43.8531C31.269 47.6338 32.2115 51.0302 34.6961 53.8937C37.193 56.7571 40.3508 58.2694 44.1206 58.4057C47.3763 58.5173 50.3016 57.5008 52.7984 55.3688C56.3234 52.369 57.7432 48.4643 57.5229 43.8655C59.1508 43.8655 60.7052 43.8655 62.2719 43.8655C62.2719 44.7952 62.2719 45.7001 62.2719 46.6421C61.5865 46.6421 60.9255 46.6421 60.2768 46.6421C60.2523 46.7165 60.2156 46.7537 60.2156 46.7909C59.9708 47.9685 59.7138 49.1461 59.4813 50.3237C59.4568 50.4724 59.5424 50.708 59.6526 50.8319C60.7297 51.9475 61.8312 53.0508 62.9206 54.1664C62.994 54.2407 63.0797 54.2903 63.1654 54.3523C67.2779 45.8364 65.3073 34.7298 56.813 28.3336C48.588 22.1233 37.0706 23.0158 29.8125 30.3789C22.5667 37.7544 21.7099 49.4064 27.8419 57.724C34.1576 66.2894 45.112 68.2852 53.5328 64.1078ZM59.2242 58.1454C58.5633 58.8148 57.9268 59.4594 57.2292 60.1659C56.3724 59.2858 55.5034 58.3809 54.6589 57.5008C53.9245 58.0215 53.2146 58.5297 52.5292 59.0255C53.5573 60.0792 54.5365 61.17 55.6013 62.1616C57.1068 63.5748 59.4568 63.5252 60.9867 62.0997C62.4677 60.7237 62.7492 58.2942 61.4763 56.7199C60.4849 55.4927 59.3099 54.4267 58.2083 53.2739C57.6698 54.0548 57.168 54.7738 56.6417 55.5175C57.4984 56.3976 58.3674 57.2777 59.2242 58.1454Z" fill="white"/>
<path d="M55.7971 40.7046C54.8547 40.7046 53.9734 40.7046 53.0432 40.7046C53.0432 39.9856 53.0432 39.2915 53.0432 38.5973C53.031 37.271 52.1253 36.2917 50.9135 36.3165C49.7141 36.3289 48.8083 37.2958 48.8083 38.5973C48.8083 39.2915 48.8083 39.9856 48.8083 40.7046C47.8781 40.7046 46.9846 40.7046 45.9688 40.7046C46.0667 39.4774 46.0055 38.2502 46.2747 37.0974C46.801 34.829 49.1021 33.2919 51.3664 33.5274C53.7776 33.7754 55.6625 35.7215 55.7971 38.1263C55.8339 38.9692 55.7971 39.8245 55.7971 40.7046Z" fill="white"/>
<path d="M42.9448 40.7044C42.0146 40.7044 41.1333 40.7044 40.1909 40.7044C40.1909 39.9359 40.2031 39.1797 40.1909 38.436C40.1664 37.5807 39.7625 36.9237 39.0036 36.5394C38.2325 36.1552 37.4859 36.2419 36.8005 36.7502C36.262 37.1468 35.9682 37.6922 35.9682 38.374C35.956 39.1301 35.9682 39.8863 35.9682 40.692C35.0502 40.692 34.1567 40.692 33.1898 40.692C33.2388 39.1797 32.9695 37.6427 33.7284 36.2047C34.3403 35.0519 35.2461 34.2462 36.4578 33.7876C39.5299 32.6596 42.8713 34.9652 42.9448 38.2748C42.957 39.0806 42.9448 39.8863 42.9448 40.7044Z" fill="white"/>
</g>
<defs>
<clipPath id="clip0_262_2084">
<rect width="47" height="47.6122" fill="white" transform="translate(21 21.4167)"/>
</clipPath>
</defs>
</svg>
