<svg width="89" height="89" viewBox="0 0 89 89" fill="none" xmlns="http://www.w3.org/2000/svg">
<circle cx="44.5" cy="44.5" r="44.5" fill="#E72D30"/>
<g clip-path="url(#clip0_262_2055)">
<path d="M44.1223 68.9998C42.3631 68.6748 41.2196 67.3998 39.9505 66.3248C36.7839 63.6373 33.5922 60.9748 30.501 58.2123C28.0758 56.0373 25.9145 53.5998 24.5071 50.6373C22.1825 45.7748 22.4966 41.0623 25.7763 36.7498C29.7219 31.5748 37.9525 30.7248 42.7778 36.5373C43.3935 37.2873 43.9212 38.0998 44.537 38.9373C44.6249 38.7998 44.7129 38.6623 44.8008 38.5123C46.3841 35.9498 48.4323 33.9248 51.3979 33.0123C56.6629 31.3748 62.3175 33.9248 64.6673 39.0623C66.8412 43.8123 66.2757 48.3873 63.3981 52.6998C61.752 55.1748 59.6913 57.3123 57.4922 59.2998C54.288 62.1998 51.0209 65.0373 47.7789 67.8998C47.1255 68.4748 46.3464 68.7623 45.5297 68.9998C45.0647 68.9998 44.5998 68.9998 44.1223 68.9998ZM60.2693 44.7498C60.2818 44.8123 60.307 44.8623 60.307 44.8998C60.307 45.0123 60.2944 45.1123 60.2944 45.2248C60.1813 46.8748 59.5279 48.3248 58.6106 49.6748C57.2535 51.6623 55.532 53.3373 53.7979 54.9873C53.1822 55.5748 52.5413 56.1248 51.9382 56.7123C51.4104 57.2248 51.3225 57.9748 51.6994 58.5498C52.089 59.1248 52.7424 59.3123 53.4461 59.0248C53.6848 58.9248 53.9236 58.7873 54.1121 58.6123C55.1676 57.6248 56.2231 56.6498 57.2409 55.6373C58.7991 54.0873 60.2567 52.4623 61.4128 50.5748C63.3228 47.4373 63.7123 44.1373 62.3301 40.7248C60.0557 35.0998 53.2953 33.8123 49.3873 37.3623C48.2062 38.4373 47.314 39.7123 46.6229 41.1498C49.0983 42.3748 50.4303 44.3123 50.1287 47.0373C49.8271 49.7498 48.1056 51.3498 45.4166 52.0248C45.5799 52.0623 45.7056 52.1123 45.8187 52.1248C47.5402 52.2748 49.1612 52.7998 50.669 53.6373C50.8827 53.7623 51.0209 53.7373 51.1968 53.5623C52.3403 52.4248 53.5215 51.3248 54.6147 50.1373C56.0346 48.5998 57.3792 46.9998 57.4922 44.7623C58.4221 44.7498 59.3394 44.7498 60.2693 44.7498ZM42.4008 41.1373C41.4583 39.2248 40.2646 37.5873 38.4551 36.4748C34.8488 34.2623 29.9104 35.3998 27.5481 39.1123C25.2737 42.6873 25.3491 46.3873 27.3847 50.0623C28.3523 51.8123 29.6465 53.3248 31.0665 54.7248C32.3984 56.0248 33.7555 57.2998 35.1503 58.5373C36.1179 59.4123 37.475 58.9998 37.6761 57.8248C37.7766 57.2623 37.5253 56.8373 37.1106 56.4623C35.9797 55.4498 34.8488 54.4373 33.7555 53.3873C32.1723 51.8748 30.6895 50.2623 29.6591 48.2998C29.0811 47.1998 28.7167 46.0373 28.7167 44.7498C29.6717 44.7498 30.6015 44.7498 31.5565 44.7498C31.6319 46.2123 32.323 47.3998 33.165 48.4998C34.5723 50.3748 36.3064 51.9373 38.053 53.4873C38.1536 53.5748 38.4174 53.5373 38.5808 53.4873C39.6112 53.1248 40.6164 52.6873 41.6594 52.3623C42.2751 52.1748 42.9411 52.1248 43.6448 51.9998C40.9934 51.3623 39.2845 49.7998 38.9326 47.1498C38.5431 44.3748 39.8751 42.3998 42.4008 41.1373ZM48.9852 55.9623C46.2836 54.4248 42.3505 54.5873 40.2018 55.9123C41.006 58.1623 40.3651 59.9623 38.4174 61.3498C40.2269 62.8623 41.9987 64.3623 43.7956 65.8248C44.4741 66.3748 45.3035 66.2998 45.9946 65.7123C47.5527 64.3748 49.0983 63.0248 50.6439 61.6873C50.7067 61.6373 50.757 61.5623 50.8198 61.4873C48.9475 60.3748 48.0554 58.3248 48.9852 55.9623ZM44.5244 49.2123C46.0574 49.1998 47.3391 47.9123 47.3266 46.3873C47.3266 44.8623 46.0323 43.5873 44.4993 43.5873C42.9537 43.5873 41.6468 44.8998 41.672 46.4248C41.6971 47.9623 42.9914 49.2248 44.5244 49.2123Z" fill="white"/>
<path d="M31.7709 32.3375C28.6672 32.3375 26.1289 29.825 26.1289 26.7625C26.1289 23.55 28.6546 21 31.8086 21C34.9249 21 37.4381 23.5875 37.4381 26.775C37.4381 29.8375 34.8872 32.3375 31.7709 32.3375ZM31.7709 23.8125C30.2756 23.825 28.9562 25.1625 28.9562 26.7125C28.9562 28.2375 30.2379 29.525 31.7709 29.5375C33.3165 29.55 34.6359 28.225 34.6108 26.6875C34.5857 25.1375 33.2663 23.8 31.7709 23.8125Z" fill="white"/>
<path d="M62.8845 26.7375C62.8845 29.825 60.3588 32.3375 57.2676 32.3375C54.1513 32.3375 51.5879 29.85 51.5879 26.8C51.5879 23.5875 54.101 21 57.2299 21C60.3588 21 62.8719 23.5625 62.8845 26.7375ZM60.0572 26.725C60.0572 25.1875 58.7629 23.8375 57.255 23.8125C55.7472 23.8 54.4026 25.1625 54.4026 26.725C54.4026 28.25 55.6969 29.5375 57.2299 29.5375C58.7629 29.525 60.0572 28.25 60.0572 26.725Z" fill="white"/>
</g>
<defs>
<clipPath id="clip0_262_2055">
<rect width="43" height="48" fill="white" transform="translate(23 21)"/>
</clipPath>
</defs>
</svg>
