<svg width="89" height="91" viewBox="0 0 89 91" fill="none" xmlns="http://www.w3.org/2000/svg">
<ellipse cx="44.5" cy="45.4775" rx="44.5" ry="45.0796" fill="#E72D30"/>
<g clip-path="url(#clip0_262_2063)">
<path d="M44.4922 69.2554C37.3002 69.2554 30.1222 69.227 22.9302 69.2837C21.6009 69.2978 20.6075 68.1086 21.1811 66.707C22.3005 63.9462 23.3359 61.1572 24.3994 58.3681C24.5393 57.9859 24.6372 57.547 24.6372 57.1364C24.6512 49.3497 24.6512 41.563 24.6372 33.7763C24.6372 33.3799 24.5533 32.9693 24.4133 32.6012C23.3359 29.798 22.2445 26.9806 21.1671 24.1774C20.8313 23.2996 20.9852 22.4927 21.6709 22.0538C22.0207 21.8272 22.4824 21.714 22.8882 21.714C31.8712 21.6857 40.8403 21.6998 49.8233 21.6998C55.2383 21.6998 60.6673 21.7281 66.0823 21.6715C67.4256 21.6574 68.405 22.8608 67.8313 24.2482C66.712 27.0089 65.6765 29.798 64.6131 32.5871C64.4732 32.9693 64.3752 33.4082 64.3752 33.8188C64.3613 41.6055 64.3613 49.3922 64.3752 57.1789C64.3752 57.5753 64.4592 57.9859 64.5991 58.354C65.6625 61.1572 66.7399 63.9462 67.8173 66.7495C68.363 68.1794 67.6214 69.2695 66.0963 69.2695C58.9043 69.2695 51.6983 69.2554 44.4922 69.2554ZM27.2958 30.6191C27.3937 30.874 27.4497 31.1147 27.5476 31.327C27.9254 32.1199 28.0234 32.9552 28.0234 33.8471C28.0094 41.3082 27.9954 48.7834 28.0234 56.2445C28.0234 57.5611 27.9954 58.8495 27.3797 60.0529C27.3377 60.1237 27.3377 60.2086 27.3097 60.3077C38.7834 60.3077 50.2291 60.3077 61.7167 60.3077C61.6328 60.0812 61.5768 59.8688 61.4928 59.6848C61.0731 58.8212 60.9751 57.9151 60.9891 56.9665C61.0031 49.378 61.0171 41.7895 60.9891 34.201C60.9891 33.0967 61.0871 32.0632 61.5768 31.0722C61.6468 30.9448 61.6607 30.789 61.7167 30.6333C50.2151 30.6191 38.7834 30.6191 27.2958 30.6191ZM63.06 27.2071C63.3258 26.5134 63.5777 25.8339 63.8435 25.1401C50.9147 25.1401 38.0698 25.1401 25.1689 25.1401C25.4488 25.8622 25.7006 26.5276 25.9665 27.2071C38.3217 27.2071 50.6488 27.2071 63.06 27.2071ZM63.8575 65.8434C63.6476 65.2771 63.4238 64.7674 63.2559 64.2294C63.1299 63.8188 62.92 63.7197 62.5003 63.7197C50.5089 63.7339 38.5175 63.7339 26.5262 63.7339C26.4002 63.7339 26.2743 63.7197 26.1624 63.7339C26.0784 63.748 25.9525 63.8047 25.9245 63.8755C25.6587 64.5125 25.4208 65.1638 25.1549 65.8434C38.0978 65.8434 50.9427 65.8434 63.8575 65.8434Z" fill="white"/>
<path d="M47.7384 34.4417C51.6422 34.4558 54.4966 36.6078 55.2522 39.6517C55.5321 40.7984 55.5181 41.9452 55.1543 43.0495C53.0274 49.5903 48.7598 54.0217 42.2814 56.1878C37.9158 57.646 34.3058 54.4464 33.6901 50.6238C33.1165 46.9995 34.8095 44.1396 38.2096 42.8513C38.5175 42.738 38.8253 42.6248 39.1471 42.5115C40.3504 42.1009 41.134 41.2656 41.5678 40.0622C41.8896 39.1703 42.2254 38.2642 42.7151 37.4714C44.0164 35.3902 45.9613 34.47 47.7384 34.4417ZM48.354 37.8395C46.9128 37.8678 45.8494 38.5191 45.2477 39.864C45.0099 40.4162 44.828 40.9825 44.6181 41.5488C43.8765 43.4742 42.5472 44.8192 40.6443 45.5837C40.1266 45.7961 39.5949 45.966 39.0772 46.1925C37.2162 46.9853 36.4886 48.84 37.2442 50.8504C37.9578 52.7616 39.6229 53.5545 41.5538 52.8466C46.577 51.0203 50.0051 47.5516 51.7821 42.469C51.964 41.931 52.062 41.3081 51.992 40.756C51.7961 39.0712 50.215 37.8536 48.354 37.8395Z" fill="white"/>
<path d="M46.6758 42.2849C46.6758 41.3221 47.4034 40.5859 48.3688 40.5859C49.3063 40.5859 50.0759 41.3646 50.0619 42.299C50.0479 43.2051 49.2923 43.9838 48.3968 43.9838C47.4593 43.9979 46.6898 43.2193 46.6758 42.2849Z" fill="white"/>
<path d="M42.6736 50.3688C41.7362 50.3546 40.9806 49.5901 41.0086 48.6415C41.0226 47.7213 41.7781 46.9709 42.6876 46.9709C43.6111 46.9709 44.3947 47.7496 44.3947 48.684C44.3807 49.6184 43.6111 50.3829 42.6736 50.3688Z" fill="white"/>
</g>
<defs>
<clipPath id="clip0_262_2063">
<rect width="47" height="47.6122" fill="white" transform="translate(21 21.6714)"/>
</clipPath>
</defs>
</svg>
