<svg width="89" height="89" viewBox="0 0 89 89" fill="none" xmlns="http://www.w3.org/2000/svg">
<circle cx="44.5" cy="44.5" r="44.5" fill="#E72D30"/>
<g clip-path="url(#clip0_262_2073)">
<path d="M62.5906 21C63.0435 21.1223 63.5086 21.2202 63.9492 21.3792C66.3604 22.2356 68.0005 24.5476 68.0005 27.1044C68.0005 28.3277 68.0617 29.5632 67.8904 30.7621C67.5966 32.854 66.4461 34.4321 64.5857 35.4597C63.6922 35.9612 62.6151 35.6432 62.1133 34.7868C61.587 33.906 61.844 32.8173 62.762 32.279C63.8635 31.6307 64.3286 30.6642 64.3409 29.4287C64.3409 28.7436 64.3531 28.0586 64.3409 27.3613C64.3042 25.4284 62.7497 24.2907 60.9016 24.8168C59.5919 25.196 58.8453 26.1746 58.8453 27.557C58.8331 30.2972 58.8453 33.0252 58.8331 35.7655C58.8208 37.0744 57.6214 37.9185 56.3852 37.5026C55.6753 37.2579 55.1734 36.6218 55.1734 35.8389C55.1612 32.8907 55.1367 29.9425 55.1979 26.982C55.2102 26.2236 55.4917 25.4774 55.663 24.67C55.5529 24.67 55.3937 24.67 55.2346 24.67C46.9607 24.67 38.6867 24.67 30.4128 24.67C27.0836 24.67 24.6724 27.0799 24.6724 30.3584C24.6724 37.2579 24.6602 44.1452 24.6724 51.0448C24.6724 54.7147 27.0714 57.6507 30.6698 58.3847C31.1471 58.4826 31.6367 58.5193 32.1263 58.5193C33.7052 58.5315 35.2719 58.5193 36.8508 58.5315C38.0135 58.5315 38.8091 59.29 38.7969 60.3787C38.7969 61.4552 38.0135 62.1892 36.863 62.1892C35.1372 62.1892 33.4115 62.2015 31.6734 62.1892C26.6552 62.1525 21.9919 58.1645 21.1719 53.2223C21.1229 52.9042 21.0495 52.5984 20.9883 52.2803C20.9883 44.5734 20.9883 36.8665 20.9883 29.1596C21.0128 29.0739 21.0617 28.9883 21.074 28.9027C21.6859 25.3061 23.7055 22.8472 27.1081 21.5383C27.769 21.2814 28.4789 21.1713 29.1766 21C40.3146 21 51.4526 21 62.5906 21Z" fill="white"/>
<path d="M56.8869 44.0228C56.8624 44.243 56.6421 44.7446 56.789 45.0994C56.9358 45.4541 57.4744 45.6254 57.7926 45.9312C59.3593 47.4481 59.1145 50.115 57.2786 51.3505C56.8257 51.6564 56.74 51.9133 56.8502 52.4393C57.352 54.8248 55.0877 57.0512 52.7009 56.5374C52.2236 56.4395 51.9666 56.4885 51.6728 56.9289C50.253 59.0697 47.2054 59.0575 45.7733 56.9166C45.5163 56.5374 45.296 56.4151 44.8309 56.5129C42.2851 57.039 40.1309 54.8859 40.645 52.3292C40.7429 51.8643 40.6327 51.6441 40.2411 51.3872C38.0869 49.9559 38.0869 46.8976 40.2533 45.4664C40.6327 45.2095 40.7306 44.9893 40.645 44.5611C40.1309 41.9554 42.2483 39.8391 44.8431 40.3529C45.2838 40.4385 45.5041 40.3529 45.7611 39.9736C47.1931 37.8084 50.253 37.7839 51.6851 39.9492C51.9543 40.3651 52.2114 40.4385 52.6765 40.3406C54.8796 39.888 56.8991 41.5517 56.8869 44.0228ZM48.7231 42.1267C47.6827 43.876 46.1895 44.4265 44.2801 43.9984C44.733 45.9679 44.121 47.4114 42.4197 48.439C43.2397 48.9161 43.8395 49.5156 44.1822 50.3352C44.5249 51.1548 44.4392 51.9867 44.3046 52.8675C45.2103 52.6717 46.0426 52.6473 46.8504 52.9898C47.6705 53.3323 48.2335 53.9562 48.7353 54.7269C49.2127 53.9073 49.8124 53.3201 50.6325 52.9653C51.4525 52.6228 52.2848 52.7207 53.1783 52.8308C52.7254 50.8857 53.3374 49.4422 55.0387 48.4146C53.2884 47.387 52.7377 45.8945 53.166 43.9739C51.2077 44.4388 49.7634 43.8393 48.7231 42.1267Z" fill="white"/>
<path d="M39.9102 33.8448C36.6789 33.8448 33.4599 33.8448 30.2287 33.8448C28.8823 33.8448 28.0255 32.646 28.4417 31.3982C28.6865 30.6886 29.3229 30.1993 30.1063 30.1871C30.7917 30.1748 31.4771 30.1871 32.1748 30.1871C37.9763 30.1871 43.7656 30.1871 49.5672 30.1871C50.938 30.1871 51.807 31.3982 51.3664 32.6582C51.1094 33.3922 50.4485 33.8448 49.5917 33.8448C46.3604 33.8448 43.1414 33.8448 39.9102 33.8448Z" fill="white"/>
<path d="M45.8696 63.608C46.3959 63.1309 46.8243 62.7394 47.2527 62.348C48.1462 61.5161 49.1253 61.5283 50.0188 62.3602C50.4472 62.7517 50.8756 63.1431 51.3774 63.608C51.3774 62.8006 51.3652 62.0911 51.3774 61.3938C51.4019 60.0848 52.5891 59.2407 53.8253 59.6567C54.523 59.8891 55.0248 60.5252 55.037 61.2715C55.0615 62.5559 55.0982 63.8404 55.0248 65.1249C54.9514 66.3727 54.2659 67.278 53.1032 67.7551C51.9159 68.2444 50.7899 68.0364 49.8107 67.2046C49.4191 66.8743 49.0396 66.5073 48.6113 66.1158C48.2318 66.4583 47.8769 66.8009 47.4975 67.1312C46.5795 67.9508 45.5269 68.2321 44.3519 67.8529C43.1769 67.4737 42.4425 66.6418 42.2344 65.4307C42.1243 64.8313 42.1855 64.2074 42.1732 63.608C42.161 62.874 42.161 62.14 42.1732 61.406C42.1855 60.3417 42.9566 59.571 43.9969 59.571C45.0373 59.571 45.8206 60.3295 45.8329 61.3815C45.8818 62.0666 45.8696 62.7761 45.8696 63.608Z" fill="white"/>
<path d="M33.2273 41.1847C32.2359 41.1847 31.2445 41.1847 30.2409 41.1847C29.1148 41.1724 28.3438 40.414 28.3438 39.3374C28.356 38.2854 29.1271 37.5269 30.2286 37.5269C32.2482 37.5269 34.2677 37.5147 36.2872 37.5269C37.3766 37.5269 38.1599 38.2976 38.1599 39.3497C38.1599 40.414 37.3888 41.1724 36.2995 41.1847C35.2714 41.1847 34.2432 41.1847 33.2273 41.1847Z" fill="white"/>
<path d="M31.8565 48.5248C31.2935 48.5248 30.7305 48.537 30.1552 48.5248C29.1026 48.5003 28.3438 47.7174 28.3438 46.6776C28.3438 45.6622 29.1026 44.8793 30.1307 44.8671C31.2935 44.8549 32.4562 44.8549 33.619 44.8671C34.6471 44.8793 35.3937 45.6622 35.406 46.6898C35.406 47.7297 34.6471 48.5126 33.5945 48.5248C33.007 48.5248 32.4318 48.5248 31.8565 48.5248Z" fill="white"/>
</g>
<defs>
<clipPath id="clip0_262_2073">
<rect width="47" height="47" fill="white" transform="translate(21 21)"/>
</clipPath>
</defs>
</svg>
